/* XPM */
static char *_680277405151[] = {
/* columns rows colors chars-per-pixel */
"64 64 236 2 ",
"   c #534E3E",
".  c #594D35",
"X  c #6B633A",
"o  c #6A5834",
"O  c #4A396D",
"+  c #753B47",
"@  c #4E4D46",
"#  c #4E4E4E",
"$  c #524D43",
"%  c #5C474C",
"&  c #524D4E",
"*  c #5A4B4D",
"=  c #584F46",
"-  c #47524E",
";  c #4D504E",
":  c #565245",
">  c #5A5445",
",  c #51514E",
"<  c #5A524C",
"1  c #4E4E51",
"2  c #4C4959",
"3  c #514E51",
"4  c #5A4C52",
"5  c #514D5B",
"6  c #574751",
"7  c #4E5151",
"8  c #455259",
"9  c #4B525C",
"0  c #495756",
"q  c #525252",
"w  c #595555",
"e  c #555558",
"r  c #585857",
"t  c #66474A",
"y  c #73494C",
"u  c #655B49",
"i  c #6B4B52",
"p  c #634B53",
"a  c #734F58",
"s  c #665954",
"d  c #765358",
"f  c #4B665C",
"g  c #6B6159",
"h  c #736559",
"j  c #716743",
"k  c #4D4763",
"l  c #534867",
"z  c #4B5965",
"x  c #574878",
"c  c #56576D",
"v  c #7C5B65",
"b  c #586966",
"n  c #5D7E73",
"m  c #516777",
"M  c #6D6766",
"N  c #776B67",
"B  c #7B7466",
"V  c #677B73",
"C  c #AA201E",
"Z  c #9F313E",
"A  c #BB322E",
"S  c #C93934",
"D  c #C6322B",
"F  c #A84B38",
"G  c #D1443A",
"H  c #9B3543",
"J  c #C43D43",
"K  c #9E4A4D",
"L  c #87565D",
"P  c #925051",
"I  c #A84649",
"U  c #B84547",
"Y  c #A84953",
"T  c #B84A55",
"R  c #B05655",
"E  c #956C5B",
"W  c #B46958",
"Q  c #8D5864",
"!  c #A1566E",
"~  c #B75564",
"^  c #A55B75",
"/  c #856768",
"(  c #976767",
")  c #9A786A",
"_  c #8A6873",
"`  c #96687D",
"'  c #8A7874",
"]  c #997D72",
"[  c #887968",
"{  c #A87466",
"}  c #B66679",
"|  c #A77777",
" . c #BC7779",
".. c #B06B6A",
"X. c #C34B4A",
"o. c #C9494A",
"O. c #D64A49",
"+. c #C44C52",
"@. c #C64B54",
"#. c #C85459",
"$. c #DB5A56",
"%. c #D65656",
"&. c #D05051",
"*. c #E35C57",
"=. c #E4584E",
"-. c #D96759",
";. c #D67C5E",
":. c #C87554",
">. c #E6645D",
",. c #F3695F",
"<. c #C75868",
"1. c #D45B68",
"2. c #D65F72",
"3. c #E05E60",
"4. c #DD626A",
"5. c #D87067",
"6. c #DB6A79",
"7. c #DD767B",
"8. c #C2717A",
"9. c #EA6562",
"0. c #ED6A64",
"q. c #E76868",
"w. c #F26D69",
"e. c #E77A69",
"r. c #F3726C",
"t. c #FA746D",
"y. c #F57067",
"u. c #E76B75",
"i. c #E97676",
"p. c #F57374",
"a. c #FE7C74",
"s. c #FC777B",
"d. c #FB7B7B",
"f. c #F87976",
"g. c #62867A",
"h. c #B9835D",
"j. c #938B6F",
"k. c #9C8575",
"l. c #8D866C",
"z. c #A48279",
"x. c #A89779",
"c. c #AD926B",
"v. c #9B8957",
"b. c #CF9879",
"n. c #CF8665",
"m. c #EB8A79",
"M. c #F3837B",
"N. c #FE837C",
"B. c #FA857A",
"V. c #EE9679",
"C. c #F29177",
"Z. c #E5A77E",
"A. c #503298",
"S. c #5C4C8A",
"D. c #587883",
"F. c #6A6099",
"G. c #9B6A81",
"H. c #A77683",
"J. c #B57789",
"K. c #B4768C",
"L. c #CF7885",
"P. c #E87985",
"I. c #F27681",
"U. c #F47A83",
"Y. c #FB7D83",
"T. c #FB7E8A",
"R. c #768E91",
"E. c #77A092",
"W. c #948D88",
"Q. c #B99883",
"!. c #B08A84",
"~. c #85A397",
"^. c #BDA984",
"/. c #B4A394",
"(. c #8298A7",
"). c #90ADB4",
"_. c #DA858B",
"`. c #C59782",
"'. c #D0979D",
"]. c #CC8894",
"[. c #E78488",
"{. c #FE8484",
"}. c #FE8B84",
"|. c #FE848C",
" X c #FC8A8A",
".X c #F58782",
"XX c #FE938C",
"oX c #FB9388",
"OX c #F88995",
"+X c #E4989C",
"@X c #FE9B94",
"#X c #FE9E99",
"$X c #F79795",
"%X c #EA8E8D",
"&X c #DBB78B",
"*X c #C4AE93",
"=X c #CBB495",
"-X c #CEAF8A",
";X c #FCA885",
":X c #E8B586",
">X c #F6B78E",
",X c #FFA49D",
"<X c #FBA999",
"1X c #E8B892",
"2X c #FFBB9A",
"3X c #DB9CA5",
"4X c #E99AA6",
"5X c #F298A2",
"6X c #CEB0B0",
"7X c #FDABA4",
"8X c #FFB2AA",
"9X c #FFBBB4",
"0X c #E2A3AB",
"qX c #9DC3B6",
"wX c #A5C5B8",
"eX c #E9C38D",
"rX c #ECCC93",
"tX c #E9C796",
"yX c #E9CBA6",
"uX c #FDC9A9",
"iX c #EDDCB4",
"pX c #FDDBB1",
"aX c #FFCBB3",
"sX c #FEEDBC",
"dX c #FBE5B7",
"fX c #D2C9A0",
"gX c #9EBACB",
"hX c #99B9D0",
"jX c #AAC9D8",
"kX c #BAE1F2",
"lX c #ADD1E7",
"zX c #D2C9C3",
"xX c #FFD1C7",
"cX c #FDE9C7",
"vX c #FDEAD1",
"bX c #C5E3EE",
/* pixels */
"# # # # # @ - @ 1 1 # # # # 1 # # # @ @ 1 1 , # 1 1 & , q q q q e q q q q 3 & q ; q q 3 & & 7 7 q , # # # # 3 q # # , # 1 1 , # ",
"# # # # # # @ 2 # 1 # 1 # # # 3 # # - 1 # # q # 1 7 3 ; q q q , e q q q 3 3 & # q # 7 q 3 & & ; & 7 , 1 # 7 ; # # q 1 # , # , 1 ",
"# # # # # # # # # # # 1 # # # 1 1 # # # 1 3 q q q & , , , # # 1 , q q q # q 7 # q q q q # # ; 7 ; & q 1 & # # # # # # # # # # # ",
"# # # # # # # # # # 1 @ # # # # # # # # 1 & 1 # # , # # 7 1 3 1 ; , # # # 7 & ; ; 3 q , ; 7 & q 3 ; # q 7 # # # # # # # # # # # ",
"# # # # # # @ # # # # # # # # # - # # # ; # # # # @ # # ; q q q # ; # # 3 3 # q ; q q q & ; ; ; # ; ; q q # # # # # # # # # # # ",
"# # # # # # # # # # # # # # # # # # # # # # # # # # # 7 3 q q q ; ; & # # & 3 # 7 7 q 3 ; ; # , ; 3 3 q q # # # # # # # # # # # ",
"# # # # # # # # # # # # # 7 # # # # # 1 7 ; q # # # # , 7 q e q ; , , 7 7 , q ; & q 7 q & ; 1 q q q # # # # # # 1 # # , 7 # 1 & ",
"# # 1 # # # # # 1 q q # # & ; 3 # # # # , , q q & q , 7 q 7 1 q q q 7 ; q 7 # q q ; q q 3 & & & q # # # # # 3 q # q 7 & # & 7 ; ",
"# # # # q # # # # , # # # # , # 3 3 # # , # ; # e q q q q q q , & # # q # 3 q & ; 7 & 3 1 & # 1 # # 1 q q q q # # # # 7 & # # # ",
"# # # # # # # # # q 1 # # # q 1 1 3 & 1 & ; # # 3 q 7 7 q q , q # 3 # # ; 3 & 7 # - # 3 & # 7 , # # # q # q # q # # , 1 1 # # # ",
"# # # # 1 # # # # 1 q # # q q # 7 1 1 # ; # ; , 1 # & # & ; ; # # 7 # 7 & q 3 7 q ; ; ; # # 7 # # # # # # # # q # # 1 # # # # # ",
"@ # # # # # # # # # q , , q q # 1 1 # # # , # $ * * & , & , q ; ; # - - 7 & ; & # # # 7 q # ; ; q q q # # q q q # # # , # # # # ",
"# # # # # # # # # q q # 1 q q # # # # # # # # = t t * & , , q 7 - b E.n < ; , , ; ; ; ; & ; # # q q q q # q q q , 1 ; 1 # # # # ",
"# # # # 3 # # # # 1 q # # q q # # # # # # # & % P  .i q , q & 7 - b g.).V ; & q # & ; # # & # # q q q q q q q q q ; & # # # # # ",
"@ # # # ; # # # # # # # # q q # # & # # # # & + Z ~ i # ; # # ; , e b b , , * * = & & , & , # # & q q ; # 1 # # q # , # # # # # ",
"@ # # # # # # # # # # # # # q # @ # # # # # & y Z Y t # # 1 2 2 3 q - # , > _ z.v < * & # # # q # # 7 & # # # # q q 1 # # # # # ",
"2 - # # # @ 2 # # # # # # 1 # q # # # # 1 3 3 % y t % 1 2 5 x O 2 # # 3 & % ( '.3X_ = ; # , ; ; # # # # , 7 # # # # # # & & 7 q ",
"# # # # # @ # # # # # # # # # # # # @ # 1 1 3 3 * & # # 2 k S.S.k 1 3 3 # * y P _ i * # , # ; , 7 # # # # 1 & # # # # # 7 # # # ",
"# # # # # # - @ # # # # # # # # # # # @ # 7 3 & # # - 2 5 O A.F.x 5 q 3 # & % % = & & # ; 3 q , # # # # # q 1 # 1 # # ; # # # # ",
"# # # # # @ 2 @ q q # q # , # # # # # # , 1 1 1 1 8 0 9 5 x A.A.F.k 2 q 1 & # # # ; # 3 1 q q , # # # # # q , # q # ; 3 # # # # ",
"# # # # # 2 # - q 1 ; 3 # # # # # # # # & 7 8 8 m D.E.c e l O O x k q # 7 1 7 q ; , , # : - - ; # # # # # # # # # q # q # # # # ",
"# # # # # @ @ @ # # # # # # # # # # 1 1 7 7 z R.jXkXbXR.7 4 l k 2 5 e N r 7 7 # q , :   >   @ @ # # # # # q , # 1 # # # # # # # ",
"# # # # # - 2 # # # # # # # # # # # # # q 7 c (.jXhX).z 1 7 1 1 5 3 ' zXzXB # q , > o v.fXX @ # 1 # # # # , # # # # # # , # # 1 ",
"# # # # # # @ # # # # ; & 1 q q # # # # 7 2 8 c m z 8 8 7 7 ; # q & M W.6XzXq , < j c.c.-XX   # # # # # 3 7 1 # # # # # 1 # # q ",
"# 2 @ 2 # # # @ # # # # , # # # 1 # @ 1 , q 0 7 8 7 7 # , ; 7 ; # # # q M M & # $ B c.c.X   # # q q # # 3 ; 3 3 # # # # & # q # ",
"# @ # @ 2 @ # # # # # 2 1 # # # 1 # @ 1 ; ;     @ ; # # - 7 0 b - # ; # & q & # @ > u . @ ; @ # q , 1 # # # # 1 # # # # 7 # # # ",
"@ 2 # # @ - @ @ # # # # 1 , # # 1 # 1 @ :   X X u @ # # - - n qXV - - q # @ ; @ # @ $ $ @ # # # # # # # # # # # # # # # 7 # q # ",
"@ @ - @ 2 @ 2 @ # # # # # 7 # # 1 3 # # @ > -XiX/.@ # # - - f E.wXb - - # # , , # # 1 # # - # # 7 # # # # # # # # # # # & , 1 # ",
"2 @ 2 @ - @ @ 2 # # 1 ; # ; # # # # # # @ @ / x.h - # # # # - b ~.R.- # # # # # @ - # 7 , q # q & & ; ; # # # # # # # # # ; 1 , ",
"2 @ @ @ # 2 - @ # # # # # 3 # # # # # # @ @ $ $ @ @ 3 9 1 # # - f 0 # # # # # 0 8 8 z ; 7 , # # ; 1 3 q # # # # # # # # 7 & 1 # ",
"@ @ @ 2 # @ # # # # # 1 ; & # # # # # # @ # # @ ; 2 l l 2 # # - - @ ; # 3 3 2 8 m hXjX0 1 # 1 1 # # # # # # # # # # # # 1 # , # ",
"- - 2 @ 1 1 1 # # # # # 3 ; # # # # @ @ 1 1 1 1 1 k x x 2 # # # ; ; # q q 3 5 m hXlX).8 1 # 1 # # # # # # # # # # # # # , # q # ",
"# # 1 @ # # - @ # # # # # # ; @ # # # # q 1 7 5 l O O x 5 # # # ; ; # # & 1 9 D.gXD.k # # # # # # # # # 3 & 3 q # ; q & 7 # 7 # ",
"1 # # # # # # # # # 1 # # # ; # # # # # # 3 1 5 l O O l 3 q & # ; & & # # 1 3 c z 8 q # # @ # 1 # # # # & 3 & # # 7 # # q # # & ",
"# # # # # # # # # # # # # # # # # # # # # # 1 1 4 5 2 3 3 * & & M W.6 & & # 3 1 # - # # # # ; ; ; # # # & # # # # # # q & 7 q 7 ",
"# # # - # # # # # # # # # # & & # # & # 3 & 4 6 % t d y d d d h *XvXv i i % % 4 & * & # 1 7 q 7 q 7 # # # # # # # # # - 7 q q & ",
"# # # # ; ; # # & # # 1 & 3 # # # & & 3 3 6 a L } 8.L.[.[.[._._.xX+X_.[.L. .^ d i % * & q 7 q q 3 & # 7 ; & # # # # # q 3 q q # ",
"# # # # @ ; # # # 3 ; & ; 1 # q # # 3 % a | L._.P.P..Xd.f.a.M.e.C.7.u.u.7.i.P.+X].G.a * 3 & 3 3 q 7 q 7 7 ; q # # # # # , 3 # q ",
"# # @ # # # # # & # & ; # # 1 1 5 4 a K._.P.[.d.U.B.N.{.B.B.B.B.r.0.9.3.3.4.6.6.P.%X+XJ.a * & # # q # , 7 7 , # # # # q 3 q 1 & ",
"# # # @ # # # # & & , # # 1 1 5 4 ` K.L.P.Y.Y.{.N.}.}. XC.B.B.,.>.>.=.O.%.&.1.4.u.P.T.4X]./ 6 1 # 7 # q q ; q q # # q ; 3 & ; # ",
"1 1 # # # 1 q q # ; & q 1 1 6 6 ` K.L.L.I.T.I.T.{.}.@X8X@XoXC.,.=.O.G G J @.1.1.2.I.I.T.5X4X_ * q ; q 3 q # q ; # ; # q # q # # ",
"2 1 # # # # 1 3 1 # 7 # q 3 k _ K.J.6.u.I.T.T.|.|. X X<XC.e.-.=.G S S S J @.2.P.I.I.T.T.OX5X3Xd * q # q # q ; ; ; 7 3 3 q # # # ",
"# 1 # # # # 1 1 # # # - 1 3 p H.} <.1.q.I.I.T.T.Y.{.}.M.n.:.A D D D D A J J 1.P.I.Y.T.T. XOX4X].p & q q q 1 ; q q q 3 3 # # # # ",
"# # # # # # # # # # # @ # 6 v H.~ <.<.1.4.u.p.I.s.Y.N.M.oXC.:.A D A D C J u.I.U.I.Y.T.T.|. X5X4X/ * 3 & # , 7 ; 3 q q , ; # # # ",
"# 1 # # # # # # # # @ # 1 6 G.^ ~ ~ #.%.1.4.u.w.p.p.s.d.M.M.r.q.9.,.w.s.s.s.s.d.Y.s.{.{.}. XOX5X!.% & & # # # # ; # 3 # q 7 q q ",
"1 , ; ; # # 3 # - # # # # 3 G.^ T +.@.#.%.3.9.9.9.w.p.r.r.f.f.f.s.s.s.a.s.s.N.N.{.{.}.oXoXXX$X$X'.p * & # # # # # ; & q q q q q ",
"# ; q # & & 1 1 # # # # 7 3 G.! Y T U @.&.1.3.3.9.0.0.r.y.t.t.f.t.a.a.a.d.N.N.N. XoXXX$X@XXXXX$X0Xd 3 # ; , 7 , ; 7 q q q q 3 q ",
"1 # 7 # & & # # # # # & # 4 G.! ~ #.#.@.o.&.$.*.>.0.0.0.y.t.a.t.s.a.a.N.N.}.}.oX,X7X8X8X#X@XXX$X0Xd * q q , 3 q ; 7 q q q q & 3 ",
"# # # @ # @ # # 1 & q ; , 4 ` Q K I I U X.o.&.$.>.>.>.0.y.y.r.t.a.N.N.N.}. XXXXX$X7X9XaX9X$XM.7.0Xd 4 q , , & # q ; # 7 q 7 q q ",
"# # # - # & # # # # q 7 # * L + P K I I U X.O.&.%.>.>.,.,.y.r.t.a.N.N.N.oXoX@X#X#X7X7X7X8X$X5.R '.i 4 q ; & # q q q q , # q q q ",
"1 # # # & q q 7 3 1 # # q & p Q E W K K I U X.o.%.$.*.9.>.>.,.y.t.a.a.}.oXXX@X#X,X7X,X@X$X$XuX{ | p , , q q q q q e 7 q q & q 3 ",
"1 # - # # # q 7 1 & q & & & * h j.{ E K I U U o.&.%.$.*.>.>.>.,.>.e.e.m.M.}.@X#X,X#X<XoX%X1XcX^.> w , ; q q ; 7 q 7 q , 7 ; & q ",
"# # # # # 3 q q # # q q & , , s ] { ) E Y Y U X.X.&.$.$.-.-.;.n.n.n.:.W R e.d. X X|..Xm.1XcXvXl.< q q 7 q q q q ; q 3 q q q q & ",
"# # # # # # # , 1 # # & ; , q = h ] | { Y Y T X.X.&.#.%.-.C.Z.Z.Z.Z.Z.n.F W p.d.d.m.<XaXsXcXiX: ; ; q q q q q q ; # 3 3 q q q q ",
"& # # # # 7 # 3 , # ; q q & ; , u ' z.{ ( Y T U +.#.%.$.C.>X>XeXrXrXeXZ.W F 0.r.m.uXdXdXsXsXg.: , q q q q q q q # q & q q q q 3 ",
"# 3 # # # # q 3 1 # q 1 # q , , w w ] z.| Y Y Y T T #.-.V.>XeXrXrXrXrXrXb.F 5.m.2XdXdXsXsXj.. q , , e , e q q r q 3 q q q 3 # # ",
"1 , q , q ; q q q , & 1 q q q 3 q < s ' z.z... .8.8.W W Z.:XeXtXrXrXrXrX&Xh.n.>XpXdXdXiXl.> , q q w q r e w q q q q q e q e q , ",
", q q q q q , q q 3 & , q q q 3 r q < < / z.!.!.c.`.`.b.-X&X&X&XeXrXrXyXrXuXpXpXpXiX=Xh > 0 q , q w q q q q q , q q q q w q q q ",
"q q e q ; q q q q 3 3 3 q q q q q q w q s s [ z.Q.Q.Q.`.-Xb.&X&XeXeXtXtXyXyXyXyX*Xl.> , q 0 < q q q q q q q q q q q q q q r e q ",
"7 q q q q q q r q 3 q q q q e q q q e q q < 4 < h [ k.Q.^.^.^.-X*X-X=X=X=Xx.k.u > > q q q r ; , e q q r e r e q q q e q r r q r ",
"7 7 q e q q e q q q q q q e q q q q 0 r 0 < w q 4 w * > g g g h h g g > > < < w w q r r q w e q q r q r r q r q q q q q q e q q ",
"; , q q q q q e q q e q w q q r q q r r r r q , q w q r 0 < , q q r , q q w e w e q q q r q q e q r q q e q q r q q q e r r q r ",
"; # q , q q q r q r q r q 7 e 0 q q , r r r q r e w r q r q q r q r r , w q q r r r q q r w r e r q q q q q q q r e r q r r r q ",
"# 7 & q q , q q q q e r q < r r 7 e < r q e e r q q e e q r q q q , < r q r r q w q q q r r r r r r q e q r r r r q q q e r q q "
};
