/* XPM */
static char *d6666b8d12ee405ca189d2f36140f1c9ft7tG6FdDSulLVTb[] = {
/* columns rows colors chars-per-pixel */
"64 64 245 2 ",
"   c #5D345C",
".  c #5A3B5D",
"X  c #5E2E5C",
"o  c #612D5E",
"O  c #64375D",
"+  c #5F196F",
"@  c #661976",
"#  c #761D77",
"$  c #61176E",
"%  c #632C64",
"&  c #672D68",
"*  c #792E6D",
"=  c #643564",
"-  c #6A3564",
";  c #663865",
":  c #672678",
">  c #793879",
",  c #772D72",
"<  c #5E2B66",
"1  c #4E4E4D",
"2  c #4A4C47",
"3  c #504E4E",
"4  c #4E514E",
"5  c #51514F",
"6  c #4E4E51",
"7  c #524C54",
"8  c #5B445D",
"9  c #564C59",
"0  c #5A4A5C",
"q  c #554657",
"w  c #4F5151",
"e  c #535353",
"r  c #565559",
"t  c #59555C",
"y  c #5A595C",
"u  c #575857",
"i  c #61475D",
"p  c #5C4461",
"a  c #5C4862",
"s  c #5E5A61",
"d  c #654664",
"f  c #635B69",
"g  c #715271",
"h  c #65626B",
"j  c #6C6473",
"k  c #71687A",
"l  c #76737E",
"z  c #87267A",
"x  c #86397B",
"c  c #943B7F",
"v  c #811F76",
"b  c #864777",
"n  c #761A83",
"m  c #6F1D84",
"M  c #713084",
"N  c #764A89",
"B  c #7D5292",
"V  c #7E558D",
"C  c #7B6787",
"Z  c #7D7685",
"A  c #892687",
"S  c #922A86",
"D  c #8C2A95",
"F  c #992997",
"G  c #983395",
"H  c #923490",
"J  c #A52A98",
"K  c #A6369A",
"L  c #BA369E",
"P  c #B22C99",
"I  c #A63BA4",
"U  c #BB36A1",
"Y  c #BC3BA3",
"T  c #B538A2",
"R  c #94299A",
"E  c #DC3C9C",
"W  c #DB3D99",
"Q  c #E03D9A",
"!  c #C13BA4",
"~  c #CC3BA4",
"^  c #C538A4",
"/  c #D23EA6",
"(  c #8F538F",
")  c #A74B8D",
"_  c #AB4A95",
"`  c #AB5191",
"'  c #876698",
"]  c #897B97",
"[  c #82758D",
"{  c #B2629D",
"}  c #B744A9",
"|  c #B654A9",
" . c #B44FAD",
".. c #9476A4",
"X. c #8E6EA0",
"o. c #B865A4",
"O. c #B962B4",
"+. c #B478AC",
"@. c #DA459B",
"#. c #DE569E",
"$. c #E3449B",
"%. c #E74A9C",
"&. c #EC549D",
"*. c #ED5B9D",
"=. c #E6549D",
"-. c #F4559E",
";. c #F45A9E",
":. c #FA5B9E",
">. c #F8579D",
",. c #F24F9E",
"<. c #F9669E",
"1. c #F8749F",
"2. c #E9659B",
"3. c #CD42A5",
"4. c #C543AB",
"5. c #CD44AC",
"6. c #C747A8",
"7. c #D244A6",
"8. c #DC44A5",
"9. c #DC4BA6",
"0. c #D443AA",
"q. c #DB46AA",
"w. c #D44BAB",
"e. c #DB4BAA",
"r. c #D54AA6",
"t. c #CB57AB",
"y. c #D553AE",
"u. c #DB53AB",
"i. c #DA57AA",
"p. c #C74AB4",
"a. c #C957B4",
"s. c #D65BB4",
"d. c #D948B1",
"f. c #E14AA9",
"g. c #E54BA4",
"h. c #ED53A2",
"j. c #E658A7",
"k. c #F455A1",
"l. c #F45AA2",
"z. c #FA5BA0",
"x. c #F25AAA",
"c. c #E959B0",
"v. c #CA67B8",
"b. c #DC64B3",
"n. c #D767B7",
"m. c #D874BA",
"M. c #C667AC",
"N. c #E865AB",
"B. c #F363A4",
"V. c #FB64A2",
"C. c #F76AA6",
"Z. c #EC7AAA",
"A. c #FB7DA3",
"S. c #F676A8",
"D. c #E364B3",
"F. c #E26BB4",
"G. c #EC63BC",
"H. c #E869B7",
"J. c #F46AB5",
"K. c #E675BB",
"L. c #EA75BB",
"P. c #E47BBE",
"I. c #EB77B7",
"U. c #F376B4",
"Y. c #FA74B4",
"T. c #F379B3",
"R. c #F97BB4",
"E. c #F475BC",
"W. c #F57CBB",
"Q. c #FB7BBA",
"!. c #DC69C3",
"~. c #DA79C5",
"^. c #CC78C5",
"/. c #E66AC3",
"(. c #E473C2",
"). c #EA73C3",
"_. c #E77CC4",
"`. c #F375C1",
"'. c #F47CC3",
"]. c #EF73CE",
"[. c #CF58C0",
"{. c #8C819B",
"}. c #9683A5",
"|. c #A187AE",
" X c #FA829F",
".X c #EC86AB",
"XX c #FB83A3",
"oX c #FA8CAB",
"OX c #F987A9",
"+X c #FA94AC",
"@X c #E985B7",
"#X c #FD8DB4",
"$X c #F482BC",
"%X c #F887B6",
"&X c #EA94B9",
"*X c #FD93B4",
"=X c #FC9BB5",
"-X c #F798B7",
";X c #FAA3BA",
":X c #FAA7BA",
">X c #FBB7BB",
",X c #D980B8",
"<X c #DD86C7",
"1X c #DA89CD",
"2X c #E282C2",
"3X c #ED83C3",
"4X c #E689C8",
"5X c #F484C2",
"6X c #F28CC5",
"7X c #F48BCA",
"8X c #E997C8",
"9X c #F494CB",
"0X c #F49BCC",
"qX c #F598C8",
"wX c #E489D3",
"eX c #F689D6",
"rX c #E898D6",
"tX c #FA95D7",
"yX c #E8A5CB",
"uX c #F8A9C7",
"iX c #FBB6C8",
"pX c #EBA6D9",
"aX c #F7AAD8",
"sX c #F9B8D8",
"dX c #EEB1DB",
"fX c #F59CE6",
"gX c #F8A6E7",
"hX c #FFBBE5",
"jX c #F6B8E5",
"kX c #EDB3E3",
"lX c #DBA0CE",
"zX c #FDC3CA",
"xX c #FAC6D7",
"cX c #F6D0DD",
"vX c #FBC6E8",
"bX c #FCD7E9",
"nX c #FEC9F4",
"mX c #FEDBF4",
"MX c #FED5F6",
"NX c #FFE3F4",
"BX c #FFECFC",
"VX c #FFE8F8",
"CX c #FFF4FC",
"ZX c #FFF9FC",
"AX c #FEE3ED",
/* pixels */
"1 1 1 6 6 6 6 1 6 6 3 1 7 7 7 9 q 7 q q q q 8 8 p d d d d d d d d g i d i i i i i i i a 0 q u e 9 u 7 e 6 w w e 3 3 1 w 1 5 1 3 ",
"4 1 4 1 6 1 1 1 6 6 3 7 0 0 d d d ; . O   O   = ; ; - - - - - - - - - - - O O O O i i O i i i i i i 0 9 7 7 1 6 3 1 4 4 4 1 1 w ",
"1 1 1 1 1 1 1 2 3 3 q 8 X = * , x x x x c H ) ) ) _ _ _ _ _ _ _ ` ` ` ` ` ` c ` ` ( ` ( b b b g - - = . 8 7 3 3 4 4 1 1 3 1 1 4 ",
"1 1 1 6 1 1 1 1 7 q 8 X ( o.v.v.n.!.n./.K./.F././.(.).).`.).).).J.G.`.G.I.`.5X*X8X8XpXpXyXyXdXyXyXlX+.g O i q 3 1 1 1 1 1 1 1 1 ",
"3 1 1 1 1 1 2 6 q . X ( M._.2X_.(.).).`.E.`.`.`.].`.`.`.`.`.`.`.`.E.E.T.W.$X5X9XuXaXdXvXdXzXiXxXxXdX1X{ b O 8 3 1 2 2 4 1 1 3 1 ",
"1 3 1 1 4 1 1 q d o x v.(._.7X7X5X_.`.`.`.E.E.'.'.'.W.'.5X5X5X5X5X$X$X$X$X%X9XuXdXdXvXbXcXxXcXxXxXuX8X,X{ b X 8 q 1 4 1 1 6 1 3 ",
"6 1 1 1 1 6 q 8 ; x O.@X$X5X7XeXtX5X'.5X'.5X5X7X6X9X9X7X9X9X0XtX0X0XqXqX0XyXuXsXxXcXAXCXcXcXcXcXxXyX6X@X@Xo.g   0 7 7 6 e 1 7 4 ",
"6 6 1 7 6 q 8 = H M.@X3X3X5X6X0XtX0X9X9X9XtXaXtXaXaXsXhXsXhXhXhXhXvXvXsXvXxXvXbXbXAXCXZXZXAXbXbXhXyX9X6X3X2Xt.b ; 8 9 6 1 4 1 1 ",
"1 1 5 7 9 p - x o.4X3X5X3X6X6X9XaXgXaXjXhXhXvXvXvXnXnXMXMXMXmXmXmXNXNXNXNXNXNXVXBXCXZXZXZXCXAXbXvXyX8X9X6X7X3Xo.g o 0 7 7 1 2 2 ",
"1 1 3 q 8 ; b O._.@X3X5X6X6X$X9X0XaXhXhXhXhXvXvXnXvXbXbXbXbXmXbXmXNXNXmXNXmXNXBXBXCXZXZXZXZXVXmXjXaXyX6X6X6X6X2Xo.x O 8 9 w 2 4 ",
"1 1 3 q = > o._.5X'.$X$X5X$X%X%X%X-XqXuXuXuXuXuXuXiXiXiXsXiXiXxXxXxXxXxXxXcXcXbXAXCXZXZXZXVXAXbXvXdX8X&X6X@X$X3X@X{ > . q 6 6 1 ",
"2 1 q . & ( !.).W.W.'.$X%X%XQ.%XT.A.OXoX*X&X-X-X-X-X;X-X;X:X;X:X;X:X:XuX>XuXiXxXxXbXVXBXNXcXcXvXvXsXyX8X@X@X@X@X4XwX( o q 6 6 1 ",
"2 2 8 . , H y.D.`.Q.'.$XQ.R.A.C.C.1.1.XXXXoXoX+XOXoXoXoXoXoXoXoXoXoXoX+X+X-X-XuXiXzXbXAXcXzXzXsXxXvXaX8X2X@X@X8X0XyX{ - q w 6 w ",
"1 6 0   , K r.9.c.Y.'.W.Q.R.C.C.1.1.1.1.XXoX X X X X X XXXXX X XXXOXOXOXOX+X+X-X:XiXsXcXzXiXiXiXsXxXhXaX8X@XyXaXuXyX{ ; . 7 6 4 ",
"1 6 q = z K w.@.9.i.J.Y.Y.C.C.<.<.C.V.1.A.A.XXXXXX X X XXXXXXXXXXXXXXXXXOXOXOX-X&X:XiXsXiXiX>XiXuXiXsXhXjXjXsXyX&X&X{ * 8 q 6 6 ",
"1 6 0 = # L r.9.9.9.j.N.B.<.C.<.V.<.C.1.C.A.oXXXXX XXXXXA.XXXX1.XXXXA.XXXXOXOX+X-X:XuXuX>XuX;X;X:XuXiXsXhXjX-X&X.X&Xo.* . 0 7 w ",
"6 6 0 X # T w.f.f.f.f.G.l.l.V.V.V.V.V.<.C.1.1.XXXXXX X XXX XA.A.A.A.A.A.A.OXoX*X=X=X;X:X;X;X;X;X;X;X:XdXsXuX.X.X.X&Xo.* . q 7 5 ",
"6 7 8 X z Y q.q.f.f.c.x.x.z.z.V.<.V.<.<.<.<.1.XXOXXXXX X X XA.A.A.A.A.XXOXoX*X*X=X=X=X=X=X=X=X;X;X;X:XuXaXyX.X.X.X.Xt.* O 3 7 5 ",
"1 7 q o z Y d.q.f.f.c.J.x.l.:.<.:.V.<.<.<.<.<.A.A.XXXX X X X XXXA.OXOXoX#X*X*X*X*X=X=X*X=X=X=X=X-X;X;XyXaXqXZ.Z.Z.Z.t.* O q 3 5 ",
"6 6 8 o z Y d.f.f.8.G.J.j.l.:.:.:.z.:.:.:.<.<.<.A.OX+XoXXX X XXXXXOX#X#X*X*X*X*X*X*X=X*X*X*X*X=X=X=X;XuXiX8XZ.S.Z.Z.M.* O q 3 1 ",
"3 7 i o z 4.q.e.f.9.G.G.h.-.>.>.:.:.:.z.:.:.z.<.1.A.oX+X+X+X+X+X#X*X*X*X*X#X*X*X*X*X*X#X*X*X*X*X=X=X-XqXuX9XZ.N.N.F.t.* O q 7 1 ",
"1 7 8 % A ! d.q.8.f.G.G.=.-.>.>.:.>.z.>.:.>.:.:.2.1.oX=X+X+X+X+X=X*X=X*X&XoX#X#X#X*X%X*X*X*X*X*X*XoXoX%XqX9XZ.N.=.N.t.z O 9 7 1 ",
"1 7 p % A 4.d.f.f.f./.J.g.&.>.>.-.:.z.z.z.>.z.;.*.2. X=X>X>X:X:X;X=X=X*X*X*X#X#X#X#X#X#X%X*X#X#X#XOX%X@XqX0XN.j.#.u.t.z = 8 q 4 ",
"4 q 8 = z ~ d.d.f.f.G.G.=.%.-.-.-.k.k.k.z.>.-.*.2.2..X+X>X>X>X>X:X:X=X=X-X*X#X#X%X%X%X#X%X#X%X%XS.S.Z.Z.6XtXD.u.@.r.t.z = 0 7 w ",
"4 6 . % A 4.q.q.f.f.G.G.g.=.-.-.-.;.k.k.k.;.&.B.B.S.Z.-X:X>X>X>X>X:X:X=X=X*X*X#XOXT.OXOX%X%X%XS.N.S.S.Z.6XtXD.9.8.w.6.z - 8 7 6 ",
"1 7 8 % S ~ d.e.f.f././.g.%.,.-.z.k.k.l.;.*.*.C.Y.R.T..X;XiXzX>X>X>X:X:X;XqX%X%XT.T.T.R.R.R.S.B.1.C.B.Z.6X9Xb.r.0.q.r.z - 0 7 e ",
"1 7 8 % S 5.q.q.f.q.G.G.%.$.,.>.-.k.l.-.l.B.Y.Y.R.R.T.Z..X:XzXzX>X>XiXuX-X%XQ.U.T.Y.Y.R.Y.C.V.<.V.V.<.N.3XtXs.r.q.0.6.z - 8 7 1 ",
"1 7 . & D ^ q.f.q.q.G.`.$.Q %.,.k.-.*.l.C.C.Y.R.S.T.T.T..X&XiXxXzX>X>X=X%X%XT.R.Q.Y.Y.Y.B.&.<.B.<.B.*.N.3X9Xi.r.8.0.5.z - 8 7 1 ",
"2 q . < S 4.q.q.e.e.G.G.f.E $.,.k.&.B.C.Y.Y.Y.U.T.U.S.U.Z..X;XiXzXiX;X.X.XT.T.U.Y.Y.J.l.*.&.-.l.z.l.*.N.$XtXi.r.8.0.4.z - p 7 w ",
"2 6 . & S 4.0.f.q.e.G.`.f.E @.%.h.B.J.Y.U.U.R.U.T.T.T.U.T.@X.XuXuX-X.XZ.T.T.Y.Y.Y.Y.x.-.&.k.k.k.k.*.=.N.P.tXi.7.8.0.4.z - p 7 w ",
"6 7 . & A 4.d.q.q.e.G.].9.@.@.=.J.J.Y.U.U.U.W.U.T.S.W.U.T.T..X.X&X.XZ.R.T.T.W.Y.Y.x.=.&.k.&.&.,.&.=.=.i._.eXy.r.0.0.4.A - p 7 7 ",
"6 q . < S Y 0.0.8.e././.9.@.@.j.J.J.Y.T.U.U.U.U.T.T.U.U.U.W.W.$X%X@XT.T.T.U.U.J.B.&.&.h.h.,.,.%.$.%.=.=.`.eXy.7.0.5.! z & p 7 w ",
"w q 8 % S 4./ q.e.w.G.].u.r.j.c.H.U.U.I.I.T.U.U.U.U.T.T.W.W.5X$XW.@XW.T.U.Y.U.B.h.&.h.,.h.h.g.Q $.%.%.j.).eXy.3.7.r.Y A & d 7 1 ",
"e 7 . & z ! 0./ q.q./.].i.i.D.N.N.N.H.U.U.U.I.U.I.I.W.Q.$X5XW.$X$XW.%XT.R.C.B.j.h.h.h.h.g.$.Q Q Q $.$.9.(.eXy.r.0.0.^ z & p q 6 ",
"4 q 8 % A ! 0.f.q.r.H.].F.D.H.D.J.N.H.U.U.U.U.I.U.T.W.$XW.$X$X$X$XT.$XW.R.U.B.=.h.h.k.g.$.Q Q Q Q @.$.i.).eXt.3./ 5.Y v - a 7 e ",
"1 6 . % A 4.0./ q.r./.eXK.F.D.G.D.D.N.F.J.I.U.U.T.$X$X$X$X$X$X$X$X%X$XW.U.B.j.j.k.g.g.Q Q Q Q Q Q Q $.i.(.7Xy.r.7./ U z & p e 4 ",
"1 7 . < A ! 0.0.q.e.(.eXL.F.D.D.D.D.D.N.N.I.I.$X5X$X$X5X$X$X$X$X$XW.$XT.N.N.x.x.h.g.E E E E Q Q Q Q $.9.K.eX6.3.5./ U v = a e w ",
"w 6 p % A Y 0./ 7.w./.tXP.b.D.D.N.D.N.b.N.F.I.$X5X5X5X$X6X$X5X$X$X$XW.N.N.x.x.c.g.g.Q / E E E Q Q Q @.9.L.wXr.3.~ ~ U # = a 7 7 ",
"1 q p o A T / / r.i.(.tXL.D.b.b.b.N.b.F.F.K.K.I.$X$X5X5X5X5X5X5X5XW.H.N.N.j.j.f.g.8.g./ E E E E E E E 9./._.5.7./ ~ T # = a 7 e ",
"4 6 p o z T ~ 5.0.s.(.eX_.F.b.N.b.D.F.F.K.K.K.K.P.I.L.W.3X5XW.'.'.H.N.j.j.g.9.f.f.8.Q f.Q / E Q E E W 8.H.].5./ ~ ^ T # = a q 1 ",
"5 7 p o z } 3.3.r.b.m.fX_.F.D.b.D.F.K.K.P.P.K.K.K.L.I.I.K.K.).L.H.i.i.9.g.g.u.9.9.8.9.8.f./ Q / E E W 9.G./.~ E ~ ^ J # ; a 9 w ",
"e 7 a < A | t.6.s.K._.tX3Xn.b.m.F.K.P.P.P.K.K.K.L.m.P.K.K.K.L.D.j.9.#.9.u.f.9.9.9.9.9.9.9.q.8.8./ E W q.s.G.^ / ~ ^ K # ; a 6 6 ",
"1 7 8 X > a.b.b.m.m.~.gX4Xm.m.K.K.I.@X2XP.K.K.K.K.K.P.K.K.).H.j.9.u.9.9.f.e.9.9.9.9.9.q.9.q.q.q./ E E q.G.d.^ ~ ^ ^ J # = 0 7 6 ",
"6 6 8 X x a.(.(._._.2XgXrX<Xm.I.P.P._.m.P.P.P.P.K.P.K.K.L.H.b.e.i.i.9.9.e.9.e.9.e.e.w.e.q.9.q.q.f.8.8.d.s.d.~ ~ ^ ^ J # = 8 6 6 ",
"6 6 q < > | _._._.<X<XfXgXwX2X2X@X2XP.@X@XP.@XP.@X_.P.K.K.D.u.u.u.g.e.u.e.e.d.e.e.e.e.r.e.9.e.8.q.f.8.q.0.~ ^ ^ ^ U F $ = 9 9 w ",
"6 w a . > O.1X2X2XwX~.~.gXfXrX~.2X2Xm.,X_.~.2X2X2X2X_.P.F.y.i.i.i.9.u.e.u.u.u.u.e.e.e.e.e.e.e.q.q.q.r.~ ^ ^ ^ ^ ^ ^ S # p a e w ",
"6 7 a . M O.wX4X_.v. . .~.gXrX4X<X2X2X2X<X<X4X8X8XwX4Xm.n.s.i.y.i.u.u.u.e.d.u.d.e.e.e.9.9.9.9.8.r.5.~ L P P P T P T F # ; t e w ",
"6 7 9 p > O.wX_.O._ G G  .~.gXrX<X<X1X4X4XrXpXpXdXaXrX,Xm.b.i.s.i.y.u.i.u.u.d.u.e.w.e.e.r.r.r.w.w.3.L P J J J J P P D @ p 0 7 w ",
"1 2 q . >  .^. .G S G K _ | 1XkXfXlXrXpXpXdXkXvXnXjXpX8X2Xm.b.b.i.s.s.i.y.e.y.d.y.y.w.0.w.w.w.t.6.L J J J J F J J F A : a a r e ",
"6 1 q . : M G G K K I }  . .^.rXjXkXkXkXvXvXMXBXVXmXvXkXrX4X_.m.K.D.b.s.s.s.y.y.d.d.u.d.t.y.y.p.L J J G J F R F F R m : a a w w ",
"6 6 9 a < @ D R K I }  .O.O.O.1XkXnXMXMXmXVXBXBXCXCXmXvXkXfXrXwX_.~.!.n.n.s.s.a.s.s.[.G././.].[.J J J F J F R F F n @ : d 9 w w ",
"6 6 q f N : m D I I }  .O.O.^.1XpXnXnXMXMXBXBXCXCXCXBXmXnXhXgXfXfXeXeXwX].].].)./.!.!.!.!.!.].a.K J F F F F R R R n m M f e 4 e ",
"6 w 6 f V V M m B  .I I  . .O.^.pXpXrXpXkXnXmXBXCXVXMXkXpXrXwX(.!.!.!.[.a.a.p.6.p.4.p.! Y Y a.[.L F F F F F R D @ m ( C s e w w ",
"6 6 1 u j ' N M m D I I I I  .^.<Xm.m.~.1XlXkXnXMXvXdX1X~.^.a.t.p.p.6.} 6.L ! Y U U U U L L T p.} J F F J F D m m ' C j a e e e ",
"6 6 6 7 s k ' B m m D I I G  .^.M.t.t.b.v.~.1XrXkXrX1Xm.a.t.} } 6.L Y L L L U U U U U U L ^ U ! p.T J I R D m : V [ j t e e w 4 ",
"6 6 7 1 7 t j V N m m D }  .s.[.t.t.t.t.M.v.m.~.~.~.[.v.t.6.6.! ! 6.L 3.^ Y ^ ^ ^ ^ U ^ U ^ Y ! 4.} I I R n m N ' f r e 1 e 4 1 ",
"4 w e 5 3 e a j C N m m M  .^.s.s.n.s.s.s.n.n.~.~.!.n.s.y.d.y.p.5.5.5.d.5.5.5.5.4.5.p.p./ p.4.} } p.} D m : N C h r 9 e e e e 4 ",
"w w e e e 4 w t C X.N m M I  . .|  . .a.a.a.a.v.[.[.a.a.a.y.p.a.p.a.p.p.p.p.p.4.p.Y Y } } T } I I I D m : N ' f r e e e e r e w ",
"w 4 5 5 5 5 e r y C X.N : : @ @ # # n n A A D H H H D F F G G D G G F F D D D D D D A A n n n n m @ @ : N [ j 9 7 w e e e e e e ",
"4 e 5 e 5 e e e w t C Z V N M M M > : M + : + + @ + $ $ + + + @ $ $ $ $ $ + @ @ @ @ @ @ m M m M M M N V C j t e e e 6 e u u e e ",
"5 5 e e 5 e e u e r u k {.}.|.}.|.}.......] ..' X.' ' ' C ' ' B ( ' ' ' ' ' ' ' ' ] X.....}.}.}.|...] C f y e e 5 e 5 u u e e e ",
"3 5 5 e w e e e e e e r h k Z [ Z Z Z {.Z ] {.{.] {.] }.}.}.}.}.}.}.}.}.}.}.{.}.{.{.] ] [ [ Z l Z k h y u u e e e e e e u u e e ",
"1 5 4 5 7 e e e e 5 u r r y y y s s s s h h h h h h h h j h j j h j j j j h h h h f f f h f s y t y e e 5 5 e u e e e e e u u e ",
"2 4 4 4 e 7 r e 5 e e e e e e e e e r r r s r r w r r s u u u r r r y y y y y y u e e e u u u e u u u e e u u u e u e e u u e e "
};
