/* XPM */
static char *_892967a590b4b25c5638d87e0a125f6IHQp3TIWrdmwEbiL[] = {
/* columns rows colors chars-per-pixel */
"64 64 214 2 ",
"   c #0C0908",
".  c #100E0F",
"X  c #1C0A00",
"o  c #151414",
"O  c #1C1B1B",
"+  c #1A1615",
"@  c #1B1107",
"#  c #240D01",
"$  c #2B0F00",
"%  c #240600",
"&  c #340D00",
"*  c #390E00",
"=  c #251303",
"-  c #2C1504",
";  c #291A0C",
":  c #331603",
">  c #3B1400",
",  c #331C0C",
"<  c #3A1C07",
"1  c #311F13",
"2  c #231F1E",
"3  c #3C210A",
"4  c #25211E",
"5  c #2E251C",
"6  c #342215",
"7  c #3C2413",
"8  c #33261C",
"9  c #3B2719",
"0  c #3B291C",
"q  c #211F20",
"w  c #1F2022",
"e  c #242323",
"r  c #292728",
"t  c #2C2C2C",
"y  c #2A2626",
"u  c #372B24",
"i  c #322E2C",
"p  c #3A2B23",
"a  c #39312D",
"s  c #343434",
"d  c #393738",
"f  c #3C3C3C",
"g  c #393637",
"h  c #401400",
"j  c #4B1E00",
"k  c #521F00",
"l  c #43230B",
"z  c #4A260B",
"x  c #572705",
"c  c #422613",
"v  c #432B1B",
"b  c #492A14",
"n  c #5E2A15",
"m  c #5B2D18",
"M  c #4D311B",
"N  c #52331D",
"B  c #583417",
"V  c #622E0C",
"C  c #652C03",
"Z  c #622C14",
"A  c #633D1E",
"S  c #67381A",
"D  c #7A3E1B",
"F  c #74380B",
"G  c #412F23",
"H  c #443122",
"J  c #45392E",
"K  c #4A3729",
"L  c #573A26",
"P  c #423A32",
"I  c #433E3E",
"U  c #4B3D34",
"Y  c #6C3C24",
"T  c #653A24",
"R  c #7B3F23",
"E  c #784218",
"W  c #5E412A",
"Q  c #4D443A",
"!  c #494139",
"~  c #5D4334",
"^  c #52433B",
"/  c #53483E",
"(  c #58483A",
")  c #654229",
"_  c #6B462A",
"`  c #6D492B",
"'  c #664125",
"]  c #7B4623",
"[  c #764929",
"{  c #624736",
"}  c #724E34",
"|  c #755136",
" . c #7D5434",
".. c #79553B",
"X. c #7C552E",
"o. c #413F40",
"O. c #444344",
"+. c #484645",
"@. c #4E4944",
"#. c #494748",
"$. c #4E4D4D",
"%. c #474749",
"&. c #514641",
"*. c #554C45",
"=. c #594B43",
"-. c #514E4C",
";. c #594F4C",
":. c #4E504D",
">. c #53514D",
",. c #59514E",
"<. c #5A5047",
"1. c #4E4E51",
"2. c #524F51",
"3. c #4F5150",
"4. c #545253",
"5. c #585353",
"6. c #5B5B5B",
"7. c #595758",
"8. c #66574C",
"9. c #615F60",
"0. c #5F6062",
"q. c #636363",
"w. c #6C6B6B",
"e. c #686668",
"r. c #736F70",
"t. c #737373",
"y. c #7C7B7C",
"u. c #894A17",
"i. c #86542D",
"p. c #8B532B",
"a. c #975826",
"s. c #835634",
"d. c #83593A",
"f. c #895B39",
"g. c #915C38",
"h. c #864A28",
"j. c #8D613E",
"k. c #9C6235",
"l. c #93633E",
"z. c #9B663E",
"x. c #AE6C36",
"c. c #A66B3E",
"v. c #AD6D3C",
"b. c #A16339",
"n. c #B46D36",
"m. c #B36D39",
"M. c #B86D37",
"N. c #AE703E",
"B. c #B1703B",
"V. c #865E43",
"C. c #8C6243",
"Z. c #88654A",
"A. c #956543",
"S. c #996443",
"D. c #956946",
"F. c #9C6A44",
"G. c #976A49",
"H. c #9D6C4A",
"J. c #9E714A",
"K. c #986D54",
"L. c #997358",
"P. c #A46D43",
"I. c #AC6F43",
"U. c #AA6F48",
"Y. c #B06D40",
"T. c #A67046",
"R. c #AB7144",
"E. c #A5724A",
"W. c #A8724A",
"Q. c #B17141",
"!. c #A37350",
"~. c #8F7B72",
"^. c #948279",
"/. c #84807D",
"(. c #7F7F81",
"). c #838383",
"_. c #8C8B8C",
"`. c #958C86",
"'. c #949393",
"]. c #9C9B9B",
"[. c #9A9997",
"{. c #9E9EA0",
"}. c #A19FA2",
"|. c #A3A3A3",
" X c #ABABAB",
".X c #ADA9A6",
"XX c #B4B4B4",
"oX c #BCBCBC",
"OX c #B9B7B9",
"+X c #B3AEA8",
"@X c #CAC3BD",
"#X c #C4C3C3",
"$X c #C9C7C8",
"%X c #CBCBCB",
"&X c #C8C7C7",
"*X c #D0CECF",
"=X c #D4D4D4",
"-X c #DCDCDC",
";X c #D3D2CD",
":X c #E0DEDF",
">X c #E7DDD5",
",X c #E2D5CF",
"<X c #E6E0DC",
"1X c #E5E4E4",
"2X c #ECE9E5",
"3X c #EBEBEC",
"4X c #E8E7E4",
"5X c #F1EEEE",
"6X c #F1EFF2",
"7X c #F4F4F4",
"8X c #F9F9F7",
"9X c #FEFEFE",
"0X c #F7F8F8",
"qX c #FBF4EE",
/* pixels */
"1.:.-.$.-.$.>.$.3.1.1.1.-.*.*.J H 9 ^ =.<.( N M v L ~ K M < > * > > > h h h h > > * * * * & - , v J &.;.<.*.:.>.@.:.$.-.$.:.-.-.",
"4.1.:.-.>.$.$.:.:.3.-.$.*.=.G , ) 3 v K K N _ C.B b ' _ ` [  .s.f.A.A.S.H.S.S.G.A.D.S.C.V.s.} ) N j : , 0 ! &.>.@.@.$.:.-.*.-.-.",
"1.1.$.$.$.$.:.:.:.*.*.^ H b B [ i.g.l.j.j.l.z.i.] A.E.T.U.T.I.I.I.T.Q.I.I.I.T.R.I.I.U.I.I.I.U.U.E.J.l.X.A 3 - 6 ! / *.Q J 6 5 J ",
"1.$.1.-.$.$.$.:.*.*.K M | G.W.Q.N.N.N.R.R.R.N.c.R.R.c.m.v.m.v.m.m.m.m.m.v.m.m.m.m.m.m.m.m.m.x.m.N.N.N.R.T.J.j.' 3 - 6 9 K 8.^   ",
"$.:.$.@.>.$.-.-.=.v _ G.W.I.v.v.m.m.x.x.m.m.m.m.B.v.n.n.m.m.m.m.n.n.m.n.n.n.B.m.M.m.m.m.n.n.n.n.x.x.n.B.B.N.R.R.P.[ : < Z.~.W @ ",
"$.$.:.:.*.*.*.=.v L J.T.I.m.m.m.v.x.n.n.m.m.m.m.m.m.n.M.n.n.n.m.m.m.n.n.n.n.n.n.m.m.m.m.n.n.n.M.n.n.n.n.x.n.n.B.N.T.z.x & H 6 ! ",
">.:.*.&.K K K L b x c.c.v.m.v.F u.m.n.n.n.m.m.m.n.n.M.M.n.n.n.n.n.n.n.n.n.M.n.m.n.n.m.M.M.m.n.n.n.n.n.B.n.n.n.B.m.Q.T.J.B % Q *.",
"*./ H v W | | | s.F.R.R.v.R.v.u.a.m.m.n.m.n.m.n.n.M.M.n.M.n.n.m.M.n.M.M.M.n.n.n.M.m.m.m.n.n.n.n.n.n.n.n.n.n.B.n.m.m.N.c.D.< 0 *.",
"^ , ) G.!.f.x j n z.U.U.U.Y.P.v.v.m.m.m.n.n.m.M.n.M.n.n.n.n.n.n.n.n.n.n.n.m.n.m.m.m.n.m.m.n.M.n.n.n.n.n.n.n.x.n.n.n.x.c.W.` = Q ",
", L !.I.U.U.K.H.H.F.S.S.R Z D c.v.x.m.m.n.m.m.m.n.n.M.n.n.n.M.n.m.n.M.n.M.m.n.n.m.m.m.n.n.M.n.n.n.n.n.n.n.n.x.n.n.n.n.v.R.j.# Q ",
"% Z.W.I.Q.g.S Y T Y T K.R Z C b.x.m.m.m.n.n.m.m.n.n.n.n.n.n.n.B.n.m.n.n.M.n.n.m.n.m.m.m.n.m.M.m.n.n.n.n.B.B.n.n.n.n.n.m.R.j.= g ",
"- Z.U.I.Y.h.V V Z Z Z n Z Z p.v.m.m.m.n.n.n.n.m.M.m.n.n.n.n.n.n.m.m.m.n.m.m.m.m.n.m.n.M.n.m.m.m.n.n.n.n.n.B.x.n.n.n.m.m.R.d.X ! ",
"- W J.T.R.R.b.g.h.D R R h.b.Y.Y.x.m.m.M.M.n.n.m.n.m.n.n.n.n.B.n.m.n.n.n.m.m.n.m.m.M.M.n.n.n.m.m.n.n.n.n.n.n.n.n.m.M.n.c.W.B ; #.",
"^ 6 T A.W.T.R.R.U.U.I.U.U.Y.Y.M.x.m.m.n.n.n.n.n.n.n.n.n.n.n.B.n.m.Y.n.n.n.n.m.n.m.m.n.n.n.n.m.m.B.n.n.M.n.n.n.n.m.m.B.R.C.- a $.",
"*.@.9 3 ) C.E.W.I.I.I.v.v.Y.m.m.m.m.n.m.n.n.m.n.n.B.n.n.B.n.n.n.n.x.n.n.n.n.n.n.n.n.n.m.m.v.b.a.x.n.n.n.n.n.m.m.m.v.N.J.b ; &.$.",
"4.>.*.Q 9 3 M ` f.H.W.U.I.P.I.I.v.v.m.x.n.m.x.x.a.x.B.n.n.n.n.n.x.a.x.n.n.n.x.n.n.n.n.n.v.Y.D E B.n.n.n.n.n.m.v.R.W.J.B = Q >.@.",
"-.-.$.*.-./ J 9 3 c L ` d.l.F.T.T.R.N.N.v.x.N.b.C x.m.n.n.n.n.n.v.F a.v.B.B.n.B.B.n.B.B.m.R.n E B.B.n.M.n.n.x.N.i.C.N , Q -.$.1.",
"$.:.4.:.>.$.-.*.&.^ K v 3 3 l B ' [ i.g.k.c.c.k.C c.v.n.n.n.n.v.Q.E E U.T.R.R.R.R.R.R.Q.R.P.j ] R.B.B.n.n.n.n.c.z - 0 / -.$.1.1.",
">.$.$.$.$.$.$.$.-.-.<.*.*.( Q K H v 7 - x x C x k P.v.m.n.n.n.B.Q.p.x Z.C.d.d... . . .[ ] E * S U.m.n.m.n.n.N.F.3 K / >.@.$.-.$.",
"$.$.$.1.3.4.:.>.$.:.>.$.>.@.-.>.>.>.*., V.G.l.i.k z.I.m.n.B.m.m.v.g.& v < < : : : # > B T ` z z U.Q.B.m.x.N.T.D.- ! @.:.>.$.$.:.",
"1.1.$.$.$.-.:.>.$.:.>.:.$.$.$.$.1.$.*.6 ) !.E.E.x i.N.m.v.m.m.m.R.s.: ( ( <.<.*.*.G c L.L.L...& l.I.N.x.B.R.E...X @.$.$.3.3.$.$.",
"1.3.$.$.$.:.:.$.$.-.:.>.$.$.$.4.#.%.:.J < G.L.G.V S T.m.m.m.m.I.W.' # a i i i t 4 a G ( { { ~ % _ W.T.W.P.J.C.: u $.$.:.$.$.$.-.",
"-.$.2.1.2.$.$.1.$.:.4.1.1.1.1.f t w i f X K { v 7 : V.W.I.v.Y.U.D.: p I ! +.Q f q.;X2X>X>X>X,X^.- T ..K...b - 8 *.$.>.@.$.$.$.-.",
"2.2.-.1.$.$.:.$.1.1.3.$.$.O.t O o.6.t.`.`.`.8./ *., c  .E.!.V.V.7 1 *.,.4.>.@.w.4X9X9X9X9X9X8XqX`.= - , - - 5 a +.$.+.+.:.$.$.1.",
":.:.:.:.$.$.3.$.3.:.$.f d e.[.$X4X8X9X9X9X9X4X.X'.+X^.v L L < # p ;.5.5.,.*.7.-X9X9X8X9X9X9X9X9X@Xo.o.o.o.;.;.o.y 4 2 t e #.1.1.",
":.:.:.$.$.2.$.$.1.O.w 4.*X0X8X2X6X9X9X9X8X9X9X9X9X9X8X~.p G U &.;.2.2.5.>.+.OX9X9X9X9X9X9X9X9X8X~.;.8.5.5.5.5.5.-.4 + @.e f 1.1.",
":.:.:.3.$.$.2.-.f q f #.OX#Xw.6.9.}.5X9X9X9X9X9X9X9X5X7.;.,.;.5.4.2.5.2.#.r.7X9X9X9X9X9X9X9X9X3X7.;.2.4.5.5.5.2.>.>.e + O o.1.1.",
":.$.3.3.2.$.O.g e f s O.(.2.1.O.%.o.t.3X9X9X9X9X9X9X$X+.2.5.5.2.5.5.5.5.+.OX9X9X9X9X9X9X9X9X9X#Xo.5.5.2.5.5.2.5.5.5.-.O O 1.%.%.",
"$.$.-.1.f O.w.w.I $.2.).XXO.4.t f 5.f _.9X9X9X9X9X9X{.+.2.5.5.5.2.5.5.2.2.2X9X9X9X9X9X9X9X9X9X}.o.5.2.5.5.5.4.1.4.4.7.O.. o.1.1.",
"$.4.$.s e.*Xe.e r }.-X8X7Xt.O.4.4.5.%.0.0X9X9X9X9X8Xt.#.4.2.5.2.5.5.5.#.y.8X9X9X8X9X9X9X9X9X9X(.1.7.5.5.2.5.4.7.7.4.4.3.o f 1.%.",
"1.-.%.g -X9X3X=X-X0X9X9X9X4X_.4.#.#.%.|.9X9X9X9X9X5X7.$.4.4.4.7.2.2.2.+.}.9X9X9X9X9X8X9X9X9X6Xe.1.1.5.5.2.5.5.2.2.5.4.4.O s %.3.",
"4.$.%.d 3X9X9X9X9X9X9X9X0X0X0X:XoXXX=X9X9X8X9X9X9X-X+.>.5.4.4.4.2.7.4.+.%X9X9X9X9X9X9X9X9X9X3X7.1.5.1.5.5.5.4.5.2.5.4.4.O t 1.3.",
"$.3.$.t ).0X9X9X7X-X-X%XOX4X9X9X9X9X9X9X9X9X9X9X9X$Xo.5.2.5.2.5.7.5.2.2.1X9X9X9X9X9X9X9X9X9X1X$.2.4.5.5.5.2.5.5.5.5.5.2.O g 1.1.",
"3.$.4.#.r y.4X9X7X=X%X-X7X9X9X9X9X9X9X9X9X9X9X9X9XXXo.2.7.2.5.5.5.2.2.9.7X9X9X9X9X9X9X9X9X9X-X$.2.5.5.2.2.5.5.5.5.2.7.o.. o.2.1.",
"1.3.4.1.$.t #.XX7X9X9X9X9X9X9X9X9X9X9X9X9X9X9X9X9XXXf $.5.2.2.5.2.7.#.y.9X9X9X9X9X9X9X9X9X9X1X4.2.4.4.5.5.5.5.5.7.5.2.q r $.1.2.",
"2.3.3.3.3.$.O.t 4.|.-X9X9X9X9X9X9X9X9X9X9X9X9X9X9X#Xq #.5.2.7.2.5.5.#.[.9X9X9X9X9X9X9X9X9X9X7X4.%.1.5.5.5.2.5.7.2.5.o.O #.#.$.$.",
"4.3.2.4.:.$.$.$.f r d e.|.=X7X9X9X9X9X9X9X9X9X9X9X%Xr 1.7.2.5.5.5.5.%.&X9X9X9X9X9X9X9X9X9X9X9Xw.f 5.5.2.5.5.4.2.5.O.r O.%.$.%.1.",
"$.3.3.$.4.1.$.$.$.3.$.o.t s 3.t.|.&X1X7X0X9X9X9X9X.Xe 4.4.2.7.2.2.,.#.:X9X9X9X9X9X9X9X9X9X9X9Xt.f 7.4.2.5.4.5.4.f O O.-.2.$.$.2.",
"3.$.4.$.4.$.4.$.1.3.3.3.4.$.%.O.s s f $.6.t.)._.|.9.r 7.5.5.2.5.5.2.s #X3X7X0X9X9X9X9X9X9X9X9X(.s 4.5.5.5.5.4.4.i q 3.1.$.$.1.2.",
"1.$.$.4.:.1.:.$.4.3.3.3.:.3.$.:.$.$.$.%.O s f s f r O 2.4.4.5.4.5.2.q s O.2.7.e.t.y.(.).).).(.$.q 2.5.4.2.4.4.2.+ s $.$.$.$.$.$.",
":.$.3.3.4.2.$.$.$.4.$.4.3.$.O.q.%.#.$.4.e i 6.q.O.O.o f 4.4.5.5.5.1.o t f t r e w 4 w w e O   O . o.5.4.4.4.5.d . 1.4.$.4.3.1.4.",
"$.$.$.4.$.3.3.4.3.3.4.1.3.t y.].:.O.3.4.O.}.6X0X).f #.r I 4.5.5.4.f s |.|. X X X X X XOX#X&X%X=X_.+ $.2.4.5.2.o w s O.3.$.$.4.:.",
"$.$.$.4.$.3.4.$.:.3.:.O.f $._.OX=X1X1X3X1X9X7XoX'.-X0XXXf i o.O.s r XX9X9X9X9X9X9X9X9X9X9X9X9X9X7Xw.O I $.%.O s oX|.4.t o.o.%.$.",
"$.1.3.1.4.4.3.4.4.#.s e.oX3X9X9X9X9X9X9X9X9X0X3X0X9X9X9X1X].e.9.(.&X9X9X9X9X9X9X9X9X9X9X9X9X9X9X9X6X].$.d d w.=X9X9X3X_.O $.s O.",
"4.3.4.3.3.$.$.$.%.f }.7X9X9X9X9X9X9X9X9X9X9X9X9X9X9X9X9X9X9X9X8X9X9X9X9X9X9X9X9X9X9X9X9X9X9X9X9X9X9X9X7X1X3X8X9X9X9X9X8X'.t e f ",
"4.4.3.4.1.3.1.3.s |.9X9X9X9X9X9X9X9X9X9X9X9X9X9X9X9X9X9X9X9X9X9X9X9X9X9X9X9X9X9X9X9X9X9X9X9X9X9X9X9X9X9X9X9X9X9X9X9X9X9X0Xq.o %.",
"3.3.4.4.:.O.s O.f _.7X9X9X9X7X1X9X9X9X9X9X9X9X9X9X9X9X9X9X9X9X9X9X9X9X9X9X9X9X9X9X9X9X9X9X9X9X9X9X9X9X9X9X9X9X9X9X9X9X9X9X&XO O.",
"3.3.3.d #.).OX-X=XXX7X9X9X9X].q.3X9X9X9X9X9X9X9X9X9X9X9X9X9X9X9X9X9X9X9X9X9X9X9X9X9X9X9X9X9X9X9X9X9X9X9X9X9X9X9X9X9X9X9X9X6XO.f ",
"5.1.i (.XX_.w.w.).1X9X9X9X9X3X-X9X8X9X9X9X9X9X9X9X9X9X9X9X9X9X9X9X9X9X9X9X9X9X9X9X9X9X9X9X9X9X9X9X9X9X9X9X9X9X9X9X9X9X9X9X8X4.s ",
"3.f e.7X|.f t s w.-X9X9X9X9X9X9X9X9X9X9X9X9X9X9X9X9X9X9X9X9X9X9X9X9X9X9X9X9X9X9X9X9X9X9X9X9X9X9X9X9X9X9X9X9X9X9X9X9X9X9X9X0X%.s ",
"4.t }.9X8X0X7X7X9X9X9X9X9X9X9X9X9X9X9X9X9X9X9X9X9X9X9X9X9X9X9X9X9X9X9X9X9X9X9X9X9X9X9X9X9X9X9X9X9X9X9X9X9X9X9X9X9X9X9X9X9X%Xe %.",
":.d 0.6X9X9X9X9X9X9X1XXXoX1X9X9X9X9X9X9X9X9X9X9X9X9X9X9X9X9X9X9X9X9X9X9X9X9X9X9X9X9X9X9X9X9X9X9X9X9X9X9X9X9X9X9X9X9X9X9X8Xt.t $.",
"4.3.i t.-X9X9X9X9X9X0X3X6X0X9X9X9X9X9X9X9X9X9X9X9X9X9X9X9X9X9X9X9X9X9X9X9X9X9X9X9X9X9X9X9X9X9X9X0X4X9X9X9X9X9X9X9X9X9X9X Xt $.$.",
":.4.3.f %._.=X0X9X9X9X9X9X9X9X9X9X9X9X9X9X9X9X9X9X9X9X9X9X9X8X9X9X9X9X9X9X9X9X9X9X9X9X9X9X9X9X9X4X).7X9X9X9X9X9X9X9X6XXXd O.1.3.",
"4.3.4.4.$.f s q.|.=X7X9X9X9X9X9X9X9X9X9X%XoX9X9X9X9X9X9X9X9X0X-X9X9X9X9X9X9X9X9X9X9X9X9X9X9X9X9X6Xe.-X9X9X9X9X9X9X8X).s %.$.$.$.",
":.$.3.4.3.3.3.%.s f 6.).|.&X-X3X0X9X9X9X&X_.9X9X9X9X9X9X9X9X3X_.0X9X9X9X9X9X9X9X9X9X9X9X9X9X9X9X9Xw.XX9X9X9X9X9X9X9X|.f $.:.$.4.",
"3.6.4.4.4.3.3.6.4.4.:.O.d d o.:.6.t._.[.).4.7X9X9X9X9X9X9X9X1Xw.0X9X9X9X9X9X9X9X9X9X9X9X9X9X9X7X7X).(.9X9X9X9X9X9X9X%Xf 3.3.4.1.",
"3.3.4.3.4.4.3.4.3.4.4.4.4.3.3.:.$.O.XXOXOX3.*X9X9X9X9X9X9X9X=Xd y.).)._._.'.'.'._._.(.y.y.w.w.w.w.6.:.7X9X9X9X9X9X9X-XO.3.4.3.3.",
"4.4.3.6.4.4.3.3.4.4.3.3.4.3.4.3.4.$.4X9X9X_.'.9X9X9X9X9X9X9X#Xw +.O.O.o.o.o.f f o.f O.%.O.o.oX:X3X6Xe. X9X9X9X9X9X9X%Xs 4.4.4.1.",
"3.6.6.4.6.3.3.6.4.7.6.4.4.7.4.4.3.f %X9X9X%X6.3X9X9X9X9X9X9X'.e 4.4.4.4.4.7.4.4.3.7.3.4.4.O. X9X9X9X#X7.3X9X9X9X9X9X[.r 3.4.4.3.",
"4.3.6.3.4.3.4.3.6.4.4.7.6.7.7.3.3.f ).9X9X9Xt.|.9X9X9X9X9X3X:.d 3.7.3.7.4.7.4.4.6.4.4.3.4.3.$.-X5X9X9Xw.w.3X0X0X9X3XO.O.4.4.3.3.",
"4.6.4.6.4.4.4.4.4.4.4.4.3.4.3.7.4.3.O.XX3X3X Xo.-X9X9X9X0X_.w 3.7.3.7.7.4.4.7.4.4.4.7.7.4.4.%.3.w.#X{.d t %.#X3X].t.r 3.4.3.3.3.",
"4.4.6.4.6.3.4.4.4.4.3.3.4.4.4.7.4.6.4.%.6.3.O.i e.oX3X=Xt.t :.3.3.7.7.3.3.7.4.4.6.4.6.4.4.4.3.:.o.o.s $.4.O.O.q.s t #.3.1.4.4.$.",
"3.3.6.4.3.6.4.3.6.6.7.4.4.4.4.7.6.4.6.6.3.$.3.4.f s w.$.t 3.3.7.3.3.7.3.7.7.3.7.4.6.4.4.6.4.4.4.4.4.3.3.4.4.4.$.3.4.4.$.4.3.$.$."
};
