/* XPM */
static char *_c68ebdae11d45ae93949a7d2a029a85QANgXW15tyFjkmFr[] = {
/* columns rows colors chars-per-pixel */
"64 64 213 2 ",
"   c #0D0B0A",
".  c #1C0D02",
"X  c #100E0F",
"o  c #1B1107",
"O  c #141313",
"+  c #181515",
"@  c #1C1B1B",
"#  c #191818",
"$  c #210600",
"%  c #230D00",
"&  c #2B0D00",
"*  c #340E00",
"=  c #211106",
"-  c #2B1404",
";  c #24150A",
":  c #2D1A0C",
">  c #2A1709",
",  c #321502",
"<  c #3C1400",
"1  c #371A05",
"2  c #321C0C",
"3  c #3A1E0B",
"4  c #351907",
"5  c #2D1D12",
"6  c #271A12",
"7  c #331E12",
"8  c #3B210D",
"9  c #21211E",
"0  c #2E231B",
"q  c #342315",
"w  c #3D2412",
"e  c #34251A",
"r  c #3B291C",
"t  c #31281F",
"y  c #211F20",
"u  c #1F2120",
"i  c #242323",
"p  c #292728",
"a  c #2C2C2C",
"s  c #292624",
"d  c #342A23",
"f  c #3B2D24",
"g  c #312E2D",
"h  c #3E2F28",
"j  c #38332E",
"k  c #2E2F31",
"l  c #343434",
"z  c #3D3936",
"x  c #3C3C3C",
"c  c #383638",
"v  c #4B1E00",
"b  c #462309",
"n  c #522403",
"m  c #5B2A04",
"M  c #5A2A07",
"N  c #432613",
"B  c #492913",
"V  c #442E1C",
"C  c #442814",
"Z  c #5D2B1D",
"A  c #582E14",
"S  c #4B311E",
"D  c #51321C",
"F  c #593417",
"G  c #622F0C",
"H  c #642F05",
"J  c #632D1A",
"K  c #623B1D",
"L  c #663718",
"P  c #793C0F",
"I  c #412D22",
"U  c #572B21",
"Y  c #433125",
"T  c #4B3522",
"R  c #4E3729",
"E  c #4B3A2D",
"W  c #44372D",
"Q  c #593C25",
"!  c #563A26",
"~  c #443A33",
"^  c #4A3C32",
"/  c #403E3D",
"(  c #673B26",
")  c #783E21",
"_  c #7A431A",
"`  c #5E412C",
"'  c #4C443D",
"]  c #44413E",
"[  c #554335",
"{  c #6B4223",
"}  c #63422A",
"|  c #6A462C",
" . c #664429",
".. c #734624",
"X. c #7A4B29",
"o. c #754828",
"O. c #7F532E",
"+. c #614633",
"@. c #724934",
"#. c #755133",
"$. c #7C5334",
"%. c #7F5639",
"&. c #79563C",
"*. c #413F40",
"=. c #444344",
"-. c #4A4643",
";. c #4C4946",
":. c #494748",
">. c #4D4D4D",
",. c #514641",
"<. c #534B44",
"1. c #514E4C",
"2. c #4E504F",
"3. c #52504E",
"4. c #58504D",
"5. c #4E4E51",
"6. c #514F51",
"7. c #4F5150",
"8. c #545253",
"9. c #585353",
"0. c #5B5B5B",
"q. c #585858",
"w. c #66574B",
"e. c #615F60",
"r. c #646464",
"t. c #6C6B6B",
"y. c #736F70",
"u. c #737273",
"i. c #7C7C7C",
"p. c #777779",
"a. c #894A19",
"s. c #8C532D",
"d. c #875229",
"f. c #965828",
"g. c #855532",
"h. c #835A3A",
"j. c #8D5E3A",
"k. c #885834",
"l. c #915D35",
"z. c #945F38",
"x. c #935732",
"c. c #864B2A",
"v. c #8C613F",
"b. c #93623D",
"n. c #9A653C",
"m. c #9C6234",
"M. c #AE6B36",
"N. c #A56B3C",
"B. c #AD6E3D",
"V. c #A36537",
"C. c #B46D36",
"Z. c #B36E39",
"A. c #AE703E",
"S. c #B3703B",
"D. c #865D41",
"F. c #8C6242",
"G. c #876447",
"H. c #956643",
"J. c #966847",
"K. c #996944",
"L. c #9C6A43",
"P. c #9B6D4D",
"I. c #976344",
"U. c #97745B",
"Y. c #A36C43",
"T. c #AD6F40",
"R. c #AD6E41",
"E. c #A06D4B",
"W. c #B16E42",
"Q. c #A57045",
"!. c #AD7041",
"~. c #AC7143",
"^. c #A57149",
"/. c #AA7349",
"(. c #B17141",
"). c #A07555",
"_. c #986C61",
"`. c #85817F",
"'. c #8B8178",
"]. c #92857D",
"[. c #838383",
"{. c #8C8C8C",
"}. c #898987",
"|. c #948D89",
" X c #949493",
".X c #9C9B9B",
"XX c #A19FA0",
"oX c #A3A3A3",
"OX c #ABABAB",
"+X c #B4B4B4",
"@X c #BCBCBC",
"#X c #B9B7B9",
"$X c #B2AEAB",
"%X c #C1BFC0",
"&X c #C4C4C4",
"*X c #C9C7C8",
"=X c #CBCBCB",
"-X c #C8C3C0",
";X c #D4D4D3",
":X c #DCDCDC",
">X c #DED7D1",
",X c #E6DDD6",
"<X c #E5E1DD",
"1X c #E4E4E4",
"2X c #EAE7E6",
"3X c #EBEBEB",
"4X c #EBE7E7",
"5X c #F0EEEF",
"6X c #EEEEF0",
"7X c #F1EFF0",
"8X c #F4F4F3",
"9X c #FEFFFE",
"0X c #F6F8F7",
/* pixels */
">.>.>.>.>.2.>.>.>.8.2.2.3.;.E r 7 : * & * * * < < < < < < < < < , - 8 V R [ ^ r S R <.3.3.' r Y j 3.3.7.5.5.5.8.>.2.1.6.>.2.8.5.",
"1.1.<.1.1.2.1.>.4.;.] f : 2 8 D } #.%.j.j.I.H.H.J.J.K.L.K.K.H.D.g.$.@.|  .} C Q G.| S E E V 8 ` 2 h <.4.1.8.6.5.2.>.>.6.>.1.5.5.",
"z t e W ;.<.;.~ q - b K O.n.Q.~.(.(.(.(.B.T.B.T.!.R.B.B.Z.W.Z.W.~.R.T.T.~.~.I.X.c.n.z.j.b.b.l.s.X.F B Y ,.1.>.>.>.2.>.>.>.5.5.5.",
"  [ w.! e 0 : 8 } h.Q.Q.A.A.C.C.C.C.C.C.C.C.C.Z.C.Z.C.Z.C.Z.Z.C.C.C.C.C.C.C.T.A.M.M.W.Z.M.S.M.A.!.~.K.#.S W <.>.2.>.>.5.>.>.>.5.",
"o [ U.G., , X.n.~.S.M.C.C.M.C.C.Z.C.C.Z.Z.C.C.Z.C.C.C.C.C.C.Z.Z.C.C.C.C.C.C.C.Z.C.Z.Z.C.C.C.Z.Z.Z.Z.A.~.K. .Y <.1.>.>.2.>.2.2.2.",
"' 5 D , A n.!.C.Z.C.C.C.C.C.C.C.C.C.C.C.C.Z.Z.C.C.C.C.C.C.C.C.C.C.C.C.C.C.C.C.C.C.C.C.C.C.C.C.C.Z.S.C.M.A.Q.! f <.<.1.>.>.>.>.>.",
"<.' $ A Q.A.S.C.Z.C.C.C.C.Z.S.C.Z.C.C.C.C.C.C.Z.C.C.C.C.Z.Z.C.C.Z.Z.C.C.C.C.C.C.Z.C.Z.C.C.C.Z.a.P M.M.C.M.N.M B ` S T ^ <.1.2.2.",
"2.d 1 J.A.M.C.C.C.C.C.S.C.C.S.C.Z.Z.C.C.C.C.Z.S.Z.Z.Z.C.C.C.C.C.Z.Z.C.C.C.C.C.C.C.Z.C.C.C.Z.Z.f.a.B.S.B.S.B.K.$.#.#.#.` V Y ;.<.",
":.= | ~.M.C.M.C.C.S.Z.C.C.C.C.C.C.C.C.C.C.C.C.C.C.C.C.C.C.C.C.Z.C.C.C.C.C.Z.C.C.Z.C.C.C.C.W.Z.Z.B.W.W./.W.W.V.G v n x.Q.L.{ q ' ",
":.. z.A.C.C.Z.Z.C.C.C.C.S.C.Z.C.C.C.C.C.C.C.S.C.Z.C.Z.C.C.Z.C.Z.C.C.C.C.C.Z.C.Z.Z.C.C.C.C.Z.C.Z.V.) J c.I.z.E.E.P.P.R.Z.B.^.! : ",
"z . b.Z.C.C.C.C.C.C.S.C.C.C.C.C.C.Z.C.C.C.C.C.C.C.C.Z.Z.C.C.Z.Z.C.C.C.C.Z.C.C.C.C.C.W.C.C.Z.Z.C.Y.m J ( _.( ( ( ( ( x.W.M.!.G.% ",
"] . g.Z.C.C.C.C.C.S.C.S.C.C.C.Z.C.Z.C.C.S.C.C.C.C.C.C.Z.C.Z.Z.Z.Z.C.C.C.C.C.Z.Z.C.C.C.C.C.C.Z.C.W.s.J U U U U Z A G f.W.S.!.G.- ",
">.; F /.Z.C.C.C.C.C.C.C.C.C.C.C.C.C.C.C.C.C.C.C.Z.Z.C.C.C.C.C.Z.Z.Z.C.C.C.C.C.C.C.C.C.C.C.C.C.Z.C.W.V.c.) ) ) c.x.V.Z.A.Z.Q.` ; ",
">.j - F.!.Z.C.C.C.C.C.C.C.C.C.C.C.Z.C.C.C.C.C.C.Z.C.C.C.C.C.Z.Z.Z.C.C.C.C.C.C.C.C.C.C.C.C.C.C.C.C.M.W.W.R.T.W.W.B.!.A.!.I.{ q -.",
">.;.5 C Q.S.C.S.C.C.C.C.C.C.C.C.x.m.Z.C.C.C.C.C.C.C.C.C.C.C.C.M.C.C.C.C.C.C.C.C.C.C.C.C.C.C.C.C.C.Z.Z.C.Z.M.!.B.!.Q.v.| 8 e ;.1.",
">.>.-.; F Y.~.M.C.C.C.C.C.C.C.S.a.) W.C.C.C.C.C.C.C.C.C.C.M.f.M.C.C.C.C.C.C.C.f.Z.C.W.C.C.C.Z.W.M.B.R.R.!.~.Y.v...A 8 r ' 1.2.3.",
">.>.1.' 5 D D.s.B.C.C.C.C.C.Z.(...G !.C.C.C.C.C.C.C.C.Z.S.f.P M.C.C.C.C.C.A.M.H V.S.Z.M.S.A.!.!.^.L.H.h.#.F V q e W ;.1.1.3.>.3.",
"5.2.>.>.;.f 4 b B.S.C.C.C.C.C.(._ b Q.Z.!.!.!.S.!.!.A.!.^._ _ ~.C.C.C.C.C.M.Y.m m.N.V.m.l.g.o.K A b 3 8 r W ' ;.>.8.5.7.3.>.3.>.",
">.2.>.>.1.>.~ 1 L.Z.C.C.C.C.C.~.F , ..X.X.O.%.%.h.h.h.v.G.M d.Z.C.C.Z.Z.C.A.Y.n m H m n - q f W ^ ' ,.<.1.4.1.>.1.>.>.>.>.5.>.1.",
">.2.>.6.>.>.] : K.M.C.C.C.Z.Z.Y.b B | L F < % > : 2 3 w C & l.Z.C.C.S.C.C.M.n.v g.b.K.D.: 1.7.8.>.>.>.6.7.2.7.2.7.7.8.7.7.>.>.>.",
"1.>.>.2.>.2.:.o $.R.B.C.C.C.W.I.& &.).P.U.N f 1.;.4.<.' <.- k.W.S.C.C.C.C.S.g.m A.!.^.| 0 2.2.>.>.>.>.>.2.3.>.>.8.>.6.>.>.7.2.>.",
">.>.>.;.>.>.2.d , D.Y.R.T.R.^.) $ [ | | +.I j i a k l g j = ( /.A.C.C.S.S.~.K F n.^.P.1 ~ 7.:.:.3.>.>.>.2.2.2.>.>.7.>.>.>.>.>.>.",
"5.>.2.>.;.2.>.;.d - N %.P.%.( > _.:X,X,X<X2X;Xr./ ] =.] / d , F.!.A.C.M.!.v.4 r V +.R . z k u a x >.>.>.3.3.7.5.5.5.5.6.1.6.>.7.",
"5.5.2.2.;.=.2.:.j s ; - 3 - ; |.0X9X9X9X9X9X9X2Xt.>.4.4.9.1.5 N %.m./.Q.O.C 6 <.' q.|.|.{.u.q.] @ a =.>.2.3.5.>.>.>.>.>.5.>.6.6.",
"5.5.:.i a 6 i p *.6.4.,.*.*.<.%X9X9X9X9X9X9X9X9X:X9.3.4.9.9.1.d = 8 Q ! r _.+X.XOX2X9X9X9X9X0X4X*X.Xr.x z >.>.8.>.2.>.2.8.>.7.5.",
"5.5.x u :.6 y 5.q.6.9.6.9.9.6.`.0X9X9X9X9X9X9X9X9X+X:.4.9.6.9.9.;.~ Y d `.9X9X9X9X9X9X9X9X9X9X5X3X0X9X=X8.@ =.>.>.>.>.>.>.2.2.2.",
"5.5.*.@ + y 6.6.6.9.9.9.6.9.6.q.4X9X9X9X9X9X9X9X9X0Xy.;.9.9.1.9.9.9.4.1.q.6X9X9X9X9X9X9X9X7XXXr.q.t.&X#X>.x y x 1.>.>.>.8.>.>.3.",
":.:.5.@ @ 1.9.9.9.9.9.6.9.9.9.*.*X9X9X9X9X9X9X9X9X9X#X=.6.9.9.9.6.9.9.8.=.&X9X9X9X9X9X9X4Xy.] =.*.5.8.i.*.l x p c =.>.1.2.8.>.>.",
"5.>.*.X =.8.6.9.8.8.9.9.8.6.9.*..X9X9X9X9X9X9X9X9X9X2X9.5.q.9.6.q.8.8.8.=..X9X9X9X9X9X9X{.x 9.x k 8.*.+X[.6.>.x u.t.=.c >.7.5.>.",
":.>.x # 5.8.6.9.q.8.8.9.9.9.q.*.`.9X9X9X9X9X9X9X9X9X0Xp.5.9.9.9.9.8.8.8.>.u.0X9X9X9X9X0Xe.>.9.8.6.=.u.8X0X:XoXp u r.;Xt.l >.7.5.",
"7.>.k @ 8.6.q.9.6.9.8.8.9.9.6.5.r.0X9X9X9X9X9X9X9X9X9XoX*.6.6.6.8.9.9.8.1.q.8X0X9X9X9X9XoX:.>.:.8.}.3X9X9X9X0X:X;X3X9X:Xc :.5.>.",
"5.>.k @ 8.q.6.9.9.8.9.9.8.6.9.6.8.3X9X9X9X9X9X9X9X9X9X=X*.q.9.9.8.8.9.6.8.:.:X9X9X9X0X9X0X;X+X@X,X0X0X0X9X9X9X9X9X9X9X2Xz :.1.3.",
"1.5.l # 6.6.9.9.9.9.6.9.9.9.9.6.>.1X9X9X9X9X9X9X9X9X9X1X6.6.9.6.9.8.9.8.9.*.%X9X9X9X9X9X9X9X9X9X9X9X2X+X=X:X:X7X9X9X0X[.a 2.7.>.",
"5.6.=.X :.q.9.6.9.9.9.9.6.6.9.6.1.:X9X9X9X9X9X9X9X9X9X0Xe.6.6.q.9.8.6.9.8.*.+X9X9X9X9X9X9X9X9X9X9X9X9X0X:X=X;X8X9X2Xi.i :.7.>.7.",
"6.>.>.p p 6.9.9.9.6.6.9.9.9.9.6.9.1X9X9X9X9X9X9X9X9X9X0X_.5.8.6.6.6.9.9.>.x +X9X9X9X9X9X9X9X9X9X9X9X9X9X9X9X9X8X+X>.a >.7.>.7.5.",
">.>.:.:.@ *.9.9.9.9.9.9.6.q.6.:.5.8X9X9X9X9X9X9X9X9X9X0X.X=.9.8.9.9.8.9.*.y %X9X9X9X9X9X9X9X9X9X9X9X9X9X9X:XoX8.a *.>.7.8.8.>.8.",
">.>.>.:.*.p =.6.6.6.9.6.9.9.9.x t.0X9X9X9X9X9X9X9X9X9X9X*X:.8.9.6.8.6.9.6.p =X9X9X9X9X9X9X9X9X9X9X8X;XoXt.x p x >.>.>.7.7.8.>.8.",
">.>.>.>.6.*.@ / 9.9.9.9.6.9.q.x p.9X9X9X9X9X9X9X9X9X9X9X:X5.6.9.9.9.9.9.6.p OX9X9X9X9X0X7X1X*XoXp.>.l k / :.7.>.>.>.7.8.>.7.7.>.",
"7.>.5.>.5.5.y a 9.8.6.9.6.9.9.l i.9X9X9X9X0X9X9X9X0X7X3X%Xl 6.8.9.8.9.9.q.p 0.oX{.[.u.0.2.x l l =.:.2.7.7.7.7.5.>.7.>.>.>.7.>.5.",
"5.>.>.>.5.5.l + 6.9.9.9.9.9.6.y >.[.}.[.[.[.p.u.t.q.7.:.l 6 6.8.6.9.9.9.6.@ p c l x l # :.>.>.>.>.>.8.>.8.2.3.8.>.5.8.2.8.>.8.>.",
"8.7.7.7.>.7.>.  c 9.9.8.6.9.*.X @   u i u i u i i p a c a O 5.9.9.8.8.9.x O =.*.r.0.l y 7.7.>.:.r.:.>.7.8.>.7.2.8.>.5.8.>.7.>.7.",
">.8.>.>.>.:.l u O 1.9.8.8.5.# }.;X*X*X%X+XOXOXOXOXOXOXoXoXl x 9.9.9.8.*.i >.c }.0X5XoX=.8.8.=.7..Xp.k 7.2.7.8.7.8.2.7.7.8.>.>.>.",
">.:.*.*.a 8.oX&Xl @ :.>.x @ t.8X9X9X9X9X9X9X9X9X9X9X9X9X9XOXa c *.*.k x +X8X:X X@X8X9X1X4X1X1X;X#X{.:.c =.8.2.>.>.8.7.2.8.>.>.>.",
"=.l >.# {.3X9X9X;Xt.c x 5..X6X9X9X9X9X9X9X9X9X9X9X9X9X9X9X9X=Xi.e.t..X1X9X9X9X0X3X0X9X9X9X9X9X9X9X9X7X@Xr.l >.7.8.>.8.8.>.7.>.>.",
"x u a .X9X9X9X9X9X0X3X1X0X9X9X9X9X9X9X9X9X9X9X9X9X9X9X9X9X9X9X9X9X9X9X9X9X9X9X9X9X9X9X9X9X9X9X9X9X9X9X9X8XXXc :.>.>.2.8.8.7.7.8.",
":.O r.0X9X9X9X9X9X9X9X9X9X9X9X9X9X9X9X9X9X9X9X9X9X9X9X9X9X9X9X9X9X9X9X9X9X9X9X9X9X9X9X9X9X9X9X9X9X9X9X9X9X9XoXk >.>.7.2.8.8.8.8.",
"=.@ *X9X9X9X9X9X9X9X9X9X9X9X9X9X9X9X9X9X9X9X9X9X9X9X9X9X9X9X9X9X9X9X9X9X9X9X9X9X9X9X9X9X9X9X9X9X1X8X9X9X9X0X{./ =.c *.7.7.8.7.7.",
"x =.7X9X9X9X9X9X9X9X9X9X9X9X9X9X9X9X9X9X9X9X9X9X9X9X9X9X9X9X9X9X9X9X9X9X9X9X9X9X9X9X9X9X9X9X9X3Xe..X9X9X9X0X+X;X:X#X[.:.c 8.>.7.",
"l 8.9X9X9X9X9X9X9X9X9X9X9X9X9X9X9X9X9X9X9X9X9X9X9X9X9X9X9X9X9X9X9X9X9X9X9X9X9X9X9X9X9X9X9X9X9X9X:X3X9X9X9X9X1X}.t.y.}.+X[.k 7.8.",
"l =.8X9X9X9X9X9X9X9X9X9X9X9X9X9X9X9X9X9X9X9X9X9X9X9X9X9X9X9X9X9X9X9X9X9X9X9X9X9X9X9X9X9X9X9X9X9X9X9X9X9X9X9X:Xr.l a x XX7Xr.x 7.",
">.u =X9X9X9X9X9X9X9X9X9X9X9X9X9X9X9X9X9X9X9X9X9X9X9X9X9X9X9X9X9X9X9X9X9X9X9X9X9X9X9X9X9X9X9X9X9X9X9X9X9X9X9X9X9X7X7X0X9X9XXXk 8.",
"5.a u.0X9X9X9X9X9X9X9X9X9X9X9X9X9X9X9X9X9X9X9X9X9X9X9X9X9X9X9X9X9X9X9X9X9X9X9X9X9X9X9X9X9X9X9X9X9X9X2X#X+X1X9X9X9X9X9X9X7Xr.c 2.",
">.>.a OX9X9X9X9X9X9X9X9X9X9X2X0X9X9X9X9X9X9X9X9X9X9X9X9X9X9X9X9X9X9X9X9X9X9X9X9X9X9X9X9X9X9X9X9X9X9X0X8X3X0X9X9X9X9X9X:Xu.k 7.8.",
">.>.:.c OX6X9X9X9X9X9X9X9X0X[.2X9X9X9X9X9X9X9X9X9X9X9X9X9X9X9X9X9X9X9X9X9X9X9X9X9X9X0X9X9X9X9X9X9X9X9X9X9X9X9X9X0X;X{.=.x 2.8.2.",
">.5.>.:.c }.0X9X9X9X9X9X9X:Xr.8X9X9X9X9X9X9X9X9X9X9X9X9X9X9X9X9X:X0X9X9X9X9X9X9X9X9X%X;X9X9X9X9X9X9X9X9X9X8X;XoXr.x c >.8.8.7.8.",
"7.>.2.>./ oX9X9X9X9X9X9X9X+Xt.9X9X9X9X9X9X9X9X9X9X9X9X9X9X9X9X0X{.4X9X9X9X9X9X9X9X9X[.*X9X9X9X0X3X:X*XoX`.q.x l =.8.8.8.7.7.2.>.",
"7.8.7.7.x *X9X9X9X9X9X9X9X[.[.3X8X0X9X9X9X9X9X9X9X9X9X9X9X9X9X0Xt.:X9X9X9X9X9X9X9X7X8.[..X{.u.e.2.x l x =.2.q.7.8.8.8.8.8.8.q.7.",
"7.7.8.8.=.:X9X9X9X9X9X9X7X2.e.t.t.u.u.p.i.[.}.{. X X X{.}.}.}.i.l :X9X9X9X9X9X9X9X;X7.#X#X+X=.>.7.2.q.8.8.7.7.7.8.8.7.8.8.8.8.7.",
"7.7.8.8.l =X9X9X9X9X9X9XOXt.7X3X:X%Xx =.=.=.x *.x *.=.*.x =.:.=.i &X9X9X9X9X9X9X9X X}.9X9X1X>.7.7.7.8.8.7.8.q.7.7.8.7.8.q.q.8.8.",
"7.8.7.7.p .X9X9X9X9X9X4X0.&X9X9X9XOX=.q.8.8.8.7.8.7.8.7.q.7.8.7.i  X9X9X9X9X9X9X7X0.=X9X9X=Xx 7.8.8.8.8.8.q.8.7.8.7.8.8.7.q.q.8.",
"7.8.8.8.*.:.3X9X9X9X3Xt.t.9X9X7X:X2.7.8.q.q.7.q.8.8.q.8.q.8.q.7.c :.3X9X9X9X9X9XoXu.0X9X9X}.x 7.q.q.7.q.8.q.8.q.8.7.7.7.q.8.8.q.",
"7.>.7.8.7.i u..X1X&X=.p c XX&Xt.7.=.8.8.7.8.q.8.8.8.q.8.q.8.q.7.8.p {.0X9X9X9X:X*.OX7X6X+X=.8.7.8.q.8.7.8.7.8.q.8.8.7.q.q.7.q.q.",
">.7.8.7.8.>.k l r.*.=.q.>.l x x >.7.7.q.8.q.q.q.8.7.q.7.8.q.8.8.8.>.k u.;X3X@Xr.k =.7.0.=.8.q.q.q.7.8.7.7.7.8.8.q.q.q.q.8.q.7.7.",
">.>.2.8.7.7.7.2.>.q.8.8.7.7.8.q.q.8.7.q.q.8.8.q.q.7.q.q.8.q.8.8.7.8.>.a 2.t.c x 8.7.7.7.q.q.q.q.8.q.q.8.q.q.q.q.8.7.8.8.q.q.8.7."
};
