/* XPM */
static char *_680277432969[] = {
/* columns rows colors chars-per-pixel */
"64 64 241 2 ",
"   c #57513D",
".  c #514E3D",
"X  c #685B3B",
"o  c #463B5B",
"O  c #753E44",
"+  c #4C377C",
"@  c #473A6A",
"#  c #4F4E45",
"$  c #4E4E4E",
"%  c #454E4B",
"&  c #524D4E",
"*  c #5B4C4E",
"=  c #584949",
"-  c #4E504E",
";  c #47534E",
":  c #555245",
">  c #52514E",
",  c #5A524C",
"<  c #5C5344",
"1  c #4E4E51",
"2  c #4E4B5B",
"3  c #4A4B5B",
"4  c #5A4652",
"5  c #514F51",
"6  c #5A4C52",
"7  c #504C5B",
"8  c #55455A",
"9  c #4D5151",
"0  c #4B535B",
"q  c #485557",
"w  c #525252",
"e  c #585352",
"r  c #565659",
"t  c #575856",
"y  c #63464B",
"u  c #624B4D",
"i  c #6D484C",
"p  c #62544E",
"a  c #675C4B",
"s  c #694B53",
"d  c #764D58",
"f  c #665A52",
"g  c #785359",
"h  c #7A444A",
"j  c #52615A",
"k  c #696348",
"l  c #6A635D",
"z  c #756857",
"x  c #786E54",
"c  c #4C4668",
"v  c #524B64",
"b  c #504867",
"n  c #545F66",
"m  c #554978",
"M  c #4A5865",
"N  c #7E5A60",
"B  c #7F5C72",
"V  c #4E6166",
"C  c #576A64",
"Z  c #557166",
"A  c #596D76",
"S  c #756864",
"D  c #677877",
"F  c #767167",
"G  c #9A323D",
"H  c #B7302E",
"J  c #C22F2B",
"K  c #C93933",
"L  c #C9362F",
"P  c #A14F3A",
"I  c #CD4338",
"U  c #913D46",
"Y  c #C83E48",
"T  c #824F57",
"R  c #845A5D",
"E  c #9B5754",
"W  c #9C4C4F",
"Q  c #A74948",
"!  c #B74448",
"~  c #A94954",
"^  c #BC4C52",
"/  c #B34B54",
"(  c #B15959",
")  c #B0574C",
"_  c #9D655B",
"`  c #887A52",
"'  c #975962",
"]  c #835A63",
"[  c #B65766",
"{  c #A35972",
"}  c #89756B",
"|  c #9A796D",
" . c #876674",
".. c #976979",
"X. c #8E6F6D",
"o. c #A67466",
"O. c #AA6D77",
"+. c #BA6778",
"@. c #A97A77",
"#. c #B3726E",
"$. c #B9765B",
"%. c #CB4D4B",
"&. c #C64748",
"*. c #D4524E",
"=. c #C94B52",
"-. c #C85358",
";. c #D35453",
":. c #DD5B5B",
">. c #D85957",
",. c #D24E48",
"<. c #E25D58",
"1. c #E2594D",
"2. c #D9665A",
"3. c #D26D57",
"4. c #E4635C",
"5. c #EA675E",
"6. c #EA695F",
"7. c #D65A68",
"8. c #C65869",
"9. c #C26965",
"0. c #D96C68",
"q. c #D97A64",
"w. c #DD7778",
"e. c #CB7079",
"r. c #EA6661",
"t. c #EE6A64",
"y. c #E56768",
"u. c #F16D68",
"i. c #E7776A",
"p. c #F4736C",
"a. c #FA746D",
"s. c #FE786F",
"d. c #E56B78",
"f. c #E87B77",
"g. c #FC7673",
"h. c #FC7A74",
"j. c #FC7B7C",
"k. c #F57778",
"l. c #F46D71",
"z. c #6A847B",
"x. c #A88F58",
"c. c #9A8776",
"v. c #8F866A",
"b. c #B59B63",
"n. c #A3837A",
"m. c #B88B7D",
"M. c #A99470",
"N. c #CD8D71",
"B. c #EC8679",
"V. c #F3817C",
"C. c #FE837C",
"Z. c #F98A7B",
"A. c #E99978",
"S. c #EA8B6D",
"D. c #C0AF7B",
"F. c #E7A87C",
"G. c #513691",
"H. c #5B4B8D",
"J. c #647684",
"K. c #6955A4",
"L. c #966781",
"P. c #AF7588",
"I. c #C87C85",
"U. c #D2788B",
"Y. c #EA7886",
"T. c #F67984",
"R. c #FB7D83",
"E. c #F67A86",
"W. c #EA6F83",
"Q. c #759091",
"!. c #7FA596",
"~. c #7893A9",
"^. c #948B86",
"/. c #B69A86",
"(. c #AE9288",
"). c #BCA78B",
"_. c #AAA588",
"`. c #8A9DA4",
"'. c #91ABB2",
"]. c #CF828C",
"[. c #D7898C",
"{. c #D38A97",
"}. c #D69898",
"|. c #CB9288",
" X c #E78487",
".X c #FE8484",
"XX c #FE8B84",
"oX c #FD838B",
"OX c #FC8D8A",
"+X c #F38B83",
"@X c #FE9186",
"#X c #FD938D",
"$X c #F79B8A",
"%X c #F78A94",
"&X c #FE9A94",
"*X c #FF9C9B",
"=X c #F89595",
"-X c #E88D92",
";X c #C2A68A",
":X c #D9B98B",
">X c #C3A896",
",X c #C9B798",
"<X c #D4B28A",
"1X c #ECAA85",
"2X c #E8B787",
"3X c #FBA699",
"4X c #FAB59A",
"5X c #FAB689",
"6X c #D998A4",
"7X c #E898A6",
"8X c #F298A4",
"9X c #CEB1AE",
"0X c #E6A1AB",
"qX c #FEA5A3",
"wX c #FFACA6",
"eX c #FFB2AB",
"rX c #FFBCB6",
"tX c #9EC7B7",
"yX c #A0C0B5",
"uX c #DEC297",
"iX c #E9C78C",
"pX c #EACB96",
"aX c #F0CA97",
"sX c #F0C28E",
"dX c #E6CCA3",
"fX c #FDC6A6",
"gX c #FFD3AB",
"hX c #F9DDB3",
"jX c #EBDDB6",
"kX c #FCE8BA",
"lX c #FBEBB6",
"zX c #DAD4B4",
"xX c #95BACE",
"cX c #9AC4DA",
"vX c #A5CEE5",
"bX c #B3D3E1",
"nX c #D2CBC5",
"mX c #FED3CB",
"MX c #FFE4C4",
"NX c #FFF2CA",
"BX c #C3E4F3",
/* pixels */
"$ $ $ $ $ % $ % = $ $ $ 1 & 1 5 $ $ % $ $ & $ $ - $ - - w w w t w r w w w w 5 1 w w w - 5 1 - 9 w 9 $ $ $ $ 9 w $ $ 1 - & 9 $ & ",
"$ $ $ $ $ $ $ $ 5 1 $ $ $ $ $ 5 $ $ % $ 1 5 w - & - - w 5 w w w w 9 w w w & 1 1 9 9 5 > - 1 $ 5 5 > $ 5 $ $ & - $ 5 & 9 9 & $ 9 ",
"$ $ $ $ $ $ $ $ $ $ $ $ $ $ $ 1 $ & $ $ 5 7 & w $ w w $ 5 $ - > > > > w > > 9 1 1 w 9 > & & $ > $ $ w $ w $ $ $ $ $ $ $ $ $ $ $ ",
"$ $ $ $ $ $ $ $ $ $ $ $ $ $ $ $ $ $ $ $ 5 5 5 $ & 5 & $ & $ w - - - 1 1 $ - - - - w w > - 9 9 5 9 $ w w 1 $ $ $ $ $ $ $ $ $ $ $ ",
"$ $ $ $ $ $ $ $ $ $ $ $ $ $ $ $ $ # $ $ 1 - $ $ $ $ $ 5 $ 5 w - $ $ 1 5 $ - 9 - - > w w 1 5 $ > & $ & w 9 & $ $ $ $ $ $ $ $ $ $ ",
"$ 1 $ $ $ $ $ % $ $ $ $ % & $ $ $ # % $ $ $ - $ $ $ $ & $ w > w & $ 5 1 1 & 9 > - > 9 w 1 9 $ > $ w 9 w w $ $ $ $ $ $ $ $ $ 1 $ ",
"$ $ $ $ $ $ $ $ 1 $ $ $ $ $ & 1 $ $ $ 1 5 w - - $ $ & 5 > > 9 w & - w - - 9 5 > 1 w w 5 5 & $ - w w $ $ $ $ 9 $ 1 > $ $ > $ & 9 ",
"$ $ $ $ $ $ $ $ $ w w $ $ $ w 5 $ % $ 1 5 w > > 1 w 5 w w > > 9 - w - 9 9 - w 1 w w 5 w 5 $ - > 9 & $ $ $ $ & w $ 1 w $ 1 1 - & ",
"$ $ $ $ & $ $ $ $ w $ $ % & 1 1 - $ - 1 - & - - w w w w w w w 9 9 1 ; 9 - 9 9 - & 1 5 5 1 & $ $ $ $ $ w w w 9 > $ $ & - 1 $ $ $ ",
"% $ $ $ 9 1 $ $ $ $ w $ $ & w > & & & - & 9 & = i g 6 w w 9 w 1 9 C Q.D r w - > - 5 1 1 1 - w 9 $ $ $ w & - 5 1 $ $ 9 & $ $ & % ",
"$ $ $ $ & $ $ $ $ $ w $ $ 9 w $ $ $ $ $ 9 5 & y U e.s w $ 1 1 1 9 C z.yXD - w w - & 1 5 5 $ $ $ $ 1 $ $ 1 - & w $ $ 9 - $ $ $ $ ",
"% $ $ $ 1 $ $ $ $ w w $ 5 w w $ $ & $ $ $ & & i G ( i 5 5 w w r 9 r j C 9 & * u = & $ 1 - $ > - w w w $ $ w w w $ $ & 1 $ $ $ $ ",
"$ $ $ $ - $ $ $ $ w w 5 w w w $ $ $ $ $ 1 1 & i U ~ = w > - 1 9 - 1 9 9 1 6 X.#.R u & > 1 $ $ $ w w w $ > w w w > 9 - $ $ $ $ $ ",
"$ $ $ $ 1 $ $ $ $ > w $ $ w w $ $ $ $ $ 1 5 & = h h * 1 7 2 v v 2 1 w 5 > * ' }.>X} = 1 w 1 > - w w w w w w 9 w 5 $ 5 $ $ $ $ $ ",
"# $ $ $ $ $ $ $ $ $ 5 $ $ $ & $ $ $ $ $ 1 5 & = = = & 5 b @ H.H.v 9 $ 1 & * s R X.p 5 1 $ $ $ - w w w w 1 $ & & w 1 1 $ $ $ 5 5 ",
"% $ $ $ 1 $ $ $ $ $ & % $ $ w 9 $ $ $ 1 1 $ $ & - - - 1 3 G.G.K.m 2 w 1 9 5 * 6 4 6 5 $ & 5 & $ $ $ $ $ $ $ $ % w w > $ $ $ 1 $ ",
"= $ $ $ $ $ % $ $ $ $ $ $ 1 & w $ $ $ $ $ 9 - 1 3 q q % 3 m G.G.K.c 7 1 w $ & = w & w - $ $ $ 1 $ $ $ $ $ w $ $ $ $ $ $ 5 & $ w ",
"$ $ $ $ $ $ = $ $ $ $ $ $ $ $ $ $ $ $ $ $ $ 3 q A J.`.M 9 v G.+ m v 7 1 w $ 1 % 5 > & - : $ 9 $ $ $ $ $ & 9 $ $ $ $ $ $ $ 9 1 $ ",
"$ $ $ $ = $ % 3 $ $ $ $ $ $ $ $ % $ $ $ $ q M ~.vXbXBXQ.9 7 7 b 1 9 n F t $ $ 5 $ $ .   <   - w $ $ $ $ $ w 9 $ 1 $ $ - $ $ $ $ ",
"$ $ $ $ $ % $ $ w w $ w $ 9 $ $ $ $ $ $ $ 1 M ~.cXcX'.V 0 $ $ $ 1 5 } nXnXF & $ & :   v.uXk : - $ $ $ $ $ w & $ w $ 9 & $ $ $ $ ",
"$ $ $ $ $ $ $ % w 1 - 5 & & $ $ $ $ $ $ 5 9 0 n A 3 q ; - - $ % - $ l ^.9XnXt > : z x.b.:Xk : $ $ $ $ $ $ & $ $ 9 & $ 9 $ $ $ $ ",
"$ $ $ $ $ $ % = $ $ $ $ $ % $ $ $ % $ $ w 1 5 5 1 $ $ $ - - % % 9 $ & , f S w > : x b.x.X   # $ 1 $ $ $ $ 1 & $ & 9 & & $ $ $ $ ",
"$ $ $ $ $ $ $ $ $ $ $ $ $ $ $ $ $ $ $ 5 1 5 & & $ $ - - - ; q Z ; - $ $ & & & > , , a   : # $ $ $ $ $ $ > $ $ $ $ $ $ $ & - $ 1 ",
"$ $ $ $ $ $ % $ $ $ $ & 9 5 w w $ $ 1 1 5 : k z k - - - w q z.'.D ; - $ $ 1 $ w > > & > 1 1 $ & 9 $ $ $ 1 w 9 $ $ $ $ $ 9 $ $ w ",
"$ $ 3 $ $ $ $ % $ $ $ $ - 1 $ $ $ # $ $ & a D.lX_.# - - 1 9 V !.tXZ ; - w > $ $ 9 $ 5 5 9 1 & $ w w 5 $ 9 & 9 w $ $ $ $ $ - 1 $ ",
"$ $ $ $ $ $ $ $ $ $ $ $ & 9 $ $ $ $ $ $ : < ` x.x # # - 9 1 ; Z !.Q.; - - - $ $ 9 1 1 1 $ w % $ w 9 $ $ $ $ $ & $ $ 1 $ 9 & $ w ",
"$ $ # % $ $ # # $ $ & 1 & $ $ 1 $ $ $ % $ # . = # $ 1 $ $ $ $ ; j ; - - $ $ $ 9 3 0 n q $ % $ $ $ $ $ $ $ $ $ 1 $ $ $ $ w $ $ $ ",
"% # # o $ $ $ o $ $ & $ 9 $ $ $ $ & & $ $ % % & 1 7 v 2 $ $ $ $ ; - # - $ $ 1 0 V '.cX3 1 $ $ $ & $ $ $ $ $ $ $ $ $ $ $ $ $ $ w ",
"$ o % $ $ % 3 # $ 1 5 $ 1 & $ $ $ $ $ $ $ % $ $ v c H.m 7 & $ $ & $ $ $ $ 1 3 A xXvX'.q 1 1 & $ - 9 $ & $ $ $ $ $ $ $ 1 $ $ w $ ",
"# # # $ $ = % = $ $ $ $ 1 - $ $ $ $ $ = % = $ 3 b @ + m 7 5 $ $ $ 5 $ $ $ 1 0 J.xXQ.M q 9 9 w & 1 & 9 w 5 & $ $ $ $ $ $ 5 - 1 $ ",
"& $ $ $ $ $ $ % $ $ 1 5 - & $ $ % $ $ % 3 $ $ $ 8 o c c 8 1 1 1 $ $ & 5 5 1 1 0 M 0 1 $ 1 9 $ $ $ $ $ & $ $ $ % $ $ $ $ & 9 & - ",
"$ $ $ $ $ $ $ $ $ $ $ $ & 9 $ $ & $ % # 5 1 $ = 8 8 4 4 = = = = l ^.* 6 4 5 1 1 1 1 & $ $ 1 $ $ $ $ $ $ $ $ $ $ $ $ $ $ $ $ & 9 ",
"$ $ $ $ $ $ $ # $ $ $ $ 1 $ $ $ $ $ 5 5 w 5 w 6 y s d g T T g g >XmXR g i y * 6 1 $ $ $ % % $ $ $ % $ & $ - & w $ $ > > $ - 1 $ ",
"3 = $ $ $ $ % $ $ $ & 5 1 $ $ $ $ $ $ 5 = = s R P.@.U.[. X[.[.|.mX6X[.[.I.P...g y & = $ = $ $ $ $ $ $ $ 9 - 9 & $ - $ $ w $ 9 & ",
"$ $ $ $ $ 5 $ $ & $ % & 1 1 $ $ # $ 1 = g O.I. XW.f.+Xk.f.V.B.f.+Xi.i.w.w.d. X-XU.O.d O = 1 $ $ 5 $ 5 $ - - $ $ $ $ $ & w - > 1 ",
"$ $ $ $ $ $ $ $ $ # $ $ $ $ $ 5 & = d P.].Y.Y.T.j.R.C.C.C.C.C.s.p.t.y.4.<.y.y.d.W.7X6XP.d 4 5 9 5 5 5 & 1 $ $ $ $ $ # & - 9 w w ",
"$ # $ $ $ 1 1 $ $ 1 $ $ > 1 1 5 4 L.U.U.Y.oXE..X.XXXOX@X@XZ.C.s.r.1.<.*.;.;.7.7.d.Y.-X8X{.] 6 r - 5 & w $ $ $ $ $ $ $ 5 w w & 9 ",
"% $ $ $ 1 & 5 1 = 1 $ $ > 5 & 6  .P.U.Y.E.oXT..XoXOX&XwX$XZ.C.6.1.1.K Y &.=.7.7.d.W.E.%X8X6X .6 & w 1 w 5 & - - $ $ $ 9 $ w 9 & ",
"& $ $ $ $ $ $ $ $ - - $ - 5 8 B P.P.U.d.T.E.oXoX.X.X@X3XS.S.4.1.,.L J K Y Y 7.W.W.E.R.oX%X8X6XN 6 > 9 & 5 7 - 9 $ $ $ > 5 5 $ - ",
"$ $ % $ $ $ $ $ 1 $ - - w 6 8 P.P.8.7.7.d.E.oXoXR..XXXXXq.1.P I L L H H Y Y 7.W.E.E.R.oXoX%X8X{.* 5 & 9 5 w > w - - w 9 & $ w $ ",
"5 5 $ 3 $ $ & 5 1 $ & $ > 5 B P.8.8.8.7.d.y.l.T.k.R..XV.$XZ.2.H L J J H Y d.T.T.T.R.R.R.oXOX=X0X .* w & & w w $ $ - $ w 5 5 1 - ",
"5 5 $ $ $ $ - & $ 5 $ 9 1 4 L.{ [ Y -.7.7.r.d.l.l.k.k.j.Z.S.i.6.r.l.l.l.R.j.j.j.j.j.C..XOXOX%X8X(.6 & w w $ $ $ 9 9 9 & & & $ $ ",
"1 $ $ $ % $ $ $ $ $ $ $ 1 4 ..{ ~ ^ Y -.>.7.:.r.t.t.u.a.p.a.g.g.g.g.l.T.g.h.j.C.C.C.XX@X@X#X#X8X}.s & w $ w w w w w w w & $ $ $ ",
"$ $ $ $ $ $ # $ $ $ $ 1 1 4 L.{ [ / =.=.;.>.:.r.r.t.u.p.p.p.a.g.g.g.R.g.C.C.C.XXOX#X$X&X$X=X#X=X6Xd * - $ 9 $ 9 $ w > 9 1 $ $ $ ",
"$ $ $ $ $ $ $ $ % $ & 1 1 = L.{ [ -.=.&.=.;.>.:.4.5.t.t.p.a.a.s.g.j.h.C.Z.XXXX#X*XwXeXwX*X&X#X=X0XN 6 1 $ - $ & $ & 9 & w 5 w w ",
"$ $ 1 w & $ $ $ $ # $ $ 1 5 ..E W Q ! P &.%.*.:.4.6.5.t.t.p.a.a.g.j.Z.Z.XX@X#X#X&XwXrXmXrX=X XB.6Xg = $ $ $ 1 $ $ $ > w w w w w ",
"- - & $ 5 5 5 $ $ $ $ 1 $ & ] O T W Q Q ! &.%.;.>.4.4.5.6.u.p.a.g.h.Z.Z.@X#X&X*X3XqXqXqXeX=X9.) }.s 5 w 5 $ $ $ 5 $ w w w w 9 9 ",
"$ $ $ 5 5 5 1 $ $ $ 5 5 5 & p R _ _ E Q ! ! &.%.*.>.<.5.t.6.t.t.a.j.C.XX@X#X&X3XqXqXqX*X$X$XfX#.P.u 6 > w w w w 5 5 > w w w 9 - ",
"$ # % $ % $ $ $ & $ $ 5 5 > * S | | _ E Q H Y &.=.;.:.<.4.r.r.6.i.2.i.S.V.@X#X*XqX*X=X=X-X3XNX).< e w - & 9 > & w $ $ w & w w r ",
"$ $ $ $ $ $ $ $ $ $ > 5 5 5 5 p | o.| _ ~ / ! ^ =.;.>.>.2.6.q.q.q.S.3.) %.0.V.XXOX+X+XB.5XkXNXv.> w w w 9 w 5 9 w w 9 & 9 > w w ",
"& $ % & - w 1 w 5 w & 1 5 5 w & R c.| o.E ~ ! Y =.=.*.>.3.S.F.F.F.F.F.N.P ) p.k.f.B.1XgXkXNXdX  > w w - w w 9 $ w r > w $ w $ - ",
"1 5 $ $ $ & w > 1 $ $ w 5 5 e & p } c.@.o.~ ~ ^ =.-.;.2.S.5X5XiXiXpXiX2X$.Q i.k.B.fXkXlXNXlXz.> > w w w & w w w w w w 9 w $ $ w ",
"$ 5 $ $ $ 1 9 w $ $ $ w w $ w w & p } n.@.E ~ / / / =.2.$X5XsXiXpXpXpXaXN.) q.f.4XkXhXlXMXv.> - w w - w w w w w > 1 $ w w w $ w ",
"$ $ $ $ $ $ $ w 1 $ w w w > & 5 > > f } n.@.#.#.e.9.9.9.F.2XiXiXpXpXaXaX2X$.N.3XkXlXkXjXv.< w w w - w w w w t w $ $ w w w w w w ",
"$ $ $ $ $ 5 $ $ > $ $ $ 9 w w w > w & * } @.m.m.m.N.|.|.<X<X:X:XiXpXpXpXaXgXgXhXhXjX,Xx > > > w w w w w w w t w 1 w $ w w w w $ ",
"$ $ 5 $ $ - w w - 1 w 1 > & 5 w e w 9 9 : f } c.M._.).;X;X<X<X:XuXuXuXpXdXdXdXdX;X` < > w w w w w w w w w w w w - w w w w w $ $ ",
"$ $ w - w 1 w w w 5 $ $ w w w > w w w e w > , , l } c././.).).;X,X,X,X9X,X_.c.a , : > w w w w w w w w t w t w w w w w w t w w w ",
"w w w w w w w w w > $ 5 w r w 9 w 5 r e w e w w 9 e e , f l k z z a k < < < , e w t w w w t w w w w w w w w w 5 t w w w w t w w ",
"w w r w & w w w w 5 > 9 w w w w r r w t w w w w t > e , e e e , : e : , , , w t w w w w w w w w w w w t t w w w w w w w t r w w ",
"$ w w w w w w w w 9 w w t w w w w 7 r w t r w w r w w w r w w w 9 9 9 > w t w t r r t w e w > w t w w r w t t w w w w w w w t t ",
"w w w w w r w t w w w w w w t w w r w t r e w w w r w t r w w 9 r t t w w r r t r e 6 w w t e w r t e r t t r r w w w w t w t w ",
"$ - w w w w t w w w w t w w w r w e t w r r t w t w t w e w t r w w w w 5 e r r r r w r t w t t w w w w w w w e e w w r r t t w ",
"$ > w w w 9 w t w t r w w w t t w w w t r w t t t w t w t r w r w w w e w t r t t w w 6 t t t t w w w w w w w w r t w t t r r w ",
"$ $ 1 w 6 w w w w w t w t w w w > w w t r r t t w w t e t e w w w w e e t w w r w w r r t t r r t t t r w t t r t w w t w t e w "
};
