/* XPM */
static char *_680277460942[] = {
/* columns rows colors chars-per-pixel */
"64 64 236 2 ",
"   c #69593A",
".  c #6C643C",
"X  c #5D4F35",
"o  c #793D49",
"O  c #483769",
"+  c #4E3B73",
"@  c #4E4E4E",
"#  c #4F4F45",
"$  c #534D45",
"%  c #524D4E",
"&  c #5B4A4C",
"*  c #59474A",
"=  c #4E504E",
"-  c #44524D",
";  c #545244",
":  c #52514E",
">  c #5B534B",
",  c #5B5647",
"<  c #4E4E51",
"1  c #4F4C59",
"2  c #514E51",
"3  c #5A4A51",
"4  c #514C5A",
"5  c #584756",
"6  c #4D5151",
"7  c #455259",
"8  c #4C535C",
"9  c #495756",
"0  c #525252",
"q  c #585655",
"w  c #555558",
"e  c #5A5758",
"r  c #67484B",
"t  c #744B4E",
"y  c #6C4C52",
"u  c #644C5C",
"i  c #655953",
"p  c #775459",
"a  c #735455",
"s  c #49665C",
"d  c #736558",
"f  c #71694C",
"g  c #4E4864",
"h  c #524967",
"j  c #4A5864",
"k  c #574875",
"l  c #595977",
"z  c #515E64",
"x  c #7D5965",
"c  c #586864",
"v  c #526B71",
"b  c #686967",
"n  c #776965",
"m  c #797365",
"M  c #657A75",
"N  c #BD2B29",
"B  c #B5332A",
"V  c #9C313B",
"C  c #C93935",
"Z  c #C4302B",
"A  c #A3513E",
"S  c #C64331",
"D  c #983742",
"F  c #C43D41",
"G  c #82555A",
"H  c #995657",
"J  c #954A4C",
"K  c #A8484A",
"L  c #B74449",
"P  c #AA4C57",
"I  c #B74A54",
"U  c #B65459",
"Y  c #B45451",
"T  c #9D695B",
"R  c #B26C59",
"E  c #B65667",
"W  c #A95970",
"Q  c #876669",
"!  c #976867",
"~  c #877668",
"^  c #997969",
"/  c #856372",
"(  c #97677C",
")  c #9E7775",
"_  c #877B7B",
"`  c #A86868",
"'  c #A4766A",
"]  c #BB756C",
"[  c #B66779",
"{  c #A57979",
"}  c #BB7273",
"|  c #984F62",
" . c #C34B4B",
".. c #C74748",
"X. c #D64742",
"o. c #CC514D",
"O. c #D5534E",
"+. c #C74B52",
"@. c #C75457",
"#. c #D45453",
"$. c #DA5B56",
"%. c #D85857",
"&. c #E35C57",
"*. c #DC685B",
"=. c #CF7254",
"-. c #E4635E",
";. c #E6685C",
":. c #CA5563",
">. c #D65A67",
",. c #D55F71",
"<. c #DA6867",
"1. c #DA6775",
"2. c #CE7575",
"3. c #EA6562",
"4. c #ED6964",
"5. c #E66767",
"6. c #F26B65",
"7. c #F36D6B",
"8. c #F9746D",
"9. c #F4716A",
"0. c #E56A77",
"q. c #E67876",
"w. c #F57473",
"e. c #FB7673",
"r. c #FE7A75",
"t. c #F47D7C",
"y. c #FC7B7B",
"u. c #F77778",
"i. c #EA7569",
"p. c #648378",
"a. c #9E895A",
"s. c #AE885D",
"d. c #8D846D",
"f. c #9C8675",
"g. c #96846C",
"h. c #A8867B",
"j. c #AD9572",
"k. c #BAB07F",
"l. c #D0805D",
"z. c #D58261",
"x. c #CD8D6D",
"c. c #EC8677",
"v. c #FE837C",
"b. c #F5867A",
"n. c #EC9277",
"m. c #F19E7E",
"M. c #E6A57E",
"N. c #563AA1",
"B. c #4C3195",
"V. c #594A84",
"C. c #645490",
"Z. c #5E7A85",
"A. c #6A629C",
"S. c #9A6B81",
"D. c #B6758A",
"F. c #AF7588",
"G. c #D97D89",
"H. c #CB6F84",
"J. c #E97986",
"K. c #F47683",
"L. c #FC7D83",
"P. c #FD7F8B",
"I. c #F57A86",
"U. c #EA6F81",
"Y. c #758D8F",
"T. c #75A190",
"R. c #938C87",
"E. c #B99783",
"W. c #B3868B",
"Q. c #83A396",
"!. c #BFA999",
"~. c #B3A38A",
"^. c #8091A3",
"/. c #88A1AC",
"(. c #92B0B7",
"). c #DB8688",
"_. c #C99782",
"`. c #D98893",
"'. c #D1969C",
"]. c #C78892",
"[. c #E58587",
"{. c #FD8383",
"}. c #FD8A83",
"|. c #FF838B",
" X c #FE8C89",
".X c #F08980",
"XX c #FE938C",
"oX c #FD958A",
"OX c #F98993",
"+X c #E2979A",
"@X c #FC9592",
"#X c #FD9A94",
"$X c #F89997",
"%X c #E98E8D",
"&X c #C6A589",
"*X c #CEBE8C",
"=X c #DCB98B",
"-X c #CBB695",
";X c #D1AC89",
":X c #FAA187",
">X c #E7B487",
",X c #F6B789",
"<X c #FEA29C",
"1X c #F8AF9C",
"2X c #E7B892",
"3X c #FBB596",
"4X c #EBAE81",
"5X c #D69AA4",
"6X c #E59BA7",
"7X c #F399A4",
"8X c #D0A2A4",
"9X c #FEABA3",
"0X c #FFABA5",
"qX c #FFBBB4",
"wX c #EEA7AB",
"eX c #A2C8B9",
"rX c #99C4B3",
"tX c #EAC58E",
"yX c #EDCB93",
"uX c #EAC99A",
"iX c #F0C893",
"pX c #D2CAB7",
"aX c #E8CBA9",
"sX c #FCC9A8",
"dX c #EEDCB3",
"fX c #FEDBB3",
"gX c #FFCCB7",
"hX c #FCE9B8",
"jX c #99B9C9",
"kX c #AAC6D7",
"lX c #B3D9E9",
"zX c #D5CBC3",
"xX c #FED9D0",
"cX c #FDE8C3",
"vX c #FFF1CB",
"bX c #C2E2ED",
/* pixels */
"@ @ @ @ @ @ @ @ @ @ @ @ @ < < @ @ @ @ @ # @ 2 @ = = = : w w 0 0 w 0 q : 6 0 @ @ % 6 0 6 2 @ = : 0 6 @ @ @ @ 6 : < % @ @ < < = % ",
"@ @ @ @ @ @ @ @ @ @ @ @ @ < @ 2 @ @ @ @ @ @ 0 @ @ = = : < 0 @ : 6 q 0 0 w @ @ @ 0 6 0 0 < % = : 6 % @ 0 % = @ 6 6 @ 0 @ : @ @ 6 ",
"@ @ @ @ @ @ @ @ @ @ @ @ @ @ @ @ @ @ @ @ < 2 4 2 2 2 0 @ 0 6 @ @ 6 0 0 < % = = @ = 0 0 2 % @ = = @ 0 0 @ 2 @ @ @ @ @ @ @ @ @ @ @ ",
"@ @ @ @ @ # - @ @ @ @ @ @ @ @ @ < @ @ @ < 2 < 2 4 < % % : @ @ : : = 6 6 < = @ # : 0 4 2 % 2 % 6 @ @ @ 0 6 @ @ @ @ @ @ @ @ @ @ @ ",
"@ @ @ @ @ @ @ @ @ @ @ @ @ @ @ @ @ # @ @ 2 < @ # @ = @ 2 @ @ 6 0 @ = @ q 6 < @ = 2 w @ 0 @ 2 < 6 < 0 : 0 < @ @ @ @ @ @ @ @ @ @ @ ",
"< @ @ @ @ @ @ @ @ @ @ @ @ @ @ @ @ @ @ @ < @ @ % $ $ % 2 0 0 0 0 = = = : 6 6 % @ 2 0 6 : @ < 2 6 < @ < 0 0 = @ @ @ @ @ @ @ @ @ @ ",
"@ @ @ @ @ @ @ @ 6 @ % @ @ @ @ < @ @ @ @ @ 6 6 % r a % 0 @ : 0 0 6 c Y.p.9 6 6 0 % 0 : 0 : = = = 6 6 @ = @ @ < % @ @ @ 0 @ < 0 @ ",
"@ @ @ @ @ @ @ @ @ 0 < @ 2 @ 2 @ @ @ @ @ = 0 < r D } y 0 0 6 0 = 8 c p.(.M : : % % 0 2 0 @ = = 6 0 : % @ @ @ : 6 : < = 2 = : @ < ",
"@ @ @ @ < @ @ @ @ 0 @ @ @ @ @ @ 2 0 @ = % @ 3 r V :.t 0 0 0 : : : 9 c b 6 : & & % 2 2 % @ : 6 = @ @ @ 0 0 0 @ 0 @ @ % @ 6 @ @ @ ",
"@ @ @ @ = @ @ @ @ @ 0 @ @ @ 0 < % @ < @ @ 0 & r D P r 0 0 4 w 4 = = = 6 : % Q h.d 3 % 0 = @ @ < @ @ @ 0 @ @ 0 @ @ @ 6 = % @ @ @ ",
"@ @ @ @ < @ @ @ @ % 0 @ @ 0 0 @ @ = @ @ 0 < % & r r % 4 < 4 k g w = = = @ r ! '.8X~ % : @ % : 6 @ @ @ = < @ @ 0 @ @ @ % @ @ @ @ ",
"@ @ @ @ : @ @ @ @ 6 0 = @ 0 0 @ @ : = % < 2 < % 3 * < < 1 g N.C.g 6 0 = @ & t H ! r % @ < 2 2 @ 0 0 0 @ @ 0 0 0 @ < = < @ @ @ @ ",
"@ @ @ @ : @ @ @ @ 0 0 @ 0 0 0 @ < @ @ @ @ < @ < % : 6 6 4 O B.A.k h 1 @ @ : & & * & % @ @ % @ 2 0 0 0 2 @ 0 0 0 0 = : < @ @ @ @ ",
"- # @ @ < @ @ @ @ % 0 @ @ 0 0 @ - @ @ @ @ @ < 6 8 6 8 8 8 k B.N.C.h < 2 @ : @ < 6 < @ @ @ < @ % 0 0 0 0 0 0 0 0 % < @ @ @ @ @ @ ",
"@ @ @ @ @ @ @ @ @ @ @ @ @ 6 0 @ @ @ @ < @ < 8 7 v Z./.z < g + O l 1 4 0 @ % : 0 < < @ 0 6 = = = @ 0 0 = @ @ @ @ 0 6 = @ @ @ @ < ",
"@ @ @ @ @ @ @ @ @ 6 @ @ @ % 6 @ @ @ @ @ @ < j Y.kXlXbXY.< 2 h g g 1 e n q : : : = : ; $ , ; : = @ = @ 2 @ @ @ @ 0 0 < @ @ @ @ = ",
"@ @ @ @ @ @ @ @ @ @ @ @ @ 6 < 0 @ @ < @ < 7 j ^.kXjX/.z 8 < < < < 0 _ zXzXm @ # ; ; . a.*X. # @ < @ @ @ @ 0 @ @ @ @ @ @ 0 2 @ 0 ",
"@ @ @ @ @ @ @ @ @ @ @ @ @ @ @ @ @ @ @ @ < < g z v j j 1 6 < @ @ < 0 p R.-XzX% @ = f s.j.*X. ; @ : @ @ @ @ = < @ @ @ @ @ @ @ @ @ ",
"@ @ @ @ @ # @ - @ @ @ @ @ @ @ @ @ @ @ @ 6 6 6 1 7 < 6 @ 4 : @ # < @ @ % M b @ % ; m j.a.f # : : @ @ @ @ @ 0 = @ @ @ : = @ @ @ @ ",
"@ @ @ @ @ @ @ @ 0 0 < : @ % @ @ @ @ @ @ 6 = ; # # @ @ = 6 6 9 c 6 - < < 2 5 @ 2 $ ;   X $ @ % % @ @ @ @ @ 0 2 @ 0 @ < @ @ @ @ @ ",
"@ @ @ @ @ @ @ @ 0 @ 0 < @ @ @ @ @ @ @ @ : ; . . , # = = - 7 M rXp.- - = @ @ % @ : % ; ; @ @ @ @ @ @ @ @ @ < < @ 0 = : < @ @ @ @ ",
"@ @ @ @ @ @ @ @ @ @ @ @ @ @ @ @ @ @ @ @ = , k.hX~.# = = 6 - s T.eXc - @ @ @ @ @ : 0 0 < @ @ @ @ < @ @ @ @ 0 @ @ @ < @ @ @ @ @ @ ",
"@ @ @ @ @ @ @ @ @ @ @ @ @ @ @ @ @ # @ @ 6 > d.j.m # @ = 6 9 - c Q.Y.- @ @ @ < 6 6 < 0 < < @ @ @ @ @ @ @ @ @ < @ @ @ @ @ 0 @ < = ",
"@ @ @ @ @ @ @ @ @ @ @ @ @ 0 < 2 @ @ @ @ : # ; # $ @ 4 1 6 = 6 - s 9 - @ @ @ = 6 8 j c 6 @ @ @ @ = @ @ @ @ 0 : @ @ @ @ @ @ @ @ 0 ",
"@ @ @ @ # @ @ - @ @ @ @ @ 2 @ @ @ @ @ @ % % % % % 1 k g < @ < = # = @ 6 0 @ 6 7 Z.T.kXj 7 7 @ < 0 0 : @ < @ 0 0 @ @ @ @ < @ @ @ ",
"@ @ - @ # O @ # @ @ @ @ @ < @ @ @ @ @ # @ @ 6 < 1 h V.k 1 % @ @ @ @ < < % 4 < v jXkXjXg - @ @ @ 0 6 @ @ @ @ @ @ @ @ @ @ @ 0 @ 0 ",
"- # * - * - # # @ @ @ @ < % @ @ < @ @ @ @ # @ 4 h O + k 1 @ : : = : @ @ @ @ 8 Z.jXY.7 < @ @ @ @ @ @ @ @ @ @ @ @ @ @ @ @ : < @ @ ",
"# # # O # - # O @ @ @ @ @ < @ @ @ 1 < @ @ @ @ 4 h O k h 4 2 @ % : # @ @ @ 2 1 w j 7 < 2 @ @ 1 @ < @ @ @ @ @ @ @ @ @ @ @ @ @ @ 0 ",
"# O - @ @ @ * - @ @ @ @ @ @ @ @ @ @ @ @ @ - @ 5 % 5 1 5 5 @ & % n R.3 2 @ < < < < 6 < @ = @ @ < % % = 6 @ @ < @ @ @ @ @ 6 6 @ % ",
"# # # # @ @ @ - @ @ @ 1 < @ @ @ @ @ @ @ @ * * * o * y a t a p p !.xXp p y * & * % 3 0 2 = : 6 0 = < @ 0 @ @ @ @ @ @ @ @ % @ @ 6 ",
"- @ @ # @ @ @ # @ @ @ @ @ % @ @ @ @ @ @ @ * t G ` 2.G.[.[.[.)._.xX+X).).H.[ ` p i 3 % 2 @ = @ @ @ @ @ % @ @ @ @ @ @ @ @ < = : < ",
"# @ # O @ @ @ @ @ @ @ @ @ < @ @ @ * * * y ( H.`.G.J.J.t.L.u.t.q.n.q.i.0.q.J.[.`.H.) p & * % 2 @ @ @ @ @ @ @ @ @ @ @ @ @ = % 6 @ ",
"@ @ @ @ @ @ @ - @ @ @ @ @ @ @ @ 1 1 p F.`.[.J.t.t.{.v.}.v.8.b.b.i.4.3.-.-.>.0.0.J.%X6XF.y * @ @ @ @ @ @ 2 < = 6 % = : : : @ 6 < ",
"5 @ < < @ @ @ @ @ @ < @ @ @ @ % 5 S.H.H.J.L.L.L.v.}.}. Xb.b.b.6.3.&.O.O.#.#.>.,.0.J.P.6X'.x * @ @ @ < @ < 6 = = @ = @ = 6 2 < 2 ",
"@ @ @ < < < @ @ @ # @ @ @ < 1 5 / D.H.G.J.P.K.P.|. X#X0X:XoXb.6.&.X.X.X.F +.>.,.0.U.I.OX7X6X/ 5 % @ @ < < @ = @ @ @ @ % 6 = = 6 ",
"@ @ @ @ @ < @ @ @ @ % % < < 1 x D.H.1.0.K.P.P.P.{. XoX1Xn.i.=.O.X.C C C F F >.0.U.K.L.P.P.6X5Xx * @ @ 5 @ @ @ @ @ @ @ = 0 0 0 : ",
"@ @ @ @ < < < @ @ @ 2 @ < 5 u F.[ E ,.1.0.L.P.P.L.L.}.b.z.=.B S C Z N N F F ,.K.I.I.L.|.|.OXwX].r < 0 @ @ @ @ @ @ @ @ : % 0 6 6 ",
"@ # @ @ < 2 2 @ % @ @ % < 2 x F.W :.>.>.5.0.u.K.L.y.v.b.m.n.O.S Z N N N +.5.I.K.K.L.L.L.|.OX7X6XQ 3 2 < 0 2 @ @ @ @ 6 6 6 % 6 : ",
"@ @ @ @ @ @ < @ % = @ 2 @ 5 S.W E :.@.%.>.5.5.7.7.w.y.t.b.c.w.4.3.3.7.u.e.L.K.P.{.b.v.{. X XOX$XW.3 % : % @ @ 0 @ @ = 6 = 0 @ = ",
"@ @ @ @ @ @ @ @ 6 = % @ < 1 S.W P I @.+.%.>.-.5.4.7.7.w.u.w.w.e.u.e.u.u.u.u.u.L.v.}.}.XXXXXXOX$X'.3 % : 2 0 0 0 @ @ : 6 2 @ 2 = ",
"@ @ @ @ @ @ < 4 @ @ @ @ = & S.W P I I o.#.%.*.-.3.4.7.7.9.8.8.r.e.e.y.y.v.v.v.v.oXoXoX#X#X#XXX$XwXp % = 2 0 6 % @ @ @ 0 % 0 @ @ ",
"< @ @ @ @ @ @ < @ @ @ = % 3 ( W U :.@.L +.#.$.$.-.3.4.9.9.8.8.r.e.y.y.y.v.v.}.oX<X1XqX0X<X$XXX$X6Xp & 0 2 % 0 = @ 0 6 % 2 @ @ @ ",
"@ @ @ @ @ @ @ @ - @ @ @ = & ( | J K L L  .o.O.%.-.-.3.4.6.9.8.8.r.v.v.}.v.oXoXoX$X9XqXgXqX$Xc.c.5Xx & : @ 2 @ 0 0 : 6 0 % @ @ @ ",
"@ @ @ @ @ @ @ @ @ @ @ @ @ * p o H K K K A  .o.o.#.-.-.3.4.4.9.8.r.v.v.v. XoX#X<X<X<X<X9X0XoX2.Y '.y % = 0 % < @ 6 0 0 2 2 @ @ @ ",
"@ @ @ @ @ @ @ @ @ @ @ @ @ * & G T T H K L F ....#.&.&.5.4.;.6.9.8.r.v.}.oXXX#X<X9X9X0X<X$X$XsX` S.r 2 6 @ @ @ @ @ 6 6 : 2 0 6 0 ",
"% < : 6 @ @ @ @ % @ @ @ @ 0 % d ^ ^ T H K L ....o.#.%.&.;.;.;.6.;.i.i.i.b. XXX<X<X<X#X%X.X1XcX&X, & 2 @ = @ @ @ @ = : 0 0 0 0 0 ",
"@ @ : 2 = @ @ # @ @ < @ = = : i ^ g.^ T P L L .. .#.$.$.*.;.=.z.l.l.=.R Y <.v.v. X X.Xn.2XcXvXd.: 0 0 6 % 2 % @ @ @ 6 0 0 0 0 : ",
"@ @ @ 0 = @ @ @ @ @ < < 6 : : i d ^ ' ! P K L I +.o.#.$.*.n.M.M.>X>X=Xl.K Y w.v.t.c.:XgXhXvXpX, > : 0 0 0 2 0 0 0 6 = 0 0 6 0 < ",
"@ @ @ - @ @ @ @ @ @ 0 @ 0 @ : : & ~ f.' T K I I +.+.:.$.n.,X,XtXiXiXiX2XR A i.w.n.sXhXvXhXhXm : : 0 : 0 = 0 @ @ 0 < @ < : 0 0 0 ",
"@ @ # @ @ @ @ @ @ @ @ 0 @ 0 0 0 % i ^ h.{ H P P U I @.<.m.,X>XyXyXiXiXiXM.A <.q.3XhXhXhXcXf.; : 0 0 0 6 2 0 @ 0 0 0 0 = 6 % 0 0 ",
"< @ @ @ @ 0 0 @ @ < 0 @ 2 6 0 : 0 q i ~ h.{ ` } 2.] R R m.>XtXtXyXiXyXiX=Xs.x.1XfXhXhXdXd.= : 0 0 0 : 0 = 0 @ 0 0 q = 2 0 < 0 6 ",
"2 < @ @ @ @ 0 0 @ @ @ 0 = % 0 6 0 0 > > Q f.h.x.E._._._.;X=X*X=XtXyXyXuXuXiXsXfXfXdX-Xf ; 0 0 0 0 0 0 6 0 0 0 0 0 0 0 0 @ = % 0 ",
"@ % @ @ @ 2 0 0 < @ @ 0 0 0 0 @ : 0 0 % % u ~ h.h.E.E.&X;X;X=X=X=X=XtXuXaXaXaXaX-X~ ; : q 6 : 0 0 0 0 0 0 0 0 0 : < @ 0 0 0 0 = ",
"@ @ @ @ @ @ @ @ @ @ 0 @ % 6 0 0 : = 6 < 0 2 % ; a ~ f.E.E.E.&X&X-X-X-X-X-Xj.g.f ; ; : q 6 0 0 0 6 : 0 0 0 0 0 0 @ @ 0 0 0 0 0 0 ",
"@ @ @ @ @ @ @ 0 : < @ 0 @ 0 0 @ : : 6 : 0 q : : : : ; ; i i i d d i i q ; ; > > : q : : 0 : 0 0 0 6 0 0 0 0 0 0 < : @ 0 0 0 0 @ ",
"< @ @ @ @ < 2 0 @ = 0 @ 0 @ 0 0 0 0 = 6 : q q = = = w q 0 = : : q : 0 : q 0 0 0 0 6 : 0 : 0 0 0 0 : 0 0 0 0 w q 6 0 0 0 0 0 @ @ ",
"= = 0 0 0 6 0 0 0 0 @ < 0 0 0 = q : 0 0 q 0 = 0 0 0 0 0 6 q 6 q : 6 : w 0 0 0 q 0 : 0 0 0 0 0 2 6 q 6 q q w 0 0 0 0 0 0 0 0 0 = ",
"0 0 0 0 0 = 0 0 0 @ @ = 0 q 0 0 0 6 0 q q 0 q : q 0 w w q 6 q 6 : 0 0 0 0 q 0 0 0 : 0 0 0 0 0 6 6 0 0 q 0 0 0 6 w 0 0 q w q 0 0 ",
"0 0 0 0 : 0 : 0 0 @ 0 2 0 0 0 0 q q 0 q 0 0 0 0 0 0 0 0 0 6 q 6 0 0 0 0 = q w w w q 0 0 q : 0 0 0 0 q 6 0 q 6 0 0 0 0 0 q w w 0 ",
"@ 0 0 0 0 0 6 q 0 0 0 0 0 0 0 0 9 6 q 0 q 9 q 0 q 0 q 0 q q 6 q w 0 q : 0 q w w q 0 0 q 0 q 0 0 w 0 6 q 0 q q 0 0 0 0 0 0 w 0 q ",
"6 0 0 0 0 0 w q 0 0 0 6 w q 0 0 0 0 q q q q 0 0 : 0 w w 0 0 0 : q q 6 0 0 : w w q 9 q 9 9 q w 6 q q q 8 q 0 w q 0 6 0 0 q q q 6 ",
"% 6 0 0 0 0 0 w 0 6 q q 0 0 0 w 0 0 9 q 6 q q q 0 0 q q q q q 0 6 0 q = q q q q q q 6 q q q q w 0 q 0 : w 0 q 0 0 q 0 0 w q q q ",
"@ 2 0 0 0 0 0 0 0 0 q 0 0 0 q w 0 0 6 q w w w q q 6 0 q w w 6 q 0 6 q q 0 q q q q 6 9 0 q q w w q 6 q = 0 0 6 q w q 0 q 9 q 6 q ",
"@ @ @ 0 6 0 0 q 6 q q w 0 0 0 q 0 0 w w w q w w 9 q 6 q 9 q q q 6 q 9 q q 0 q 0 q q 0 q q q w w q q q q 9 q q q q 0 q w w q q 6 "
};
