/* XPM */
static char *_680277363403[] = {
/* columns rows colors chars-per-pixel */
"64 64 236 2 ",
"   c #56513A",
".  c #4E4C3F",
"X  c #493B5C",
"o  c #493B6C",
"O  c #3F544F",
"+  c #4E4E4E",
"@  c #4E4D44",
"#  c #524E44",
"$  c #514D4E",
"%  c #5B4B4D",
"&  c #5D464A",
"*  c #4E504F",
"=  c #47534E",
"-  c #545244",
";  c #5D5545",
":  c #52514D",
">  c #5C534C",
",  c #5D5843",
"<  c #4E4E51",
"1  c #4E4B5B",
"2  c #514E51",
"3  c #5A4C53",
"4  c #514C5D",
"5  c #584659",
"6  c #465255",
"7  c #4D5151",
"8  c #495459",
"9  c #515151",
"0  c #5A5352",
"q  c #555856",
"w  c #565659",
"e  c #535D5C",
"r  c #595959",
"t  c #624A4C",
"y  c #67474B",
"u  c #645748",
"i  c #725E4A",
"p  c #664B54",
"a  c #754C54",
"s  c #685654",
"d  c #775559",
"f  c #75474D",
"g  c #4D6359",
"h  c #78674C",
"j  c #68615B",
"k  c #74655A",
"l  c #6E674E",
"z  c #4F466A",
"x  c #524B63",
"c  c #52476A",
"v  c #495864",
"b  c #544F72",
"n  c #775963",
"m  c #576766",
"M  c #587469",
"N  c #556B71",
"B  c #6C716F",
"V  c #A71E25",
"C  c #BB2C2D",
"Z  c #BD3734",
"A  c #B7392A",
"S  c #C93835",
"D  c #A14C38",
"F  c #CD4338",
"G  c #953641",
"H  c #884149",
"J  c #9F494B",
"K  c #98514D",
"L  c #905857",
"P  c #A94648",
"I  c #B8444A",
"U  c #BE5A4D",
"Y  c #A84A54",
"T  c #BA4A55",
"R  c #AB5351",
"E  c #9E665C",
"W  c #84795C",
"Q  c #B96C5B",
"!  c #815D6E",
"~  c #9B5967",
"^  c #B55664",
"/  c #A8576D",
"(  c #986768",
")  c #877767",
"_  c #99776A",
"`  c #986776",
"'  c #837976",
"]  c #987975",
"[  c #8A6670",
"{  c #A37768",
"}  c #A46975",
"|  c #AA7B75",
" . c #B97376",
".. c #B06B6C",
"X. c #CB4D4D",
"o. c #C6474A",
"O. c #D64842",
"+. c #CB574C",
"@. c #D8524F",
"#. c #C64D53",
"$. c #CA5357",
"%. c #DB5A56",
"&. c #D75756",
"*. c #E45E5B",
"=. c #E65B55",
"-. c #E4574D",
";. c #DB6558",
":. c #CA6D5B",
">. c #E7645D",
",. c #C55563",
"<. c #D55A67",
"1. c #C25C72",
"2. c #E35E66",
"3. c #C26868",
"4. c #D96367",
"5. c #DA7663",
"6. c #D56475",
"7. c #C1796A",
"8. c #EB6662",
"9. c #ED6A64",
"0. c #E66666",
"q. c #F26D6B",
"w. c #F46E63",
"e. c #E7746A",
"r. c #F5736C",
"t. c #F7766C",
"y. c #E56B79",
"u. c #F16D76",
"i. c #E67976",
"p. c #FC7672",
"a. c #FD7A75",
"s. c #FB7C7B",
"d. c #F77879",
"f. c #6A8A7C",
"g. c #A89257",
"h. c #8C866B",
"j. c #998575",
"k. c #A4847A",
"l. c #B29076",
"z. c #BAAA6D",
"x. c #95894F",
"c. c #CB937A",
"v. c #CA876F",
"b. c #EC8877",
"n. c #F5827B",
"m. c #FE837B",
"M. c #F78678",
"N. c #F18F77",
"B. c #E6A87D",
"V. c #4B2E88",
"C. c #523A8C",
"Z. c #5F3EA7",
"A. c #594A85",
"S. c #64528D",
"D. c #687B8E",
"F. c #6F57AF",
"G. c #9D7285",
"H. c #B1798A",
"J. c #C77687",
"K. c #D57C8D",
"L. c #C06B82",
"P. c #E87886",
"I. c #F47984",
"U. c #FB7D83",
"Y. c #FE7F8B",
"T. c #F57884",
"R. c #748895",
"E. c #768E8A",
"W. c #7896AB",
"Q. c #B59A84",
"!. c #AF978F",
"~. c #83AB9D",
"^. c #B1A588",
"/. c #839BA7",
"(. c #9DBDAF",
"). c #AAB1B0",
"_. c #D58B8D",
"`. c #C99785",
"'. c #CB959C",
"]. c #C8858E",
"[. c #E28289",
"{. c #FE8583",
"}. c #FE8C85",
"|. c #FE858C",
" X c #FD8D8B",
".X c #F58982",
"XX c #FD938C",
"oX c #FD9587",
"OX c #F78C94",
"+X c #FE9491",
"@X c #FE9994",
"#X c #FE9E9A",
"$X c #F69898",
"%X c #E98E8D",
"&X c #C6AC8C",
"*X c #D8B78A",
"=X c #C9B598",
"-X c #DBAF90",
";X c #E8B585",
":X c #FEA09C",
">X c #F6AE96",
",X c #FAB79D",
"<X c #F7B18B",
"1X c #D898A4",
"2X c #EC98A5",
"3X c #F29DA5",
"4X c #DDA1A8",
"5X c #C9A2A3",
"6X c #E5A1AC",
"7X c #FEA5A1",
"8X c #FFADA5",
"9X c #FFB5A9",
"0X c #FFBCB5",
"qX c #9AC3B1",
"wX c #DBC497",
"eX c #E9C48C",
"rX c #EDCB99",
"tX c #E9C995",
"yX c #F3CA99",
"uX c #E6CCA2",
"iX c #FFD4AB",
"pX c #F9DCB5",
"aX c #F0CFAA",
"sX c #FDE7BB",
"dX c #FAEBB3",
"fX c #D4CBAE",
"gX c #96BCD1",
"hX c #A1B4C2",
"jX c #A6D1E8",
"kX c #A8D5ED",
"lX c #BEE3F3",
"zX c #D7CDC6",
"xX c #FFCDC4",
"cX c #FCE8C3",
"vX c #FFF2CC",
"bX c #F9E0D9",
/* pixels */
"+ + + + + + @ @ + + + + + 7 * < + @ + + + < $ * + + : 7 9 9 9 9 9 r 9 9 9 9 * 2 9 9 9 : + < * 9 9 9 + + + + 9 9 + + 9 + + + 9 + ",
"+ + + + + = < X < + + + + + + 9 + + + + < < 9 9 + < $ 9 9 9 9 9 9 9 9 9 9 9 + * + 9 7 9 * $ + 2 2 * $ + + + + + * 2 + + 7 $ * + ",
"+ + + + + + + < + + + + + + + + + + + + + < 7 7 7 9 7 : 9 + + * 9 9 9 9 2 * 9 + 9 9 9 2 + + 7 * * < 7 9 9 + + + + + + + + + + + ",
"+ + + + + + + @ + + + + + + + + < < + + < + 2 + + $ + < + + 9 + 9 9 + + + 9 + + + 9 9 9 2 * $ 9 $ * $ 9 + + + + + + + + + + + + ",
"+ + + + + + + + + + + + + + + + + @ + + + + + + + + + * 2 9 9 9 + + + + * * $ 7 9 9 9 9 * < + < * < * 9 9 + + + + + + + + + + + ",
"+ + + + + + + @ + + + + + + + + + + @ < + + + + + + + + + 9 9 9 + 2 * + 2 + $ 9 + 9 : 7 $ : + 9 + : 2 9 9 + + + + + + + + + + + ",
"+ + + + + + + + + + + + + + + + + + + + 2 7 9 + + + + < 9 9 9 9 9 * : < 2 7 7 9 9 9 9 9 7 + 7 : 9 : + + + + $ + + + 2 * * + + 2 ",
"+ + + + + + + + 9 9 7 $ * $ 7 + + + + + : 9 9 9 : 9 9 9 9 9 9 9 9 9 9 + 9 : 7 $ + 9 9 9 7 $ $ 7 9 < 7 + + + 7 9 + 9 + 7 $ 2 * + ",
"+ + + + + + + + + + $ + + + + + 9 + + + < : + * 9 9 9 9 9 9 9 9 + $ 7 + < 9 + 9 + $ 7 + $ 7 + $ + + 7 9 9 9 9 $ + + : + < + + + ",
"+ + + + + + + + + 9 7 + + + 9 7 + * < : 7 + 2 * 9 9 9 9 9 9 9 9 $ 7 7 $ $ 7 9 9 + * 7 $ * + $ 7 + + $ 9 < : 7 7 + + < + : + + + ",
"+ + + + 9 + + + + < 9 + $ 9 9 + 7 $ + $ $ $ * * 9 + < + 7 $ : + * + $ 7 + : 9 * $ + + $ * 2 + < + + + + + $ 9 9 + + + + + + + + ",
"@ + + + + + + + + + 9 : 7 9 9 + $ * < + + 7 < $ 7 : : 9 7 9 9 < * * 7 $ + 9 + 9 7 7 $ 7 + + 9 : 9 9 9 * + 9 9 9 + + + 9 + + + + ",
"@ + + + 7 + + + + 9 9 + 9 9 9 + + + + + + + + + 9 + 9 7 + 7 $ + * 7 * * : 9 + < + : 7 + $ 7 7 + 9 9 9 9 + 9 9 9 9 * + + + + + + ",
"+ + + + $ + + + + 7 9 + + 9 9 + + + + + + + + + 2 9 9 9 2 < 9 9 + 9 * * * * 9 9 + < $ 7 : + $ + 9 9 9 9 9 9 9 9 + 2 * + + + + + ",
"= + + + + + + + + + + + + 9 9 + + + + + + + + + + * + + + + + + * + 9 * 7 9 : : : * $ $ < < + * : 7 9 9 + + + + 9 9 < + + + + + ",
"X + + + + + + + + + + + + $ 7 $ + + + + + + + $ & t % + + + + + * e B m 7 9 * 7 < + 7 + + : * 2 + $ + 7 + + + + 9 9 + + + + + + ",
"@ + + + + + @ = + + + + 7 $ + 9 + + + @ < 2 + & H | p + 9 * + + * B f.(.B * + # 9 9 + 1 + + + + < + + + + 9 + + + + + + 7 7 + 9 ",
"+ + + + + + @ + + + + + + + + + + + + + + 2 + y G ^ f + 9 7 + < = e M f.g $ & & # $ $ 2 + + < < + + + + + 9 + + + + + + + $ $ + ",
"+ + + + X = < + + + + + + + + + + + + + 2 $ $ y G Y y $ 9 < < < + * * 6 @ & ! ( a & 2 < 9 $ 9 9 + + + + : 7 + + + + 2 $ + + + + ",
"+ + + + @ + + + 9 $ 7 2 + 7 + + + + + < 2 $ $ y G H & < 1 w x 1 < + $ $ 9 % ( 1X5Xk # $ 2 9 : 9 + + + + < : < + 9 + + * + + + + ",
"+ + + + + + + @ 7 $ 7 : + + + + = + + + < 2 $ $ & & # < x z A.A.1 < + 2 + # d ( G.s 0 2 + + + + + + + + + + + + 9 + + + + + + + ",
"+ + + + + + + + + + + + + + + + + + + + $ $ 2 + + + < < x o C.F.b 1 < + $ # & t % > 3 + : + @ + + + + + + 7 9 + + + 9 + + + + + ",
"+ + + + + + @ < + + + + + + + + + + + + : * $ < < < + 9 1 z V.Z.S.z 1 + $ $ $ $ > : 7 9 + + + + + + + + + + + + + + + + + 7 + + ",
"+ + + + + + + + + + + + 2 + 9 9 + + + + $ 7 < 6 v m R.v 7 x C.V.S.c < + + $ $ < 2 : : $ @ + + + $ + + + 9 9 + + + + + + 9 $ + 7 ",
"+ @ < + < < + + + + + + $ * + + + + + + + < v D.gXkXlXW.6 1 4 x 1 2 # s : @ + + 2 2 $ - -   * + 9 9 < + + * < 7 + + + + + * $ * ",
"+ = + + < + @ + + + < < 7 + + + + @ + + < < v W.jXjXgXN 7 7 + $ + $ /.zX).l + + # #   ) ^., - * 9 9 + + + + $ + + + + + + < : < ",
"= @ X @ < + + @ + + < < $ * + + + < + + + 6 v B R.v 6 6 * : = - + $ B !.zXzX# 2   i x.z.wXl . @ + + + + + + + + + + + + $ * + < ",
"X = + @ + @ = . + + + + < + + + + < < @ + @ 1 7 6 < < + * * = = * $ & 0 ) B $ $ u W g.g.h   . = * + + + + + + + + + + + 7 < + : ",
"@ @ X @ + + = X + + + + + + + + = + + + + @ * * < + = < < = O = * + $ $ 3 $ + : : > l   # # : + $ * + 9 + + + + + + + + $ 7 $ + ",
"+ + @ + + + + + + + + + 2 + + + + + + @ + @ , u % @ @ + + + f.qXM = + + 2 < : + # : : % $ : + + 7 $ : < + + + + + + + + * + + 9 ",
"+ + + + + + + @ + + < + + + + + + + + X + ; z.dX^.. @ + + + v W.qXg 7 7 + < + + + * + + 7 + $ + + + + 7 + + + + + + + + * $ + 7 ",
"+ + @ 6 + + + = + + + + + 2 + + + @ + + + - x.z.h.. @ + + 6 O M ~.E.= < 9 < + + + 6 7 < + < + $ + + + + + + + + + + + + $ 7 + $ ",
"+ + + + + @ + @ + + + + + + + + + + < + $ -   . # + < 2 * 9 = 6 M g = + < < + 7 6 6 v 6 + + + + $ + + + * $ 7 9 * + 9 2 * + 7 + ",
"+ + + + + + + + + + + + + + + + + + + + + + + < 2 4 1 c 9 9 : + * * + + + + 1 8 v /.).v + = + + $ $ + + + < + $ + < + 7 9 $ $ + ",
"+ + + + + + + + + + + + + + * + + + + + + + < < 1 z A.A.1 < + + + + + + + < 8 N gXjXhX8 < + + $ + + + + : + + + + + + : : + 9 7 ",
"+ + + + + + + + + $ + + + + + + + + * * 2 7 2 < x X o b x 9 $ + + + + + + + 1 D.gXW.v < 6 + + 9 2 + + + + + + + + + + + < 9 9 9 ",
"+ @ @ < + $ + + $ $ < + * * 7 * + 7 7 + + + + < x X o x 1 7 9 $ + + + $ @ 1 < w v 8 7 7 9 9 9 < 2 < : 7 + $ + + + + + 9 9 9 9 + ",
"+ + + + + + + + < $ 2 + * * $ * + + + + < + + < 5 5 5 % p 0 % $ s ' % # $ # $ < + < $ + + 2 7 9 9 $ 2 7 9 7 < * + + + + + 9 * 9 ",
"< + + + + + + + $ 2 + < $ < $ < 9 + + + < + # $ 5 t a a a H y f !.bXk a t & 3 2 2 < + + 9 9 < < 7 9 7 2 $ $ 7 $ + + + 9 9 7 $ < ",
"+ + + + + + + + < + + + + < $ $ 9 : $ $ & & p a ( } J._._._._.`.cX6X_.]. .} [ a y % # # $ < + < + $ + : 7 9 9 9 + + 9 < : $ * + ",
"< < + + < < < 7 + < + * 2 $ 2 2 + $ 5 t a } J.[.P.P.b.d..Xi.b.b.XXi.5.y.y.P.P.[.H.` a 5 3 < < < 9 9 9 : + 9 + + + + + 9 9 9 + + ",
"< + + + < < + < + + + + : 7 < < 2 3 p G.].K.P.I.s.m.{.m.m.m.M.t.r.9.>.0.2.2.y.P.P.2X1X` p & $ < 9 9 7 9 9 7 9 9 $ 7 7 $ + + + + ",
"+ < + + + + + + + + + + < < < 2 5 [ H.J.P.I.Y.Y.{.{. XXX}.{.m.t.>.*.-.@.@.<.<.6.P.P.OX2X].d & 2 $ 9 9 9 2 + 9 : 9 9 9 9 + + + + ",
"+ + + @ + + + + + + + + + < < $ n H.K.P.I.|.T.{.{. XXX8X@XoXm.w.=.O.O.O.S o.<.<.6.P.T.OX2X1Xn t $ 7 9 9 + + < + 9 9 * 9 < + + + ",
"+ + + + < < + + @ + + + # 5 X n H.L.6.P.P.Y.Y.|.|.{.XX8XN.N.>.-.O.S S S S #.<.P.y.T.I.|.OX3X'.a % $ + 2 + + + + + + $ 9 9 9 9 9 ",
"+ + * 9 < < * + + + + + < X p G. .1.1.4.u.I.Y.|.U.{.}.b.e.+.A F S S C C S o.<.T.T.T.U.{.|.OX3X!.% 2 < $ + + + + + + 9 9 9 9 9 9 ",
"+ < 9 * < * * + @ + + + 2 3 n G./ ,.<.4.2.u.u.T.d.s.m.M.N.N.;.A S S C V o.2.T.T.T.U.U.{.|.OX$X6Xn 9 9 2 $ * 9 + + + 9 9 9 9 9 9 ",
"+ $ + 9 + * + + + + + 1 < 3 ` G.^ ,.$.<.<.2.0.u.u.d.a.m.N.N.e.>.=.>.8.p.T.T.u.T.U.U.U.{. XOXOX3X!.3 9 9 9 7 9 9 9 9 9 9 9 9 9 $ ",
"+ + @ @ + + + + + + 9 2 1 3 [ / ^ T #.$.<.&.0.0.q.q.q.u.t.t.p.p.a.s.p.a.s.a.s.m.m..X}.}.XX+X X3X].p 2 9 * $ 7 $ 9 9 * 7 9 9 9 9 ",
"+ + + < + + + + + + 2 9 9 3 G./ R T #.#.$.&.;.>.0.9.q.q.q.t.p.p.p.a.a.m.s.m.m.m. XXXXX@X+X+X X$X1Xs 3 $ 9 9 : 7 9 9 9 7 : 9 9 9 ",
"< + + < * 7 : 9 + + 9 9 1 5 [ / ^ $.$.X.X.+.%.%.>.8.9.w.r.r.t.t.a.a.m.m.m.{.}.XX#X8X9X7X:X@X+X$X6Xd % * 9 9 9 9 9 9 9 9 9 + 9 7 ",
"+ < + + + 9 2 2 + * + + 7 5 [ ~ J P P P o.X.+.%.%.8.8.9.w.t.t.t.a.m.m.m.{.oXXX+X#X8X0XxX0X@Xi._.1Xa 0 : 9 9 7 9 9 9 9 9 2 + 9 9 ",
"+ < + + + + 2 9 : + * * : : n f K K P P I o.X.&.%.*.0.8.8.w.t.t.p.m.m.m.oXXX+X#X7X7X7X7X9XXXQ Q 5Xp 0 9 9 9 9 9 2 2 7 9 9 2 9 9 ",
"+ + + + + + + 9 + 9 * : * % 3 L E E K J P I o.X.@.%.=.0.8.8.>.e.t.a.m.oXXX+X@X:X7X7X7X#XXX<X9XQ ] % 9 9 0 9 w 9 + + : 9 9 9 9 9 ",
"+ + + + + + < 2 * 9 * : : 9 % d _ { ( K P I I o.+.@.%.*.*.8.0.>.5.5.e.M.n.}.+X#X:X:X@XXX%X>XcXl.t $ 9 9 3 9 9 9 $ 2 9 9 9 9 3 : ",
"+ + 2 + * * $ 9 + + * : : : 9 > _ _ _ E Y I I o.#.@.&.=.*.;.5.5.5.5.:.U U e.n.XXXX.Xb.%X>XcXvXf.- 9 0 9 9 9 q 9 9 9 9 9 9 7 $ + ",
"* : 9 9 9 * 1 0 9 < + * 9 9 9 > k ] k.Q R Y I o.#.$.&.&.;.N.B.B.B.B.B.v.D U M.M.n.b.<XiXcXvXfX, : 9 9 r 9 q q 9 9 9 9 q q 9 9 9 ",
": 9 9 9 9 7 : 9 9 : + * 9 9 9 : 0 ) j.{ E J Y T T #.$.;.N.<X;XeXeXrXeXeXQ D e.w.M.yXpXcXsXsXk - : 9 r 9 9 9 8 9 9 9 9 9 9 q 9 9 ",
": 9 9 9 7 9 9 9 9 9 7 9 9 9 9 : 0 s ) | | E Y T R T $.;.B.<XeXeXyXyXrXeXv.R 5.b.,XsXdXcXcXh.- q : 9 9 9 9 q 9 9 9 9 9 9 w 9 w 9 ",
"* 9 9 9 9 9 0 r 9 9 9 9 0 9 0 0 9 : s ] G.| ..7.7.7.3.:.B.B.eXeXrXtXrXyX;X7.5.<XsXsXsXaXh.= q * 9 r r 9 q q 9 9 9 9 9 w q q q q ",
": 9 9 9 9 9 w 9 9 9 q 9 9 9 0 w 9 9 r > k k.l.l.].`.c.c.-XB.*XwXeXrXrXrXrXyXiXpXdXpX=Xk > r 9 9 r 9 9 r w q 9 r 9 r 9 r 9 9 r 9 ",
"7 9 9 9 9 9 9 r 9 9 9 9 w 9 0 9 9 q 9 r s s ( k.l.Q.Q.Q.&X-X*X*X*XwXwXtXuXuXuXuX&XW : 0 9 r r 9 9 0 9 9 9 9 r 9 0 9 9 9 r r 0 r ",
"* * 9 9 9 9 9 w 9 r w q q 9 1 q 9 9 9 r 9 r 0 0 k ) j.Q.Q.^.&X&X=X=X=X=X=X^.j.l > > 9 9 q r r q q 9 9 9 7 9 9 w 0 9 r 9 q q 9 9 ",
"+ : 9 9 9 9 9 9 9 0 9 q 9 9 9 q 9 q 9 9 w r r w 9 0 > u u d i h h i i , ; > > > 9 9 q 9 r r r q w q r r w 9 q w 0 w 9 9 q w w 9 "
};
