/* XPM */
static char *_679845165000[] = {
/* columns rows colors chars-per-pixel */
"64 64 248 2 ",
"   c #3B2A21",
".  c #56391E",
"X  c #5B391F",
"o  c #66391D",
"O  c #743F1D",
"+  c #472E22",
"@  c #443325",
"#  c #4C3424",
"$  c #49362A",
"%  c #533623",
"&  c #563925",
"*  c #5B3C23",
"=  c #543B2C",
"-  c #5A3D2A",
";  c #493D36",
":  c #523E32",
">  c #583E30",
",  c #643D24",
"<  c #6B3F3E",
"1  c #6C4513",
"2  c #764916",
"3  c #7C5418",
"4  c #5B422A",
"5  c #4D4338",
"6  c #5C4534",
"7  c #55473A",
"8  c #5D4C3C",
"9  c #5B513E",
"0  c #664426",
"q  c #63452D",
"w  c #6A442B",
"e  c #6B4A2D",
"r  c #754726",
"t  c #724C2C",
"y  c #6E562F",
"u  c #75522D",
"i  c #654A32",
"p  c #6B4C34",
"a  c #654A38",
"s  c #714D33",
"d  c #6A533A",
"f  c #755233",
"g  c #7B5335",
"h  c #78563A",
"j  c #7E653E",
"k  c #4E4A46",
"l  c #4E4E4E",
"z  c #564B43",
"x  c #534E4A",
"c  c #58534E",
"v  c #525252",
"b  c #5A5653",
"n  c #575857",
"m  c #5C5A54",
"M  c #5A5A5A",
"N  c #6A4643",
"B  c #754748",
"V  c #655648",
"C  c #765845",
"Z  c #634E50",
"A  c #675B55",
"S  c #6A614F",
"D  c #676358",
"F  c #766756",
"G  c #7C6A5A",
"H  c #7C7052",
"J  c #5F6060",
"K  c #646464",
"L  c #6C6C6C",
"P  c #776A66",
"I  c #7F7067",
"U  c #727272",
"Y  c #787878",
"T  c #7C7C7C",
"R  c #A61D19",
"E  c #A6221E",
"W  c #B02F1F",
"Q  c #A61E21",
"!  c #9D2D2E",
"~  c #9C342C",
"^  c #873A3C",
"/  c #AE2E29",
"(  c #CA2826",
")  c #D82A2A",
"_  c #CB3A2C",
"`  c #CC3E3D",
"'  c #DC3736",
"]  c #E12625",
"[  c #E62B29",
"{  c #EE2F30",
"}  c #EA3433",
"|  c #F43636",
" . c #F93937",
".. c #F93A38",
"X. c #81451B",
"o. c #8C5D17",
"O. c #8E6216",
"+. c #976B18",
"@. c #956A1B",
"#. c #9C711C",
"$. c #A27A1E",
"%. c #85572A",
"&. c #874B30",
"*. c #885B39",
"=. c #AE4D2F",
"-. c #936B24",
";. c #9B6C25",
":. c #8A6838",
">. c #936E37",
",. c #94733B",
"<. c #9A773C",
"1. c #AD742B",
"2. c #CB592C",
"3. c #CE453C",
"4. c #DD4634",
"5. c #CD5034",
"6. c #EB483B",
"7. c #E5583C",
"8. c #CE6F33",
"9. c #E66D3C",
"0. c #8D3E40",
"q. c #EE3F42",
"w. c #845942",
"e. c #8E504F",
"r. c #AB584A",
"t. c #BB5756",
"y. c #896946",
"u. c #8C6F4E",
"i. c #9A7B45",
"p. c #AE774C",
"a. c #8C6565",
"s. c #966667",
"d. c #857569",
"f. c #817875",
"g. c #A26462",
"h. c #CC4545",
"j. c #D24241",
"k. c #C25859",
"l. c #F94744",
"z. c #E45A43",
"x. c #D36F49",
"c. c #E26A49",
"v. c #C86A69",
"b. c #C9716E",
"n. c #C87676",
"m. c #E47F7F",
"M. c #7F807F",
"N. c #B98834",
"B. c #B99232",
"V. c #C39728",
"C. c #CA9E2E",
"Z. c #D09536",
"A. c #D7943A",
"S. c #CCA12E",
"D. c #D4A62B",
"F. c #DAB52F",
"G. c #CEA332",
"H. c #CFAF3A",
"J. c #D2A533",
"K. c #D4AA34",
"L. c #D9AD36",
"P. c #D4A33C",
"I. c #D5AC39",
"U. c #DAAE3A",
"Y. c #DAB338",
"T. c #DCB23B",
"R. c #E3AC38",
"E. c #E2B73B",
"W. c #E9C43F",
"Q. c #988653",
"!. c #AE8C4B",
"~. c #B9A252",
"^. c #998675",
"/. c #B88A66",
"(. c #A18E78",
"). c #A2927C",
"_. c #B9A474",
"`. c #CD8F4B",
"'. c #D78849",
"]. c #D7974A",
"[. c #DC9555",
"{. c #E59749",
"}. c #EA8B57",
"|. c #E49C5A",
" X c #D8A944",
".X c #DCB644",
"XX c #C6A950",
"oX c #D7B559",
"OX c #E4B944",
"+X c #EAAC51",
"@X c #EC9461",
"#X c #C5AB64",
"$X c #D5B965",
"%X c #CDB775",
"&X c #EBA866",
"*X c #DCC05D",
"=X c #E8C649",
"-X c #F0D04F",
";X c #EAC757",
":X c #F2CB58",
">X c #F4D354",
",X c #F5D35B",
"<X c #F6D75D",
"1X c #F1CE62",
"2X c #7F7F80",
"3X c #E57F81",
"4X c #828282",
"5X c #8B8C8B",
"6X c #9C9384",
"7X c #9D968A",
"8X c #949494",
"9X c #9E9896",
"0X c #9B9B9B",
"qX c #A98A8A",
"wX c #A89787",
"eX c #B29B8A",
"rX c #AC9C93",
"tX c #A99A97",
"yX c #B29B95",
"uX c #B4A38F",
"iX c #9FA0A0",
"pX c #A3A3A3",
"aX c #AEACAB",
"sX c #B8ACA9",
"dX c #B4B4B4",
"fX c #BCB9B8",
"gX c #CE9594",
"hX c #C59D9B",
"jX c #E68586",
"kX c #E38C8A",
"lX c #E99190",
"zX c #CFA899",
"xX c #CAA9A7",
"cX c #CEB2AE",
"vX c #CBB3B1",
"bX c #C6BCBC",
"nX c #C8BEBE",
"mX c #D2C7B9",
"MX c #C6C6C4",
"NX c #CDCDCD",
"BX c #D9CECC",
"VX c #D0CFD0",
"CX c #DACFD1",
"ZX c #D4D3D3",
"AX c #D9D6D6",
"SX c #D8D9D6",
"DX c #D9D7D9",
"FX c #DBDADB",
/* pixels */
"l l l l l k l l l l l l l l v v l l k k l l v l l l v l v v v v n v n v x l l v v v l v l l l l v l l l l l l v l l l l l l l v ",
"l l l l l l l l l l l l l l n l l l l l l v v l l l l v v l v v v v v v v l l l l v v v l x l l n v l l v l l l v l l l v l l l ",
"l l l l l l l l l l l l x c y.D b c v v v v n v c v v b x v b v n b b b v c n v b m n b n v m u.w.v v v l l l l l l l l l l l l ",
"l l l l l l l l l l l l l c &.;.,.>.,.>.i.>.i.>.<.,.:.,.!.<.<.,.i.,.i.>.>.,.i.,.i.,.<.,.,.i.<.;.&.v l v v l l l l l l l l l l l ",
"l l l l l l l l l l k k c j N.C.G.V.G.C.V.S.B.S.B.S.G.V.K.C.V.U.V.S.F.B.S.S.B.S.V.C.V.S.C.V.G.C.$.F n v l l l l l l l l l l l l ",
"l l l l l l l l l l v V >. XI..XJ.T.I.K.K.I.S.J.T.S.E.S.T.K.C.OXG.J.T.S..XJ.I.I.G. XJ.U.I.Y.G.OXH.Z.>.S c v l l l l l l l l l l ",
"l l l l l l 5 a d i t N. XD.T.G.I.J.L.J.I.G.E.P.E.L.OXL.T..XC.=XS.T.E.L.OXG.OXD.OXV.U.G.U.G.Y.G.Y.K. X;.y i d a x l l l l l l l ",
"l l l l l l l = , r N.J.G.K.C.U.S.T.C.J.V.J.J.L.J.Y.K.J.S.OXC.E.S.T.J.J.Y.I.K.K.J.J.V.J.J.Y.C.K.C.J.S.J.;.O , 5 v l l v l v l l ",
"l l l l l l l l k y @.o.+.O.#.#.+.+.;.+.#.+.#.+.$.+.;.+.#.#.-.$.-.@.O.@.#.@.#.O.@.@.#.O.@.-.O.-.+.;.+.;.@.8 x v l l l l v l l l ",
"l l l l l l l l l l z F d.P 8 ; 5 5 ; 9 A ^.d.z ; 7 5 9 ; 8 P f.P ; ; 5 5 5 5 z I I A ; 5 5 ; ; 7 P d.x k v l l l l l l l l l l ",
"l l l l l l l l l l v 4XpXT v l l l l l Y pX5Xv l l l l l n 5XpXM.l l l l l l M 8X0XL l l l l l M 8XpXK l l v v l l l v l l l l ",
"k k l l l l l l l M.iXpXpX4XY U L L L L L f.U L U L L L U U U 2XL L K L L L U L U Y L K L U T 4X5X5XfXaX0XY v v l l l l l l l l ",
"l l l l l l l l l 8XMXVXZXNXVXVXVXVXVXVXVXVXNXNXVXNXNXNXNXNXVXNXNXNXNXNXNXNXNXNXVXVXNXVXVXNXNXVXVXNXZXNXMXT v v v l v l l l l l ",
"l k V v v v l l l J bXNXbXbXbXbXbXbXbXbXbXbXnXnXnXMXnXnXnXbXnXnXfXmXnXnXnXMXnXnXmXbXbXnXnXnXnXbXbXbXvXNXaXv v l l v l V c l x l ",
"l x a :.y.S C F F d.nXgX` ` ` ` 3.` ` j.j.j.` ` ` 3.` ` ` ` ` ` ` ` ` h.` 3.` ` ` j.3.` ` ` ` ` ` ` h.cXdXG F S F H u.%.z l l l ",
"l l x O X.X.2 O X.%.MXgX) ] ] ] ] ] [ { { |  ....... . .....| .......... . .....| | { { [ ] ] ] ] ] ' xXvX2 X.X.X.X.X.r l l l v ",
"l l c ;.N.N.N.N.B.!.MXgX[ ] ] ] ] [ { | |  . . .q.| ..............................| | } { { [ ] ) ] [ xXmXB.N.N.N.N.N.>.c l l l ",
"x V !.I.L.T.Y.E.Y..XBXcX@Xm.3X3X3XjXlXlXlXkXkXkXkXgXkXkXkXjXkXkXkXkXkXkXkXkXkXkXkXkXlXlXlX3X3X@X3X3XkXnXmXE.E.E.F.E.L.U.N.m v v ",
"0 B.K.Y.L.K.U.L.Y.$XCXAXCXCXCXCXCXZXZXDXDXFXDXDXDXDXDXDXDXDXDXDXDXDXDXDXDXDXDXDXDXDXDXDXDXZXZXBXCXCXCXFXmXoXK.L.K.F.U.L.I.N.0 k ",
"a 1 3 1 2 3 3 o.%.vXSXFXDXDXDXDXDXVXVXZXFXFXFXDXDXDXDXFXFXFXDXDXDXDXFXDXDXDXFXFXFXFXDXVXVXVXSXSXCXAXFXFXSXwX3 3 2 2 1 1 2 1 9 l ",
"z o 5 z V Z V c Z aXFXFXFXFXZX2X4X4X4X4X4X4X4X4X2X2X2X2X2X2X2X2X2X2X2X4X2X2X2X2X4X4X4X4X4X5X4XaXFXFXFXFXFX8XV V V c V 7 5 , x l ",
"7 , r g g g &.g w.yXvXvXvXcX9Xl l l l l v l l l l l l l l l l l l v l l l l l l n v v v l l l K sXcXcXcXvX6Xg g g g g f q , z l ",
"l l v P G G G G G d.Q / ) ( N l l l l l l v l l l l l l l l l l l l l l l l l l v v v v l l l l ^ ) ( ( ! f.a.G F G G P v v l l ",
"l l n wX0 g *.q s yXQ / l.} B v l l l l v v l l l l l l l l l l v l l l l l v l v v l v l l l l 0...4./ ! yX* e *.t f 6Xl v l l ",
"l l n ).X 4 4 & i rX=.'.@X4.C l l l k l l l l l l l l l l l l l l l v l v l l l l l l l l l l l e.6.|.x.r.rX# * w - q 6Xl l x l ",
"l l n ).4 - = . p rXQ ( z.{.#Xx l l l l l l l l l l l l l l l l l l l l l l l l l l l l l l l m oX{.7.W ~ rX% % 6 * s 6Xv l l l ",
"l l n (.f - > 0 g yX=.[.+X;XQ.l l l l l l l l l l l l l l l l l l l l l l l l l l l l l l l l m #X:X+X].=.pX0 . 6 - g 6Xv l l l ",
"k l n ).* - 6 Q.~.%X;X=X=X`.oXb l l l l k l l l l l l l l l l l l l l l l l l v l l l l l l l I 1X X.X=X1X%XXXQ.6 & e 7Xv l l v ",
"k l n wX* p f f !.-X>X,X=X=X!.l l l l l l k l l l l l l l l l l v l l l l l l l l l l l l l x b XX;X=X,X-X:X:.y g e p 6Xl l l l ",
"l k n ).0 e *.q :.-X=X=XOXZ.N l l l l l k l l l l l l l l l l l l l l l l l v l v v v l v v l v *.A.=XW.-X;X0 4 :.q g 7Xv l v l ",
"l l v 6X* a a 6 >.W.F.D.8.8.B l l l k l l l l l l l l l k l l l l l l v l l l l l l l l l l x l &.'.8.D.Y.T.4 6 d 6 e 7Xv l l l ",
"l l n 6X* p 0 p 3 .XH.2.5.x.B l l k l l l l l l l k k l l l l l l l l l v l l l l l l l l l l k e.9.2.8. XL.. p s q e 7Xl l v l ",
"l l n ).w w w r t  X=.( z.c.N l l l l l l l l l l l l l v v l l l l l l l l l v l l l k l l l l w.9.7.W 2.XX0 r e , u 7Xv l l l ",
"l l n wXX s g e i _.E ) @X].C l l l l l l l l l l l l l l l l l l l l l l l l v l l l l l l l l e.+X}.( ~ eX. y w.p 0 7Xv l l v ",
"l l M ).* w s - i rXR ) |.[.N l l l l l l l l l l l l l l v l l l l l l l l l l l l l l l l l v e.OXc.) ! yX# - g 4 e 6Xv v v l ",
"l l m ).h C H C y.rXE 5.'.5.p.l l l l v l l l l l l l l l l l l l l l l l l l v l l l l l l l n !.5.{.3.~ rXd C u.h y.6Xv l v v ",
"l l n ).. q f > q rX=.].8.9.;Xb l l l l l l l l l l l l l v l l l l l l l l l l l l l l l l 9 M.:X7.A.8.r.yX# - h = e 6Xl v v l ",
"l l n ).- $ = $ i eX`.A.D.,X;XA l l l l l l l l l l l l v v v l l l l l l l l l l l v l l l k Q.>X+XD.Z.p.rX# $ 6 @ e wXv l l v ",
"l l M ).w $ 4 $ e uX1.R.-X<XY.b v l l l l l l l l l l l v l l l l l l l l l l v l l l l l l l u.W.>X=XL.p.uXX @ 8 $ g 6Xv v l v ",
"l l n )., $ : $ s uX].:X<X>XB.v v l v l l l l l l l l l l l l l l l l l l v l v l v l l l l l A I.>X<X-X`.uX. @ 8 @ t 6Xl l l l ",
"v v M wX% $ : $ e *X>X,X>XD.F l l l l v v l v v l l l v v v v v l l l l v l v v v v v l v l l v !.F.,X>X>X#X$   6 $ e wXl l l l ",
"l l M ).X # , # e ;X,X>XR.2.< l l v v v l l l v l l l l l l l v l l v l l l l v l l v l l l l l < 8.OX>X>XoX& + q + e 6Xv l l l ",
"l l n ).0 & p % f %XE.A.2.( a x l l l l l l l l l l l l l l l l v l l l l l l v l l l l l l l l ~ ( 2.L.OX#X, # f . f 6Xv l l l ",
"l l n )., q d 6 p eXE ) | ' < k l l l v l l l l l v l l l l l l l l l l v l l v v l v l l v l l ^ | l.( ~ yX% a C - s 6Xv l l l ",
"l l M ).o p f w p rXQ ) l.' < x l l v l l l l l v l v l l l l l l l v l l l l v v v v l v v v l ^ ..l.( ! wX. g h , t 6Xv v l v ",
"l x M (.u t g g g rXR ) l.[ N v l l l l l l l l v v l l l v v v l v l l v l v l v l v v v v v v ^ | l.( ! tXw u h s %.6Xv v v v ",
"l l M (., - i p e rXE ) l.c./.b l v v l l l v v l l l l l l v v l l l l l v l v l l v v v v v m [.7.l.( ! tX% a p % s 6Xv v v v ",
"l l n (., - p # i rXW 9.+X<X$XM l l v v v l l v l l l l l l v v l v l l l l v v l v l l l v v P >X<X{.2.=.rX% % h # e 6Xv v v l ",
"l k n ^.0 6 f : h %X,X,X<X>XXXc l v v v l l l l v v l l l v v v v l l v v v v v l v v l v l l D *X,X<X>X:X#X6 = h > y 6Xl v v v ",
"l l M (.. = a 4 i $X>X-X=XA.C l v v v v l l l l v v l l v v v l v v v v l l v v v v v v v v v v >.R.=X-X:X#X$ > d @ 0 6Xl v v v ",
"v l M ^.. @ 5 = i %X].A.2.( N v v v v v l l v v v v v l v v v v v l v l v l l l v v v v v l v v < _ 8. X X_.& @ z   w 6Xv l l v ",
"l l M )., @ 5 = y tXE _ 6.5.C v v v v v v l l v v v l v v l v l l v v v l l l v v l l v v v v v &.7.6._ ~ rX- # d   t 6Xv l v l ",
"l l M (.o @ : = s qX=.'.&X X*XD v v l v l v v l l v v v v l v v l l l v l v v v v v v v v v v G ,X].&Xx.=.tX& @ 8   r 6Xv v v v ",
"l l M ).X @ : = p eXp.|.|.;XXXn v v l v v v l l l v v v v l l v l l l l v v v v v v v v v Z v F *X+X[.[.p.7X% @ a   w 6Xv v v v ",
"v l M ).& % 6 $ p eXR 5.[.[.!.J J J M J M J M M n M M M M v M M n v M M M M M J M M J M J J M K !.{.}.5.! yX% @ p @ p 6Xv v v l ",
"l l M ).y.:.y.:.u.yXW k.} c./.0X0X0X0X8X0X0X0X8X8X8X8X5X8X8X8X5X8X8X8X5X8X8X0X8X0X0X0X0X0X0X0X9Xb.c.4.5.~ yXy.y.u.:.i.6Xv v l l ",
"l v M 8XrXtXtXtXtXsXhXgXxXhXvX8X0X0X0X8X0X8X0X0X8X0X0X0X0X0X0X0X8X0X0X8X0X0X8X0X8X0X8X9X0X0X0X0XxXhXzXgXhXaXtXtXtXyXtXtXn v v v ",
"v M s.3Xn.b.n.b.k.hXNXMXNXNXMXpXpXpXpXpXpXpXpXpXpXpXpXpXpXpXpXpXpXpXpXiXpXpXpXpXpXpXpXpXpXpXpXdXNXNXNXNXMXgXv.n.b.b.n.b.e.n v v ",
"l B k.v.v.k.k.k./ g.iXiXiXpXpXiX8X0X8X0XpX0X0XiXiXiX0X0X0XiXiXiXiXiXiX0XiXiXpXiXpXpXpXiX0X0XiXiXiXiXiXiXiXg.t.k.t.t.b.v.t.Z v v ",
"l A e.s.a.s.s.s.e.aXNXNXNXNXMXT 2XL L 2XL 2XL L L L L L L L L U U L L L L L U L L U L L U U L 0XNXNXNXNXnXqXs.s.s.e.a.a.a.A n v ",
"v v v v v v n v v 5XdXdXdXdXpXM v v n v v n n v v v v n n v v v n v v v v v n n n n v v n v v Y aXdXdXdXdX2Xv n v v v v b b n v ",
"l v v v v v v n v v L L L K M n v v v n n v n v v n v n v n n v v n v v v n v n n v v n v n n v J L L L K v v n n v v v n v n v ",
"l l v v v v v n v v v n v v v n v v v v v n n n n v n Z n v n v v v n v v n n b n v v n n n n n v v n v v v v v v n v n n n n v ",
"l l v l l v v v v n n v n v v n v v M n v n n n v v n v v n v v n v v n n v n n n v v v n n n n n n n v v n n n n v v n n n v v "
};
