/* XPM */
static char *_680277542960[] = {
/* columns rows colors chars-per-pixel */
"64 64 236 2 ",
"   c #54503C",
".  c #5A4F3B",
"X  c #6A5C3D",
"o  c #453A58",
"O  c #743F49",
"+  c #493872",
"@  c #4E4E4E",
"#  c #4F4F47",
"$  c #534D43",
"%  c #524E4D",
"&  c #5B4B4D",
"*  c #58474A",
"=  c #4E504E",
"-  c #45524C",
";  c #535145",
":  c #52514E",
">  c #5B534C",
",  c #5C5344",
"<  c #4E4E51",
"1  c #4D4D5A",
"2  c #514E51",
"3  c #5A4A51",
"4  c #524C5D",
"5  c #594655",
"6  c #4E5151",
"7  c #4A535A",
"8  c #485556",
"9  c #525252",
"0  c #585656",
"q  c #565658",
"w  c #545857",
"e  c #64464B",
"r  c #6B4A4F",
"t  c #63484C",
"y  c #65594B",
"u  c #674D53",
"i  c #794C56",
"p  c #695952",
"a  c #79535A",
"s  c #7A434B",
"d  c #54655D",
"f  c #49625C",
"g  c #6A615C",
"h  c #756657",
"j  c #71694E",
"k  c #4E4767",
"l  c #524C63",
"z  c #53496A",
"x  c #495764",
"c  c #574A7B",
"v  c #7C5969",
"b  c #4E6864",
"n  c #566666",
"m  c #5F7779",
"M  c #576A6F",
"N  c #746964",
"B  c #667877",
"V  c #7B776B",
"C  c #BC3533",
"Z  c #B62D2C",
"A  c #98323D",
"S  c #CA3937",
"D  c #C32F2C",
"F  c #A04D3B",
"G  c #CC423B",
"H  c #903B45",
"J  c #824E54",
"K  c #825A5D",
"L  c #9B5753",
"P  c #9D4C4F",
"I  c #A74849",
"U  c #B74448",
"Y  c #BD574C",
"T  c #A34B51",
"R  c #B24C55",
"E  c #BB4B55",
"W  c #B35657",
"Q  c #A2544B",
"!  c #9D655C",
"~  c #887953",
"^  c #B4755E",
"/  c #845D62",
"(  c #975864",
")  c #A3566C",
"_  c #B65666",
"`  c #A75E79",
"'  c #88756A",
"]  c #997769",
"[  c #896874",
"{  c #97687D",
"}  c #8B6A6F",
"|  c #A6766D",
" . c #A66C76",
".. c #B8647C",
"X. c #A87877",
"o. c #B67479",
"O. c #AC6968",
"+. c #CC4C4D",
"@. c #C54749",
"#. c #CE524D",
"$. c #D5534E",
"%. c #C64B52",
"&. c #CF5254",
"*. c #C55358",
"=. c #D45454",
"-. c #DB5A55",
";. c #D9585A",
":. c #D94941",
">. c #E35E59",
",. c #E3584E",
"<. c #DA6759",
"1. c #CE6D57",
"2. c #E5635C",
"3. c #E7665C",
"4. c #D85B67",
"5. c #C65869",
"6. c #E45F62",
"7. c #DA676A",
"8. c #D67962",
"9. c #C47477",
"0. c #DC7778",
"q. c #CD6A72",
"w. c #EC6563",
"e. c #EC6A63",
"r. c #E56768",
"t. c #F36E6B",
"y. c #F16C64",
"u. c #E77869",
"i. c #F4736C",
"p. c #FA756D",
"a. c #F37469",
"s. c #E76B76",
"d. c #F36E73",
"f. c #E87A76",
"g. c #FC7673",
"h. c #FE7973",
"j. c #FC7C7B",
"k. c #F6797B",
"l. c #6A847B",
"z. c #AF9459",
"x. c #998574",
"c. c #908869",
"v. c #A68378",
"b. c #B48F70",
"n. c #CC957A",
"m. c #D08568",
"M. c #ED8678",
"N. c #FD8076",
"B. c #FE837C",
"V. c #F6867C",
"C. c #E9957B",
"Z. c #F5957D",
"A. c #D0AE7C",
"S. c #E8B17E",
"D. c #EBA77A",
"F. c #523790",
"G. c #5A4A8A",
"H. c #655597",
"J. c #657584",
"K. c #6B53B5",
"L. c #9C6D81",
"P. c #A77684",
"I. c #BB7A88",
"U. c #B3748C",
"Y. c #CE7786",
"T. c #CA7A8F",
"R. c #E87987",
"E. c #F67984",
"W. c #FC7D83",
"Q. c #F67985",
"!. c #78928C",
"~. c #738FA8",
"^. c #958C88",
"/. c #B89B86",
"(. c #AC9287",
"). c #82A796",
"_. c #BBA588",
"`. c #B4A593",
"'. c #91AAB1",
"]. c #D6888C",
"[. c #D18795",
"{. c #D69999",
"}. c #CB8C90",
"|. c #FE8483",
" X c #FE8C85",
".X c #FE838C",
"XX c #F88B87",
"oX c #FE938C",
"OX c #FC9689",
"+X c #E88997",
"@X c #FA8993",
"#X c #FE9491",
"$X c #FE9C94",
"%X c #F79697",
"&X c #E58B87",
"*X c #C5A888",
"=X c #D8B78B",
"-X c #C6AE93",
";X c #C9B79B",
":X c #D8BE91",
">X c #D9A983",
",X c #E8B988",
"<X c #FDA29C",
"1X c #FAAD97",
"2X c #FAB59C",
"3X c #F6B08A",
"4X c #D797A2",
"5X c #E29DA9",
"6X c #F398A4",
"7X c #CEB0B0",
"8X c #E5A1A9",
"9X c #FEA9A4",
"0X c #FFB1A9",
"qX c #FFBCB7",
"wX c #9FC4B4",
"eX c #E8C58B",
"rX c #EAC997",
"tX c #F2CD98",
"yX c #DECEAB",
"uX c #FFC3AC",
"iX c #FFD4AB",
"pX c #ECDDB3",
"aX c #FDDEB3",
"sX c #EAD0A5",
"dX c #FCE8B9",
"fX c #FAEBB5",
"gX c #99B7D1",
"hX c #9ECAE3",
"jX c #A8D0E8",
"kX c #B8E3F4",
"lX c #A4C6D3",
"zX c #D3CAC5",
"xX c #FFCDC6",
"cX c #FCE8C3",
"vX c #FFF1CA",
"bX c #FBE0D9",
/* pixels */
"@ @ @ @ @ - o # < @ @ @ % @ 2 2 # @ @ @ @ @ = = < < = = 9 9 : 9 w 9 9 9 : : 6 = 2 9 9 < 6 < @ 2 9 6 @ @ @ @ % 9 @ @ @ @ @ @ 6 % ",
"@ @ @ @ @ @ # # < @ @ @ @ < @ 6 - < @ @ < @ : : @ 9 @ 9 9 = 9 : 6 w 9 6 = : = : @ 9 9 9 9 < % 4 6 % < : < = 6 @ < : 9 @ 2 = = < ",
"@ @ @ @ @ @ @ @ < @ @ @ @ @ @ % < < @ @ < % 2 = = 3 2 % < 9 6 < 9 6 6 = 6 : 6 = : 9 9 = @ ; < 9 @ < 9 @ 2 @ @ @ @ @ @ @ @ @ @ @ ",
"@ @ @ @ @ @ @ @ @ @ @ @ @ @ @ @ < < @ @ < % % * e p 3 % % @ 2 < 6 n !.B w = 9 % 6 : 9 9 = % < 2 9 @ : 9 = @ @ @ @ @ @ @ @ @ @ @ ",
"@ @ @ @ @ @ # @ @ @ @ @ @ @ @ @ @ @ @ @ < % $ e H 9.r 2 3 9 2 9 : n l.wXB 6 @ @ 2 6 = = % = @ 9 @ @ @ 9 % < @ @ @ @ @ @ @ @ @ @ ",
"@ @ @ @ @ @ @ @ @ @ @ @ @ @ @ @ # @ @ @ @ % % e A _ r 9 @ < q 9 = = d M w < & & & 2 9 : @ @ = = 9 @ 9 6 9 = @ @ @ @ @ @ @ @ @ @ ",
"@ @ @ < @ @ @ @ = @ < @ @ @ @ < @ @ @ @ 2 2 3 e H T e @ 9 = 9 8 9 = - = 9 & ( I./ y % 9 6 @ = : @ % @ % @ @ @ @ 2 @ 6 @ % 6 2 @ ",
"@ @ @ @ @ @ @ @ % 9 % 6 @ @ 9 @ @ @ @ < 4 2 9 & s s & 9 9 l z l w 9 = = % > ( {.4X} % 9 6 % = = 9 6 6 @ @ @ 2 9 < = % = < @ : < ",
"@ @ @ @ @ @ @ @ @ 6 @ @ @ @ @ @ @ 6 < 2 < : = & t 3 % < l + H.H.l < 6 = = & r / } u : = < 6 % 2 @ @ @ 9 9 9 2 : @ @ 9 @ @ @ @ @ ",
"@ @ @ @ < @ @ @ @ 9 9 @ @ @ 9 @ < @ 6 < < 9 @ @ 8 6 < 1 l + F.K.c 1 6 @ = % % & & : @ 9 6 @ 2 @ @ @ @ 9 @ : 6 < @ @ @ 6 @ @ @ @ ",
"@ @ @ @ % @ @ @ @ @ 9 @ @ 9 9 @ % # @ < < < : @ 6 6 @ < 1 z F.F.H.k < @ @ 2 % 9 % % @ @ = 9 = = @ @ @ @ @ < @ 9 @ @ 6 % @ @ @ @ ",
"# @ @ @ 6 @ @ @ @ @ 9 < % 9 9 @ @ < < < @ < 1 8 n J.'.n < z + F.c l < = % % 9 % % # = % = ; = = 9 9 9 @ @ 9 9 9 @ % @ @ @ @ @ @ ",
"@ @ @ @ 9 @ @ @ @ 9 9 < 6 9 9 @ @ @ < @ 1 7 x ~.hXkXkX!.6 4 l z l 6 w N w 6 = 6 = : ;   y   # = 9 9 9 @ 6 9 9 9 6 % % 6 @ @ @ @ ",
"@ @ @ @ @ @ @ @ @ % 9 @ @ 9 9 @ < @ @ < @ 7 x ~.hXhX~.x 8 9 9 2 9 9 x.zXzXV @ 9 = $ X x.;Xj ; # 9 9 9 9 2 9 : 9 9 < = @ @ @ @ @ ",
"o @ @ @ @ @ @ @ @ @ @ @ @ @ 9 @ @ < @ @ @ @ 1 n m 7 x 8 = 6 - - @ @ g ^.zXzX4 % ; j z.z.:XX   w % 9 9 9 < @ < # 9 @ @ @ @ @ @ < ",
"# - @ @ < @ @ @ @ = @ @ @ @ 9 @ < @ @ @ @ @ @ < @ 6 9 9 : = - - 6 @ % : g g 3 : $ h z.z.X   - - @ @ @ @ @ @ @ @ 9 9 2 @ @ @ @ @ ",
"# # @ @ @ @ @ @ @ @ @ @ @ 9 @ 9 @ @ @ @ 2 2 # # $ # @ < 9 - - b - < < < % % @ @ : > y . $ # @ @ 6 @ @ @ @ 9 @ @ @ @ @ @ 2 2 = 9 ",
"@ @ @ @ @ @ @ @ @ @ @ @ @ @ @ @ @ - @ $ % $ j j d # # < = = l.wXB - 6 < @ @ @ @ = = # % 9 < < 2 @ @ @ @ @ 9 @ @ @ @ @ @ = @ @ @ ",
"@ @ @ @ o - @ @ @ @ @ @ @ @ @ @ < @ @ @ = j A.pX`.  : % : 6 f !.wXb - < 2 @ @ < # = - % @ 9 9 2 @ @ @ @ 9 @ @ @ @ @ < @ @ @ @ @ ",
"@ @ @ @ # @ @ @ 9 @ 9 @ @ @ @ @ @ @ @ @ : , j z.h # # < = 6 8 b ).l.@ 2 < % @ @ 6 @ 6 @ : % - 6 @ @ @ @ @ @ 9 @ 9 @ % 6 @ @ @ @ ",
"@ @ @ @ @ # @ @ 2 = 2 9 @ @ @ @ @ @ @ @ = : ;   $ @ < < < < @ - d d # - < < - - 8 x x 8 - @ < @ @ @ @ @ @ < @ @ 9 : : < @ @ @ @ ",
"@ @ @ @ @ # @ @ @ @ @ @ @ @ @ @ @ @ # % : = 2 < 1 4 l l 4 @ $ @ : : % = < < @ 1 M '.lX7 < @ @ @ < @ @ @ @ 6 @ @ @ < @ @ @ @ @ @ ",
"@ @ @ @ @ @ @ @ @ @ @ @ @ @ @ @ < @ @ @ = 6 = < l z G.G.4 : @ @ < @ @ # - < 1 m gXjX'.q < @ @ @ @ @ @ @ % < @ @ @ @ @ @ % < @ @ ",
"@ @ @ @ @ @ @ @ @ @ @ @ 6 2 6 9 @ < @ 2 6 = % < l o + c 4 @ @ @ 6 < @ # < < 1 J.gX~.x q < @ @ @ % @ @ @ 6 : 9 @ @ @ @ @ 6 @ @ 9 ",
"@ # # @ @ @ @ @ @ @ @ @ = % @ @ @ @ @ < 2 9 2 1 l o z k 4 # 2 = # @ 9 : @ 2 @ 6 x 8 < - < 2 @ @ 9 9 < @ % 6 @ 9 @ @ @ @ @ 2 @ = ",
"@ o @ @ @ @ @ @ @ @ @ @ < % @ @ @ @ @ < < < 2 2 5 5 5 5 & & * & N ^.> & % % 2 2 @ @ @ @ @ % @ @ 6 9 @ @ @ @ @ < @ @ @ @ < @ : < ",
"# # @ @ @ @ #   @ @ @ @ @ < @ @ @ @ < < @ @ % & e r i i J J i h `.bX/ a r t * 3 @ @ @ # @ @ @ @ @ % @ @ @ @ @ @ @ @ @ @ < : @ < ",
"# o - @ @ @ - o @ @ @ < < % @ @ @ @ @ 5 * * r J  .o.Y.].&X].].}.xX{.].].Y.P. .a r * * * % @ @ @ @ @ @ @ @ @ @ @ @ @ @ @ @ < @ : ",
"@ # @ @ @ @ @ - @ @ % < @ % @ @ @ $ 5 5 i  .].].R.R.k.M.E.M.M.u.V.f.r.s.0.0.R.+XT. .v 3 % < % 2 6 6 @ % @ @ @ @ @ @ @ @ : : < = ",
"o - @ @ @ @ # # @ @ < @ @ < @ @ % 5 i P.[.R.R.E.j.B.|.B.B.B.N.N.y.w.w.6.<.6.r.R.R.+X4XP.u & 2 % @ % 9 6 @ @ @ @ @ @ @ @ < @ < % ",
"# # # @ @ @ @ o @ @ < < 2 < @ % 5 [ T.Y.R.Q..XW.B. X XoXXX XB.a.3.>.,.=.=.&.4.4.s.R.Q.6X[./ 3 % @ @ @ @ @ @ @ @ @ @ @ @ @ = = 2 ",
"@ @ @ @ @ @ @ @ @ @ @ @ @ @ 2 5 [ U.Y.R.Q.Q.Q..X|. X#X0X$X XB.y.,.:.:.S @.%.4.4.R.R.Q.@X6X8X[ * % @ @ @ @ @ @ @ @ @ @ @ 2 2 = @ ",
"< @ @ @ # - # @ @ @ @ @ @ < 4 v U.U.q.R.Q.W..X@X.X|.OX1XZ.M.3.$.:.S D S S %.5.R.R.R.Q..X@X6X4Xa * 2 @ % 2 6 @ 2 @ % : = 9 @ @ @ ",
"< @ < < < @ @ @ @ @ @ # @ 4 u P.U.5.4.4.R.Q.W.Q.W.|. XV.<.:.F G S D D Z C @.4.R.Q.E.Q.W..X@X6X}.& % @ @ @ @ : 2 @ 6 @ : % 6 = 2 ",
"@ @ @ < @ < @ @ @ @ @ @ < 5 v U._ 5.4.4.r.s.Q.d.W.W.B.V.D.Z.<.C S D Z Z :.6.Q.Q.E.W.W.|..X@X%X8X/ % % < @ @ @ @ @ @ @ 2 6 2 9 @ ",
"- < # @ @ @ @ @ < < @ @ < 5 { ` E E *.4.4.6.r.d.d.d.p.N.M.N.u.e.3.w.d.j.Q.Q.d.Q.W.j.|. X X#X@X6X(.3 3 % @ @ @ @ @ @ @ - % % 9 9 ",
"@ # # o @ @ @ @ < < < @ < 5 { ) R E %.&.;.<.r.w.t.t.d.t.i.d.h.g.h.h.h.h.Q.g.W.W.B.B. X XoX#X#X%X4Xu % @ @ @ @ @ @ @ @ 6 2 2 6 : ",
"@ @ @ $ % @ @ @ < 2 6 @ 2 3 { ) R E %.%.&.=.;.w.w.e.t.t.p.p.i.h.g.h.j.h.d.Q.|.|. XOXOX%X#X#X#X%X5Xa & 9 9 2 9 @ @ @ = = 2 9 % 6 ",
"% @ @ @ @ @ @ @ 9 @ @ @ < % L.) _ *.*.%.#.$.-.-.3.3.e.a.t.p.p.p.h.h.B.B.B. X|. X<X0X0XqX<X$X#X@X5Xa 1 @ % 2 @ @ @ - = 9 : 2 @ 6 ",
"@ @ @ @ @ @ @ @ @ = 2 @ < * { ( H I I U U #.&.-.2.2.3.e.y.p.p.p.h.B.B.B. XoXoXOX%X9XqXuXqX%XXXm.5Xa % % 2 9 9 9 < @ = 6 2 < % @ ",
"2 2 @ @ @ < 6 9 @ @ @ # @ & v O L P I I U @.@.$.-.2.2.3.e.t.i.p.h.N.B. XoXoX$X$X<X<X9X9X0X%X1.W {.u & = @ 9 9 @ % @ @ 6 % 2 @ = ",
"6 @ @ @ < < < @ @ @ @ % @ % t / ] ! L I U U @.#.$.-.-.3.w.e.e.a.a.N.B. XoX#X$X<X<X9X9X$X%XOXuX| X.t % : 9 @ @ 9 2 9 9 = 2 = @ @ ",
"@ @ @ @ @ @ @ @ @ @ # # # @ * h ] ] ! Q I U U @.#.=.-.>.3.3.r.3.3.u.u.M.V. XoX$X<X<X#X#X&X2XcX_.> : 9 : @ 2 9 @ 2 6 9 = < @ @ - ",
"@ @ @ @ @ @ @ @ @ # @ @ @ @ $ & ] ] ] ! T U U @.%.=.=.-.>.3.8.8.m.m.1.Y Y 7.|. XXXXXV.&X1XcXvXc.; 9 @ @ @ @ @ @ % 9 9 9 < @ @ @ ",
"@ @ @ @ < < @ @ @ @ @ @ @ @ # $ h x.] | T T E U %.%.=.;.3.C.D.S.S.S.S.m.F Y d.j.V.M.3XuXdXvXsX, - - % 9 @ < @ = @ @ @ 9 9 9 = 9 ",
"@ @ 6 = < < @ @ @ # @ @ @ < # % > ' v.| O.P R E E Y =.<.M.3X,XeXeXeXeXeX^ F u.h.M.uXdXdXvXfXl.; : @ = @ @ @ @ @ @ @ 9 9 9 9 9 9 ",
"@ 9 9 2 2 2 < @ @ # = @ < < 2 9 $ y ] X.X.L T R W Y *.7.D.3XeXrXtXtXeXeXn.I 7.u.2XdXdXfXpXc.w w % 9 9 2 @ : = 6 @ @ : = 9 9 9 9 ",
"@ @ @ 2 % @ @ @ @ @ - @ 4 9 2 2 < 2 p ' v.X.O.q.9.9.W 1.D.,X,XeXtXtXtXtX,Xz.m.1XdXdXdXpXc.# : : 9 9 9 9 9 9 9 9 @ 9 : 9 9 9 : @ ",
"@ @ # @ @ @ @ @ @ @ 6 : 6 9 2 9 6 9 : > ' ] v.b.}.n.n.n.>X,X:X:XeXrXrXtXtXtXiXiXaXpX;Xh ; : = 9 9 9 9 2 9 @ @ < 9 = < 9 @ 9 9 9 ",
"@ @ @ @ @ @ @ @ @ @ % 9 2 = = 9 9 9 9 % % y ' v.v._.b._.*X*X=X=X:X:XrXrXrXsXsXyX_.' , > : 9 : = 9 9 9 9 = 9 9 % 9 9 : @ 9 @ 9 9 ",
"@ @ @ @ @ 9 = 2 @ @ 9 < 9 @ 9 9 : > 9 9 % % & & h ' x.`./._.*X-X-X;X;X;X;X(.x.> ; > : : : : @ 9 9 9 @ 9 9 2 % 9 9 9 9 9 9 @ 9 = ",
"< @ @ @ < % 9 9 @ @ < : @ 9 6 % 9 9 : 9 9 2 @ 9 9 : $ & y p p h h p y , $ $ ; ; : = 9 6 : 9 9 < 9 9 9 9 6 9 9 % 9 9 9 9 @ @ 9 2 ",
"@ @ @ @ @ < 6 9 = 2 9 @ 9 @ 9 9 = 9 % % @ % 9 % % 9 > : > % : : @ % $ $ > : : 9 9 9 9 9 9 9 6 q : 9 9 9 9 9 9 w : 9 : 6 9 9 : 6 ",
"@ @ @ @ @ @ = % @ @ @ 9 @ 9 9 2 9 : = 6 9 9 6 6 2 % 9 9 @ 9 = 9 < < < < : 9 0 9 9 9 9 9 w 6 w 9 9 < 9 9 9 9 9 9 @ @ < 9 9 9 9 9 ",
"@ @ @ @ @ % < @ 9 @ 9 @ 9 @ = 9 2 4 < 2 9 9 : = # 9 : 9 9 9 9 @ < 2 2 9 = 9 w w = 9 9 9 9 9 w 9 : 2 9 9 9 9 9 9 @ 9 2 9 9 9 9 % ",
"< @ @ @ @ < 9 9 @ @ @ 9 @ @ 9 9 q 9 2 9 9 w w 6 @ 6 9 9 9 @ @ 9 9 9 9 9 0 9 : 9 9 9 : 9 9 9 9 9 6 9 9 9 9 9 w 9 < 9 : 9 9 6 < @ ",
"@ @ 9 9 % 9 9 9 9 9 @ @ 9 9 9 9 9 9 0 9 w 9 9 9 9 9 9 9 0 9 9 9 9 9 9 9 w 9 9 0 9 9 % 9 9 9 9 6 9 9 9 q 9 w 9 9 9 9 9 9 w 0 9 9 ",
"9 9 9 9 9 2 2 9 9 @ @ 9 9 9 9 9 9 w 9 w w 9 9 9 3 9 0 0 9 9 9 9 9 9 9 9 9 0 q 9 q 9 9 : : 9 9 9 9 9 9 0 9 9 9 2 9 9 9 9 9 9 9 9 ",
"9 9 9 9 6 9 9 9 9 @ 9 @ 9 9 9 : 9 9 9 9 9 w 9 9 9 9 9 9 w 9 q 9 9 9 9 9 2 q q q w 9 9 9 w : : 9 9 9 9 9 9 0 9 9 9 9 9 w w 9 9 9 ",
"@ 9 9 9 9 9 9 9 9 9 9 9 9 9 9 9 9 9 q 9 w 9 9 9 9 w 0 9 9 0 9 9 9 9 9 9 q 2 q q w w 9 9 : 0 : 9 9 w 9 0 9 w w 9 9 9 9 9 9 0 0 w ",
": : 9 9 9 9 w 0 9 9 9 9 w 9 9 w 9 q q q q 9 0 9 9 9 q q 9 9 9 9 9 w 9 9 2 0 0 0 w 9 0 9 9 0 0 9 0 q 0 w q 0 9 0 9 9 9 9 0 0 9 9 ",
"< 9 9 9 9 9 9 w 9 9 0 9 9 9 0 9 9 9 9 q q q q w q 9 2 0 w 0 0 9 9 0 9 9 9 q 0 q q 9 9 q q q 9 0 9 9 9 9 9 9 0 9 w 9 9 0 0 w 0 w ",
"@ < 9 9 9 2 9 9 9 9 9 w 9 9 9 q 9 9 9 9 w w 9 0 w 9 q 0 0 9 0 9 q 9 9 9 9 w 9 q q 9 9 w q q 0 q 0 9 9 9 9 9 9 w 0 9 w 9 q q 9 9 ",
"@ @ @ 9 9 2 w 0 9 9 0 w 9 2 w 0 9 9 w 0 9 w 0 0 9 9 0 9 w q 9 9 q 9 9 0 0 0 q 9 q 9 9 0 0 q 0 q q 0 q 9 w 9 0 q 0 9 9 0 0 q 9 9 "
};
