/* XPM */
static char *_680277559626[] = {
/* columns rows colors chars-per-pixel */
"64 64 241 2 ",
"   c #534E3E",
".  c #5E4E35",
"X  c #53523E",
"o  c #6D663B",
"O  c #655730",
"+  c #763E49",
"@  c #4A396B",
"#  c #4E4E4E",
"$  c #4E4F47",
"%  c #544E43",
"&  c #5D474B",
"*  c #524E4D",
"=  c #5B4B4D",
"-  c #594F46",
";  c #4D504F",
":  c #44534E",
">  c #555144",
",  c #52514E",
"<  c #5C534C",
"1  c #5B5247",
"2  c #4E4E51",
"3  c #4E4C58",
"4  c #524E51",
"5  c #5A4A52",
"6  c #514C5B",
"7  c #544751",
"8  c #4E5152",
"9  c #4C535B",
"0  c #485759",
"q  c #525252",
"w  c #565757",
"e  c #68474B",
"r  c #64594A",
"t  c #6B4C54",
"y  c #744E59",
"u  c #675A54",
"i  c #775456",
"p  c #784A4D",
"a  c #4A655B",
"s  c #696149",
"d  c #6D6458",
"f  c #756458",
"g  c #7C715F",
"h  c #4E4862",
"j  c #524B64",
"k  c #544A69",
"l  c #4C5966",
"z  c #574877",
"x  c #57586E",
"c  c #7B5963",
"v  c #566865",
"b  c #576878",
"n  c #4E6D71",
"m  c #666B67",
"M  c #766A68",
"N  c #7B7566",
"B  c #667771",
"V  c #9C323C",
"C  c #B93D2B",
"Z  c #B82A2B",
"A  c #C32D2A",
"S  c #C93835",
"D  c #CA3731",
"F  c #A34C3B",
"G  c #CC4239",
"H  c #983742",
"J  c #C43D41",
"K  c #84585D",
"L  c #9A5656",
"P  c #8C4850",
"I  c #A84749",
"U  c #B74448",
"Y  c #A64853",
"T  c #B64B56",
"R  c #B6565B",
"E  c #AD554F",
"W  c #9E655B",
"Q  c #84795D",
"!  c #B86E59",
"~  c #8C5764",
"^  c #A9586D",
"/  c #88656A",
"(  c #976766",
")  c #8A756A",
"_  c #987769",
"`  c #886575",
"'  c #957079",
"]  c #A66468",
"[  c #A3786A",
"{  c #B6726D",
"}  c #B6687A",
"|  c #A77879",
" . c #BC7879",
".. c #B96960",
"X. c #C64949",
"o. c #D64843",
"O. c #C54B52",
"+. c #CB4C53",
"@. c #D34F51",
"#. c #C55358",
"$. c #D35353",
"%. c #DA5A56",
"&. c #DF5D5B",
"*. c #D85757",
"=. c #D0504D",
"-. c #E35B53",
";. c #D9685B",
":. c #CE7154",
">. c #E4635D",
",. c #E4695B",
"<. c #F1695E",
"1. c #CC5665",
"2. c #D75C67",
"3. c #CC5D71",
"4. c #DD6768",
"5. c #C6757D",
"6. c #D47174",
"7. c #E56362",
"8. c #EA6662",
"9. c #ED6B63",
"0. c #E9696A",
"q. c #F36E6B",
"w. c #F16A66",
"e. c #E87768",
"r. c #FA746E",
"t. c #F4756D",
"y. c #E56A76",
"u. c #F36E72",
"i. c #E67876",
"p. c #F57473",
"a. c #FE7A74",
"s. c #FB7B7C",
"d. c #F77879",
"f. c #598274",
"g. c #658379",
"h. c #AE875D",
"j. c #94876C",
"k. c #9E8477",
"l. c #8D856E",
"z. c #A48277",
"x. c #AB9375",
"c. c #B5A166",
"v. c #988855",
"b. c #D9805E",
"n. c #CD8567",
"m. c #D08F71",
"M. c #EC8779",
"N. c #FE837B",
"B. c #FF897F",
"V. c #F68477",
"C. c #EC957B",
"Z. c #F19076",
"A. c #E8A37E",
"S. c #513398",
"D. c #655792",
"F. c #5A7D83",
"G. c #655A95",
"H. c #9A6B81",
"J. c #B1758A",
"K. c #D0758B",
"L. c #E97986",
"P. c #F47684",
"I. c #FA7C83",
"U. c #F77C88",
"Y. c #EA6F83",
"T. c #7A8E99",
"R. c #6F8D8B",
"E. c #76A190",
"W. c #948D88",
"Q. c #AE8984",
"!. c #B79783",
"~. c #85A397",
"^. c #B8A98A",
"/. c #8092A8",
"(. c #8EABB2",
"). c #DB8588",
"_. c #C59983",
"`. c #D98693",
"'. c #CA8B93",
"]. c #E58588",
"[. c #FC8483",
"{. c #FE8B85",
"}. c #FE828C",
"|. c #FD8D8A",
" X c #F18980",
".X c #FE928C",
"XX c #F8968A",
"oX c #F98A94",
"OX c #E3989A",
"+X c #FD9691",
"@X c #FE9C94",
"#X c #F89998",
"$X c #E98F8E",
"%X c #C7A88B",
"&X c #DAB78C",
"*X c #C5AA98",
"=X c #CCB495",
"-X c #D8B994",
";X c #D8AA87",
":X c #E5AC81",
">X c #FCA884",
",X c #E6B688",
"<X c #FEA29C",
"1X c #F7AE9B",
"2X c #FBB496",
"3X c #F2B88D",
"4X c #D89AA3",
"5X c #CF97A0",
"6X c #E79BA7",
"7X c #F398A3",
"8X c #CFB0AF",
"9X c #FEABA4",
"0X c #FEABA6",
"qX c #FFB2AC",
"wX c #FFBBB3",
"eX c #E4A5AE",
"rX c #9BC4B6",
"tX c #A2C6B8",
"yX c #CCC18B",
"uX c #DEC08E",
"iX c #ECC58D",
"pX c #ECCC94",
"aX c #EAC897",
"sX c #F1CA91",
"dX c #E9CBA7",
"fX c #FDC9A9",
"gX c #FCDAB2",
"hX c #F4D1BA",
"jX c #FFECBA",
"kX c #FAE5B8",
"lX c #D9D3B3",
"zX c #9AB8CB",
"xX c #A7C7D9",
"cX c #ADC8CF",
"vX c #B8E0EC",
"bX c #ABD4E8",
"nX c #D4C9C4",
"mX c #FED8D0",
"MX c #FFEAC5",
"NX c #FFF2C7",
"BX c #C1E3ED",
/* pixels */
"# # # # # # # # # # # # # 2 # 2 # # # 7 2 2 4 = + p 7 * q q q w w v E.f.a ; ; 8 q 8 4 , 4 # , q q 2 # # # # 8 8 # q 2 ; * * 8 # ",
"# # # # # $ # # # # # # # 2 # 2 7 : : $ 2 2 4 e P  .t * q q 4 q 9 B g.(.B , * * q q q q 2 * # ; ; , # q * ; # * # # * 8 8 # 8 * ",
"# # # # # # # # # # # # # # # # 2 # # # 2 2 4 e V R t , 2 2 2 2 4 w v m w ; = e q q ; , , # q # ; 2 q # 4 # # # # # # # # # # # ",
"# # # # # # # # # # # # # # # # 7 # # # # 2 = e V Y e $ 8 2 6 6 3 4 # ; ; < / z.i u , 8 # ; 2 q * * ; q 8 # # # # # # # # # # # ",
"2 # # # # # # # # # # # # # # # # $ # # # # * & e p 7 , 2 6 x k 2 ; 8 * # = ( '.4X) < q # # 4 2 8 # q q # # # # # # # # # # # # ",
"# # # # # # # # # # # # # # # # # $ # $ # # # * 7 7 q 2 6 h S.G.j 3 2 * , = p L ( t 5 8 ; 8 2 q q # # q q # # # # # # # # # # # ",
"# # # # # # # # 8 * # # # # # 2 # # # # * , 4 2 7 # # 3 6 @ S.G.z j 6 4 4 4 = = 5 = , 8 ; 8 * * # # # ; # 2 , # # 2 * 8 ; 2 2 , ",
"# # # # # # # # , 8 2 , 2 # 2 # # # # # 4 q 9 9 0 8 0 8 6 z S.S.G.k 4 q * * 8 8 2 q q q ; # # ; q q 4 # # # # q # , # 8 * , # 2 ",
"# # # # # # # # # 4 # # # # 8 # , 8 4 4 2 2 h l n b (.l 6 k @ @ z j 2 * q , 4 q 4 # * ; ; ; ; ; # # # q , q q ; # # # * 8 # # # ",
"# # # # 8 2 # # # 8 , # # # q * # ; 2 2 8 2 l T.bXvXvXT.9 u k j j 9 w M w 8 q 4 2 , %   <   ; # # # # q 2 q # 4 # # 8 * # # # # ",
"# # # # * # # # # ; q # # 8 q # # * 8 # # 8 l T.xXzX(.l 8 4 6 6 8 ; H.nXnXN q , ; X O v.yXo > # # 2 # # # # # q # # ; # # # # # ",
"# # # # ; # # # # * q 2 q q q # # q # # # ; 9 x F.l 0 8 q 2 q q ; 0 d W.8XnX, ; > d h.c.yXo > # q q q ; # q q q # 2 * 8 # # # # ",
"# # # # , # # # # q q 2 4 q q # # # # # ; ; 8 0 9 8 8 8 ; ; 8 ; 8 ; * , M m , # , g x.h.s X * q q q q * # q q q 8 * , # # # # # ",
"$ # # # 2 # # # # , q # # q q # # # # # ; $ X X $ ; 8 8 ; ; a v : 8 ; ; , * 8 , > 1 r . X , ; # q q q q q q q q q ; 2 # # # # # ",
"# # # # # # # # # # # # # , q # # # ; # ; X o s s * q # ; : B rXg.: 8 ; # q q # ; % % * , # # , # q q 8 # # # # q # 2 # # # # 2 ",
"# # # # 2 # # # # # # # # # 8 # # # # # # s x.kX^.% * * : : a E.tXv : ; # * 2 4 ; ; 2 8 , ; , # # 2 # , # # # # q q , # # # 2 # ",
"# # # # # $ # $ # # # # # 4 # q # # 7 $ # 1 Q x.N # $ # 4 8 : v ~.g.; 8 2 * # # , * q 8 2 2 # # ; # # # * 8 # # # # # # 2 ; * 8 ",
"# # $ # $ # # # # # # # # # # # # # # $ 2 # % $ * 7 2 3 q ; 2 : a 0 8 2 7 2 # 3 9 0 v 8 3 7 # 4 * # # # # 8 * # # # # # , 2 8 * ",
"# # # # 7 : # # # # * # # # # # # $ # # 8 * , $ 5 6 k j q # # # ; ; ; 8 2 2 2 0 n T.cX0 8 q q , # # # # # q 2 # 8 # # # # # # # ",
"# # # # # $ 7 : q 4 4 ; # 8 # # # # $ # , * # 2 6 k z z 6 q # # ; , 2 # 2 8 3 B zXvX(.0 8 ; , , 2 # # # * 8 , # q # 2 , # # # # ",
"# # # # # # : # 2 4 ; q # # # # # # # # ; ; # 3 k @ @ z 3 * # # ; 8 8 # ; # 2 F.zXF.l 3 # # # # # # # # # 2 # # q * * 8 # # # # ",
"# # # # # $ 7 # # # # # # # # # $ $ # # , , q 3 h @ k k 6 2 # # , * # # # # 8 h n l 9 6 # # # # # # # # # ; # # # 8 # # # # # # ",
"7 # # # 7 : : 7 # # # # # # # # # # # # , 4 # 2 2 2 6 7 4 = , * m W.q * ; # 8 8 8 8 3 q # # # # 8 # # # 4 # # # # # # # , # # # ",
"# # # 7 : $ $ 7 # # # # 8 8 * 4 # # # # * 4 7 & & e t i i i i i *XmXK i e e = 5 5 * 4 4 # # 2 # * # # # ; q q # # # # # 2 2 # q ",
"# $ : 7 7 $ : : 7 # # $ 2 * # # # # $ 7 4 5 y K { 5.K.].].].).).mXOX).).5. .] K t 7 4 , , * # # q q * # # # , 2 # # # # 2 * ; # ",
"$ # : # : 7 7 $ # # # # 2 # # # # 2 7 & y | '.K.L.L.s.s.a.N.M.i.M.i.y.u.i.i.L.`.K.| y 5 = * # # 8 * 8 # # # 2 # # # # # # 8 , 2 ",
"$ : 7 $ : $ 7 : $ 7 # # 7 # 2 2 4 5 y J.`.L.U.I.P.N.[.{.N.V.V.V.e.9.7.>.2.y.y.Y.L.OX`.J.t 7 # # # , # # # # # # # # # # 8 * # 8 ",
"7 $ 7 : $ 7 : $ $ $ # # : 2 2 7 5 ` J.K.L.U.s.I.B.{.{.|.B.Z.V.<.<.-.%.@.@.$.2.3.y.L.oX7X5XK = # # # 8 # # # # # # # # # # ; 2 * ",
"$ $ $ $ 7 : $ : # # 2 # 2 2 6 t ` J.K.L.L.U.U.U.[.{.+X0X<X{.Z.<.-.o.J J o.O.1.3.y.Y.U.oX7X4X` * 4 # # 2 # # # # # # # # * * 8 # ",
"7 $ $ 7 : 7 7 : $ # # # 2 2 6 M J.K.3.y.P.U.U.}.{.[.|.9XB.b.-.-.o.D D J S O.1.Y.Y.P.U.}.U.#X4Xc = q 2 , # # # # 2 # # # 8 # * ; ",
": 7 7 : 7 : # 7 7 # # 2 2 4 t J.} 3.3.y.u.d.U.U.I.[.{.Z.b.:.C D D D A Z Z J 2.Y.P.P.I.}.oXoX7X'.& # # # # # # # # # # # # 8 8 * ",
"7 : : 7 : 7 7 : $ # # # 8 7 c H.^ 1.1.2.y.y.P.d.d.s.[.V.>XZ.=.F D A Z Z @.0.P.P.I.I.[.[.}.oX#X6X/ * * # # # # # # # # # # * ; 2 ",
"# # # # # : # # # # # # 7 7 H.H.R #.#.*.2.0.0.u.u.p.d.a.V.V.t.,.<.<.u.d.I.d.I.s.I.s.[.{.{.|.oX#XQ.7 = # * # 8 ; * 8 8 , q 2 # ; ",
"# # # 7 2 # # # $ # # # : 7 H.^ T T #.#.*.&.7.8.0.q.q.p.p.d.p.r.d.d.a.s.s.a.a.s.N.{.|..X.X.XoX#X5X5 = # # 4 # 8 # # ; ; 4 * # ; ",
"# # # # 2 2 # # # * # # 7 7 ^ ^ Y T O.O.+.*.&.>.8.w.w.q.r.r.a.a.r.a.s.s.s.N.[.[.|.oX+X+X.X+X+X#XeXy * # # 2 # # # # # 4 q * q ; ",
"# # $ # 2 # # # # # # # 2 7 H.^ R 1.#.O.+.$.%.;.>.8.9.w.q.r.r.r.r.a.s.N.B.{.{..X@X0XqX0X@X@X.X#X6Xc = # # # # # # # # ; * 4 q 8 ",
"$ $ # # # # # # # # # # 8 & ' ~ Y I I U o.X.$.%.&.>.w.8.9.t.r.a.a.N.N.B.{.{..XXX@X0XwXhXhX#X X6.4Xy = , , # # * # # # q 4 q q ; ",
"# # : # # # * # # # ; , # 5 c + L L I I F X.=.=.%.>.7.<.9.t.w.r.a.N.N.{.{.XX+X<X@X<X0X0X0X#X:.R 4Xt * ; # q # # # # # # q # , 8 ",
"2 7 7 # # # # # ; # ; # q * & / ( W L I V X.X.@.@.*.&.>.9.,.<.<.r.a.B.{..XXX+X<X9X9X<X<X#XXXfX{ | & 7 8 q 4 8 q # # # q ; q # 8 ",
"# # $ : $ # $ # ; # # 4 # 4 7 f _ W W L I U X.X.$.$.&.>.,.,.,.e.,.e.e.t.Z.{..X<X<X<X@X$X$X1XMX!.r * # q 2 , q , # # q ; 4 # ; # ",
"3 8 # # # * ; q 2 8 4 4 2 # * < j.[ [ W I U U X.=.@.*.%.;.;.:.b.n.:.:.! #.e.V.{.{.|. XC.,XMXNXl.- , # q q # q ; # # 2 , 8 * 8 # ",
"2 # # # # # # , 2 2 2 4 , ; # % M _ [ [ L Y T U O.+.$.*.,.Z.A.A.:X,X;Xn.F E i.N.s.M.XXfXNXNXlX> , ; q , q q ; ; 8 4 , ; q # # # ",
"2 2 # # # # # # 2 # # 2 # # # $ 1 ) z.[ ^ Y T T O.#.#.4.Z.>XiXiXiXsXiX,X! F q.d.M.fXMXjXjXkXN # , q q 8 ; ; 2 4 q 8 q q # # # # ",
"# # # # # # # # 2 2 2 # # # # # , 1 _ z.{ L Y T T T #.;.C.3XiXiXsXpXsXpXm.E ;.i.2XkXkXjXkXj.> # q ; 4 q ; # * 2 * q ; q 4 # # # ",
"# # # # # # # # # # # # # # # # # * u ) z.| { { 5.{ ..:.A.,XuXiXpXpXpXpX,Xh.n.2XkXkXjXkXl.$ , q ; , 2 ; # # # # # # ; 8 q q * 8 ",
"* # 8 , # # # * # # # # # * # ; # * * = M | Q.x.x._.m._.;X&X&XuXaXaXaXaXdXfXgXgXgXgX=Xf > ; q q # # 8 * # # * # # # , q q q q q ",
"# 2 , 8 * 2 2 # # # # # # 4 8 q , # , * * u ) k.Q.!._._.;X;X=X&X&X&XaXaXaXdXdXdX^.) X > , q q q 8 q , 2 * q q # 2 ; ; q 8 q q q ",
"# # ; 8 8 # # # # # ; ; # q q q # q q 4 2 * * - f ) k.x.!.^.%X%X=X=X=X=X=Xx.k.s > > $ ; , q q q q q q q 4 q q q ; q q q q q q * ",
"# # # $ # # # # # # q # q # q q q q q # # # # * , 1 % - r u d d d d u < - - - , , , , 4 q ; q q q q q q 2 , # # q * # 8 q q q q ",
"# # # # # # # # # # 8 , # q * q q q q q # # # * q q # * , q * q , , , , * , q 8 , 8 q q q q 4 q q q , q , q q 8 q q * 8 * 8 q q ",
"# # : 7 * 8 # q # , 8 2 # q q 8 q q q q # # q q q q # * , q , q , q q , ; q # # q q q 8 , q q , q q q 8 8 q q q q q q q q # q q ",
"2 # # # # ; q 4 # 2 * q q # q q q q q q q # 8 q , q 4 8 * q , , , * ; , # * * q q , , q q 2 q q q q , q q q q q q q q q * 8 * ; ",
"# # # # 2 , q q # # # q # q q , 8 q * q , 4 q 4 # 8 q q q q q 8 * # 8 q q q q q q q q q q q q q q q q q q q q q 2 , # q q q 8 q ",
"# # # # # # # 8 4 # q # q # q 8 q q ; # q q 4 q * q q q q # , # # # 8 * q q q w q q q q q q q q ; q q q q q q q # 2 , q q q q q ",
"# # # # # # ; * ; # 8 q q 8 4 q q q * 4 q q q q # 8 q q q q q q q # q q q q q q q q q q q q q q q * q q q q q q ; q # q q q q # ",
"4 ; # # # 2 q q 4 ; * q # * ; q q q q q w q q q # q q q q # # q q q q q q q q q q q q q q q q q q q q q q q q w 4 q q q q q # # ",
"# q q q 4 q q q q ; # # q q q q q q q w q q q q q q q w w q q q q , q q q q w q q q q 5 q q q q q q w w w q q q q q q q w q q q ",
"4 q q q q q q q q q # 8 q q q q q w w q w q q q q q q q q < w q q q q q q w q w w q q q q q q q q q q q q < q q q q q q q w q q ",
"q q q q q q q q q 8 * q q q q q q q q q q q q q w q q w w q q q q q q q q q w w w q q q w q q q q q q q q q q q q q q q w w w q ",
"; q q q q q q q q * q q q q q q q 4 w w w q w q q q q q w q q w q q q q q w w w w q w q q w q q w q w q w w q q q q q q w w w q ",
"* q q q q q q w q q q q q q w q q q w q w q q 5 w q q w 5 q q q w q q q q q w w w q q q w w q 5 w w w q w w w w q q q w q w w q ",
"8 , q q q q w q q q q w q q w w < w q w q w w w q w w q w w w q q q w q q w w w w w q w < w w w q q q q q q q w q q q q w w q < ",
"# # q q q q q q q w < q q q q w q q w q w w w w q q w q q w q q q w q q w w w w q q w q w w w w w q w q 5 q q q w q q w w w w q ",
"# # 2 q q q q w q q w w q q w w q q q w q w w w w w q w w w w w q q q w < w w q w q q q w w w w w w w q w w w w w w q w w w q q "
};
