/* XPM */
static char *_680189995203[] = {
/* columns rows colors chars-per-pixel */
"64 64 124 2 ",
"   c #040301",
".  c #080705",
"X  c #0A0907",
"o  c #0D0C0B",
"O  c #100E0F",
"+  c #0E100F",
"@  c #12100F",
"#  c #0D1111",
"$  c #121312",
"%  c #191615",
"&  c #171916",
"*  c #1A1917",
"=  c #161A19",
"-  c #1C1C1A",
";  c #211D1C",
":  c #23201E",
">  c #242322",
",  c #292A25",
"<  c #272928",
"1  c #2C2B2A",
"2  c #31312F",
"3  c #2E3639",
"4  c #2F383C",
"5  c #343435",
"6  c #363835",
"7  c #3A3937",
"8  c #32373A",
"9  c #32383B",
"0  c #3C3C3C",
"q  c #403E3F",
"w  c #42413F",
"e  c #49413E",
"r  c #454444",
"t  c #484745",
"y  c #474749",
"u  c #47494B",
"i  c #4E4E4D",
"p  c #534B47",
"a  c #514E4D",
"s  c #4E504E",
"d  c #52514E",
"f  c #4F4E50",
"g  c #514F50",
"h  c #4F5150",
"j  c #525252",
"k  c #595654",
"l  c #565857",
"z  c #5B5956",
"x  c #575658",
"c  c #585659",
"v  c #5D5B5A",
"b  c #605752",
"n  c #605856",
"m  c #635E5B",
"M  c #5E605F",
"N  c #65615E",
"B  c #656361",
"V  c #6A6563",
"C  c #676863",
"Z  c #6D6966",
"A  c #6D6B6A",
"S  c #706563",
"D  c #726964",
"F  c #726D6A",
"G  c #786F6A",
"H  c #75716D",
"J  c #78726E",
"K  c #767371",
"L  c #7A7472",
"P  c #7D7976",
"I  c #7D7B79",
"U  c #837B76",
"Y  c #827D7A",
"T  c #85817E",
"R  c #8A817D",
"E  c #848382",
"W  c #8B8583",
"Q  c #8D8986",
"!  c #8E8A89",
"~  c #928985",
"^  c #938D8A",
"/  c #988F8A",
"(  c #95918F",
")  c #9B928E",
"_  c #969291",
"`  c #9B9593",
"'  c #9C9996",
"]  c #9D9C9A",
"[  c #A09591",
"{  c #A29996",
"}  c #A49D9A",
"|  c #A99E9B",
" . c #A5A19E",
".. c #AAA29E",
"X. c #A19FA0",
"o. c #A3A2A1",
"O. c #ABA5A2",
"+. c #AEA9A6",
"@. c #AEADAA",
"#. c #B0A7A2",
"$. c #B2A9A6",
"%. c #B8ADA7",
"&. c #B4ADAA",
"*. c #B8AEAB",
"=. c #B5B1AD",
"-. c #BBB2AE",
";. c #B3B3B1",
":. c #BDB5B2",
">. c #BEB9B6",
",. c #BEBCB8",
"<. c #C3B7B4",
"1. c #C4B9B5",
"2. c #C8BAB6",
"3. c #C4BAB8",
"4. c #C1C0BE",
"5. c #BEBEC0",
"6. c #CCCDCA",
"7. c #D1D0CE",
"8. c #DAD6D4",
"9. c #DAD9D7",
"0. c #DFDEDA",
"q. c #E1E0DE",
"w. c #E5E2E1",
"e. c #EAE9E5",
/* pixels */
"f g i i a i i i s s i i d i s j i u i u s a g a i h i h j j j l h l j h j j f f j j d d s d j j g j i i s i i i f j f h j i d i ",
"i f i i i i u a d i d i i i s h i i i i i j j i f g h h j v o.X.j h j x h j f f d d d d d s i h f j i i s s s j f f f f f g a a ",
"i s i f d a s t d p i i i i i s s j i a j j g j j i d d d C q.9.j j s i h f j f s j h j s s d i s i s d d p i i i i i i i s i i ",
"h i i i s t a a i i i i i i i i d s i i j i i i i d i i d Z q.9.d d a d f f f f h h j h i d i j d i a d a d i i i i i i s i i i ",
"i s i i i p d z N C Z V N k p s i i i i s s u i i i j z N J O...Z N m d g a a a d j j j s s s d i z N Z Z N N z a a a i i i i i ",
"i i i d v I ` =.>.3.3.>.<. .T z i i u i i d d i v J _ $.>.3.,.1.3.3.-.' W Z k a d d h h s s d b T O.,.,.1.4.>.=.` P v a i s i i ",
"i i k Y $.,.1.4.3.1.3.3.1.1.<.{ V i i a d d z T O.1.>.2.3.1.1.1.2.3.3.1.3.-.) Z l s d d d s C ..1.1.,.1.1.1.2.1.3.2.O.I z i d g ",
"i v } :.1.1.1.1.1.1.3.3.3.1.1.1.+.Z p a d Z O.>.3.3.3.3.<.<.1.1.3.3.3.1.2.3.3.=.R M d d d D %.<.1.1.1.1.1.1.1.1.3.1.3.:.` m a i ",
"p ) ..[ -.2.2.2.<.<.<.1.1.1.1.1.3.O.M d R >.3.3.1.<.2.<.1.1.>.1.1.1.1.<.<.4.<.-.4.[ N e D %.4.2.<.<.<.2.<.2.2.<.<.<.:.{ +.! a i ",
"p R %.<.4.2.2.2.<.2.<.1.1.1.1.1.1.1.~ R 1.1.>.3.<.2.1.<.<.1.1.1.3.1.2.<.2.<.<.4.<.4.%.D R 2.<.<.2.2.2.2.2.2.<.2.2.3.>.3...P a u ",
"R <.4.<.2.2.%.2.2.<.2.1.1.1.1.1.1.1.1.1.1.1.1.2.2.2.<.2.1.1.1.3.1.3.<.<.4.<.<.<.4.<.4.#.<.2.2.4.<.<.<.<.<.<.2.<.<.<.2.>.3.;.P a ",
".. .%.<.2.<.2.2.<.<.3.1.1.1.<.1.1.1.1.1.1.1.2.2.2.<.1.1.<.1.2.2.1.3.<.2.<.<.<.2.<.<.2.4.2.2.2.%.4.<.<.2.4.<.<.<.2.1.1.1.:.{ &.k ",
"R #.1.1.2.4.<.<.4.<.<.<.1.1.1.1.1.1.1.1.<.1.-.%.1.1.1.1.1.1.<.2.<.1.1.1.1.1.<.=.%.4.<.<.2.<.2.4.<.2.-.4.<.<.<.2.1.1.1.1.3. .W k ",
"..4.<.4.<.<.<.2.<.<.4.4.4.1.1.1.1.1.1.1.1.<.[ N G { %.1.1.1.<.2.<.3.1.1.$.U b p R <.<.2.2.<.<.2.<.<.2.2.2.4.<.4.<.1.1.<.3.3.} j ",
"#.<.4.<.<.2.2.<.<.<.<.<.1.<.1.2.1.1.1.1.1.1.1.>.~ p p ) 3.1.<.2.2.3.$.S e G  .1.4.2.2.<.2.<.<.2.4.-.2.-.<.<.<.<.2.2.<.<.1.-.&.z ",
"G [ <.<.<.2.<.<.<.4.4.<.1.<.<.2.1.1.1.1.1.1.@.R T ( @.=.-.2.2.3.<.3.-.:.' T T  .<.4.<.2.<.2.4.-.2.2.2.2.<.2.4.<.<.2.<.1.3.^ L d ",
"p  .1.<.<.<.<.<.<.<.2.1.1.1.4.<.<.<.2.2.<.R m e l A K _ ,.,.1.1.2.<.O.C l s h P P $.2.2.1.1.1.1.<.<.2.4.<.<.<.1.1.2.1.1.1.R d d ",
"k R <.2.4.<.4.2.2.<.<.1.1.1.<.4.<.4.4.4.R N , @ # = I E ' 1.1.1.<.:.v z # # # 3  .L :.<.1.1.1.1.2.2.<.<.2.<.2.2.1.<.1.1.1.R s d ",
"p F >.4.4.<.<.2.4.2.2.4.1.1.1.<.<.<.2.<.U 6 @ @ # # = @.Z 1.1.3.1.^ I + + # # # j @.R 3.1.1.<.1.2.2.<.2.<.2.2.<.2.2.%.1.>.C e s ",
"d M ..4.<.<.<.2.<.<.<.<.1.1.1.<.2.<.4.R T @ + + # # # ' T :.:.;.:.J I + # # # # < 7.T 1.2.1.1.1.<.4.-.2.4.-.2.2.2.2.2.2.#.z d s ",
"s k R 4.2.<.<.2.<.1.1.<.1.<.2.2.<.<.1.[ ^ + + # + # + X.E T s u A M E # # # # # < 9.Q 3.<.<.1.1.2.-.<.2.2.<.<.2.<.4.4.>.U d s s ",
"s e b #.4.<.<.2.1.1.4.<.1.<.2.1.<.4.1...( M # + + + > 6.M 9 9 6 9 i ;.- o # # # A 9.P 1.<.<.1.1.2.2.2.<.-.2.<.<.<.<.4.O.z e s s ",
"s e b T <.4.2.%.<.1.1.1.1.1.<.<.4.<.<.<.H 4.l & = 2 ;.4.9 4 6 4 3 4 E o.1 % = z q.L O.<.1.3.1.3.-.2.2.4.4.2.<.4.<.4.-.D s s s s ",
"d d e e R %.4.2.4.<.1.<.1.1.2.<.4.<.4.4. .I 6.;.@.0.:.A 9 4 4 4 4 4 u ' 6.@.,.e.W Q 3.1.<.3.1.>.4.2.2.-.2.<.2.<.4.%.J s s s s d ",
"s s s s d J ..:.1.4.1.1.1.1.-.( %.2.4.<.<.%.G U R D R ..3 4 4 4 4 3 M ' A I Y Z } 1.3.3.1.1.) ^ :.3.3.2.1.3.3.>.| D a a s s i s ",
"h s s i d a k P { -.=.-...Q N k [ 4.<.<.<.4.4.4.%.-.4.) 6 4 4 4 4 9 j ,.>.3.3.3.3.>.3.1.1.:.Z d N ^ $.-.:.-.' J z e a a s s s i ",
"u i t i d d i i d z z l d d i i U 4.2.<.2.<.-.2.4.<.4.| 6 4 4 6 9 8 m *.<.<.1.1.1.1.1.3.3.} k p i s d z k j a i s s s i f f a a ",
"i i u s u i u t p s d s i i i i e R 4.2.2.<.4.<.-.4.<.[ w 3 6 6 8 q K m D ) -.<.1.1.1.>.-.Z a i s s a u i a s i s s s a f i g a ",
"i t a u a i i u i i i j i i i i b D %.4.<.<.<.<.-.R U U R D e e b R <.<.#.U ..2.1.1.>.>.Q k i h s s s s i s i i i i f i f i h f ",
"i s u s s s i u i i f i g j f i d e L :.4.<.4.<.R R %.2.2.2.<.%.4.<.4.4.4.<.<.<.1.3.3.} k a f f i s s j i i i s i i f f j i i i ",
"i t s u i s i i i i s j i g f i d d d T -.4.<.4.4.4.2.2.2.<.<.4.2.-.<.2.2.<.4.<.1.3.} v a g f f f f g i i i u i f f f f i j d s ",
"i i s s s d i i i s i h g a f f d e s d P %.<.<.4.4.2.2.<.4.<.<.2.4.<.4.-.4.<.<.1.` z a a i i i i i g a i i i i f f f h i i s s ",
"f i i i i i u i i i i g i i a i s s d k e N ..4.2.4.1.1.1.1.<.1.<.2.4.2.%.2.2.%.T p s s a i t s s i i i h i i j f i j f h i g i ",
"f f i i f i i i f i f i i i i s s s s e b b U R ..-.<.1.1.1.1.1.-.2.2.<.2.%.| R H M d t i i a i s i i i i f h i i f i g j i f h ",
"f i i i s h h i i i i i i h i i s s d D R %.<.<.#.{ ) %.-.-.-.<.%.-.%.| #.R 2.4.<.#./ D k j s d d i i s h i i i i i i h h f h h ",
"i i i i i i i s i i i i i i i i d H | 4.4.4.2.<.2.4.1.-. . .{ { { | %.4.4.2.2.2.1.1.4.4...I M d j s d i s i i i i i i h s j j h ",
"i i u i s s s u h s j i d a d A { <.1.1.<.<.<.2.2.<.<.4.1.2.1.1.1.1.1.1.2.2.2.<.<.<.<.<.<.<...G x i s d d h f f i i i j h j h h ",
"i i i i s h h i s f i i d z Q :.4.4.1.<.2.<.2.<.<.4.<.<.1.1.1.1.1.1.1.1.2.2.2.2.2.<.2.<.<.4.<.<.( N d d i i f g i i i s h h h h ",
"g i i i s s i i i d d a N  .1.1.<.<.<.<.2.2.<.<.2.2.<.<.1.<.2.2.-.2.1.1.2.2.<.<.<.2.4.<.<.<.2.<.3.O.H d j d d i i i i j h j i j ",
"i i i i s u i i g a d F =.3.1.1.4.<.<.4.<.<.2.4.-.<.4.<.<.2.<.<.1.1.2.<.<.<.2.<.2.<.2.1.<.4.<.2.1.3.=.U k d s j i f g h g i i i ",
"g g g f i g j j d d J =.3.1.1.1.<.<.4.1.:...:.4.<.2.1.1.1.1.<.2.1.1.1.1.-.1.1.1.1.| %.4.4.<.<.4.1.1.1.:.I d d a i h i j f j i a ",
"g g i i i i f g a j  .3.1.<.1.<.2.2.<. .D C <.<.<.<.1.1.1.1.2.<.1.1.1.1.2.1.1.1.%.T T R :.4.<.<.1.1.1.1.=.k a d h h g h h i i i ",
"g i i i i i i i t 1 +.3.1.1.<.1.<.%.T d d C 4.2.2.<.2.1.1.1.1.2.4.1.1.1.1.1.2.2.,.R p b J ..<.4.1.1.1.1.O.: i a h h j h g i i i ",
"i i i u i i i r $ . I :.3.1.1.1.[ N d s s D <.<.2.<.2.1.1.1.1.1.2.1.1.1.1.2.-.<.4.T d p d N / >.1.1.1.1.v   > i h h j j g g f f ",
"i i i i i i i y 1   > ) >.4.,.^ k s s s s T 4.4.2.<.2.1.1.1.1.1.1.2.1.1.1.1.2.<.4.R d s k s l R 1.1.1.! @ X 5 i i i f j g g g j ",
"i i s f i i i i q o X ; J ( I k s s d s e ( <.4.2.<.<.<.1.1.1.1.2.<.1.1.1.1.<.4.4.R d s l d d M L ( C @ o o g i i i h f g g j j ",
"i f d j i j i f t r $ 5 d d j j p s s d d [ <.<.1.1.1.1.1.1.1.1.2.2.2.1.1.1.2.<.4.%.b b s l s d a j i > < y i i f g j j j j j j ",
"i i f j i f i i i u r s d d h j s d k d d ) <.4.1.1.2.1.1.1.1.1.%.2.2.1.1.1.2.2.4.%.b e d s d d j j j j y j j j s j f j j j h h ",
"i u u i u i i i i a i j i j j f f j j h h ` 3.<.<.2.1.2.1.1.3.<.2.<.1.1.1.1.1.3.2...j d f h j j j j j j a h f i j j i h j j j j ",
"i i i i i i i i s f j i j i j j h j x h s I 2.<.2.1.1.2.3.<.<.<.2.<.<.1.1.<.3.1.3.R d a j j j j j j j j s j j i j j j i i j j j ",
"i i a i f j i j a i j j a h i j j j x h d N O.3.<.1.1.1.2.3.1.2.<.1.1.1.1.1.1.3.=.N g j h h j f j j i j f j h h j j j j j i f j ",
"j j f a i f j j h f g h h i j j h j h j j a P :.<.1.1.1.<.3.3.1.1.2.1.1.1.1.1.<.P k j f j h j j j j h j j j j j j j j f f i j i ",
"i f i i f d h j i h f j g f j j g j j j a a x I <.3.3.<.2.3.1.1.2.2.3.2.<.<.1. .k d j j x h j j j j j j j j j j h a f h j j d h ",
"i i i i i i i d f i d i h j j i g g f f g g a H 3.3.<.1.<.2.2.*.=.:.1.2.<.2.1.%.z d j j j j j j d f j j j j j j i i j j j j j j ",
"i i i i i f i f s g i j i j j j g j g f g k x K ,.1.1.2.2.2.| n V :.<.1.1.<.3.-.z j j g j j j j j g j j j j j j f j g j j j j i ",
"j i f i i h j j h i j i j i j f x j f g x j j K <.3.<.<.<.<.X.k V :.1.2.1.<.1.-.z g k x j j j j h j j j j j j x j j s j j j f i ",
"g i j j j s j j j g i j j j j j d j l j j x j K 1.1.<.<.<.3. .k V <.<.<.<.1.<.-.z s j j j l j d h k j l x l j j j j j j x j j j ",
"j h j j j s j j j h i f j j j i l j j j x j g K 1.<.<.3.2.>. .k V :.3.3.<.1.1.-.z l j j l h j d j j j j j j j h j j j j j x j j ",
"h j j j h j j j j i g h j j j j l s l j k j j H 3.3.3.>.3.>. .l V :.2.3.3.1.3.=.v j j h h l s d j j j j j j j j j j j j j k j j ",
"i j j j j j j l j j j j x j j j j j j j j k k B =.1.3.3.1.>.E d v  .3.3.,.3.1.] l l j j l h d s j j x l j l j k j j j j j l x x ",
"j j j j j j x j j h j j j j x j j j x x j k d d i ] $.' B d v k d r B ` @. .C m l j x k l j j j l x j l x j l j j j j x l x j k ",
"i j j j j j j x j j k j j j j x j j j j l x k s > * * : * 5 d j k 5 & : % * - c x j j j j x k x j x j j l j j x j j j j l x l j ",
"i g j h j h j j j j x x j j k l x h j l j l l z 0 t 7 0 r r j j j i r 0 5 u r x j j j j l l c l j j j j j j k j l j j l k x j j ",
"i i i j j j j l j j l l j j j j j j l j x l x l j x k d x l j k j s l j k x k j k l j l c c c c l l k x j j l l x x j l j l l j "
};
