/* XPM */
static char *_679843177247[] = {
/* columns rows colors chars-per-pixel */
"64 64 248 2 ",
"   c #59300C",
".  c #5D3714",
"X  c #65371A",
"o  c #733E2B",
"O  c #5D432A",
"+  c #784A29",
"@  c #694A37",
"#  c #714D31",
"$  c #4E4E4E",
"%  c #504E4F",
"&  c #54514F",
"*  c #59534F",
"=  c #504F50",
"-  c #525252",
";  c #595556",
":  c #575956",
">  c #595C56",
",  c #5C5659",
"<  c #5C5A5A",
"1  c #725047",
"2  c #785846",
"3  c #62575C",
"4  c #625B5D",
"5  c #695A5A",
"6  c #715B5D",
"7  c #5E6457",
"8  c #5E625A",
"9  c #7A6843",
"0  c #64645A",
"q  c #656C5C",
"w  c #67725A",
"e  c #6A735D",
"r  c #6E7A5D",
"t  c #655D60",
"y  c #6A5B62",
"u  c #735C65",
"i  c #785E68",
"p  c #7C5E6B",
"a  c #666362",
"s  c #6B6366",
"d  c #6B6967",
"f  c #796666",
"g  c #73656A",
"h  c #7B636D",
"j  c #746A6B",
"k  c #6C7661",
"l  c #717C63",
"z  c #737867",
"x  c #7A6870",
"c  c #7B6D72",
"v  c #7C7574",
"b  c #875936",
"n  c #8B623E",
"m  c #845745",
"M  c #855954",
"N  c #A2545D",
"B  c #896848",
"V  c #976946",
"C  c #96764D",
"Z  c #916657",
"A  c #9B7755",
"S  c #A16F4E",
"D  c #A77957",
"F  c #835E68",
"G  c #965D66",
"H  c #AD5B6A",
"J  c #87646A",
"K  c #996667",
"L  c #8E726E",
"P  c #8C6374",
"I  c #896676",
"U  c #846C75",
"Y  c #966679",
"T  c #946B7D",
"R  c #837375",
"E  c #85737A",
"W  c #8C747E",
"Q  c #89787B",
"!  c #95767A",
"~  c #A26966",
"^  c #A86778",
"/  c #B36879",
"(  c #AF7271",
")  c #A9747B",
"_  c #C55D7F",
"`  c #7B884A",
"'  c #79934F",
"]  c #74845E",
"[  c #7A8C5D",
"{  c #7C9A55",
"}  c #7C945D",
"|  c #7E9B5B",
" . c #758362",
".. c #7A8966",
"X. c #7B8C64",
"o. c #7E9462",
"O. c #7F9663",
"+. c #868D55",
"@. c #839456",
"#. c #85965B",
"$. c #809B5E",
"%. c #AD815E",
"&. c #809664",
"*. c #819A62",
"=. c #839769",
"-. c #8D8B72",
";. c #94857E",
":. c #AB8969",
">. c #AD886B",
",. c #9CA17C",
"<. c #9C6C83",
"1. c #8C7B81",
"2. c #957B84",
"3. c #9A7884",
"4. c #A26B82",
"5. c #A86985",
"6. c #AD6D85",
"7. c #BA6986",
"8. c #B46D8B",
"9. c #A87788",
"0. c #B7778A",
"q. c #BF6F90",
"w. c #AB7C90",
"e. c #BE7593",
"r. c #B87B94",
"t. c #C46B89",
"y. c #C4738D",
"u. c #C27A8A",
"i. c #C56D93",
"p. c #D66B98",
"a. c #C37D94",
"s. c #C97896",
"d. c #D5789A",
"f. c #E0699A",
"g. c #D47AA2",
"h. c #DC7DA2",
"j. c #E47DA4",
"k. c #8C8285",
"l. c #9A8385",
"z. c #968689",
"x. c #9C848C",
"c. c #9B8F8F",
"v. c #AA8786",
"b. c #A4848C",
"n. c #AA828C",
"m. c #A38A8B",
"M. c #B58787",
"N. c #B4968A",
"B. c #AA8593",
"V. c #A98C94",
"C. c #B38492",
"Z. c #B78898",
"A. c #B58D9B",
"S. c #BB8B9B",
"D. c #AD9498",
"F. c #B99796",
"G. c #B2929B",
"H. c #BD949C",
"J. c #BBB38E",
"K. c #B8A598",
"L. c #BA8DA0",
"P. c #BB95A3",
"I. c #B799A4",
"U. c #BCA5AB",
"Y. c #C5888E",
"T. c #C19B87",
"R. c #C78799",
"E. c #D4889A",
"W. c #C59997",
"Q. c #C3939C",
"!. c #CB939C",
"~. c #D3929D",
"^. c #D4969E",
"/. c #C7B58F",
"(. c #C8A89B",
"). c #D3A39C",
"_. c #C8B499",
"`. c #C58DA3",
"'. c #CC8BA3",
"]. c #CD88A6",
"[. c #D48DA3",
"{. c #DA89A4",
"}. c #DC8CAA",
"|. c #C494A3",
" X c #CB93A4",
".X c #C49BA4",
"XX c #CA9BA5",
"oX c #CC94AA",
"OX c #C598AA",
"+X c #CC9BAB",
"@X c #D392A5",
"#X c #DA95A6",
"$X c #D79CA5",
"%X c #D393AA",
"&X c #DD95AC",
"*X c #D39DAA",
"=X c #DC9CAC",
"-X c #CD9CB0",
";X c #DC97B3",
":X c #D59CB2",
">X c #DB9CB3",
",X c #E484A8",
"<X c #E48BAC",
"1X c #E394AB",
"2X c #E599AC",
"3X c #E59BAD",
"4X c #EA8AB2",
"5X c #E697B6",
"6X c #EA94B4",
"7X c #E49BB4",
"8X c #E59CBA",
"9X c #EB9DBB",
"0X c #CBA8A5",
"qX c #CBA2AB",
"wX c #D6A8A4",
"eX c #D5A3AC",
"rX c #DCA4AD",
"tX c #D5ACAB",
"yX c #DAABAC",
"uX c #CCB2A4",
"iX c #D8B3A7",
"pX c #C8A8B3",
"aX c #D5A3B3",
"sX c #DDA4B2",
"dX c #D7ABB7",
"fX c #DCABB4",
"gX c #DCB4B6",
"hX c #E3A3AD",
"jX c #E2A9AF",
"kX c #E1B4AA",
"lX c #E3A4B3",
"zX c #EAA4B5",
"xX c #E3ABB4",
"cX c #EBAAB5",
"vX c #E4A3BA",
"bX c #EBA4BC",
"nX c #E4AABA",
"mX c #ECABBB",
"MX c #F0AABB",
"NX c #E4B3B6",
"BX c #E4B3BD",
"VX c #DDC0B7",
"CX c #DBB9C6",
"ZX c #EEA3C1",
"AX c #E9AAC2",
"SX c #E9B6C4",
"DX c #F0B2C0",
"FX c #EFC2CB",
/* pixels */
"$ $ $ $ $ $ $ $ $ $ $ $ $ $ $ $ $ $ $ $ $ $ = = $ $ $ = - - - - : - - - - - $ $ = - - $ $ $ $ - = $ $ $ $ $ $ - $ $ $ $ $ $ $ = ",
"$ $ $ $ $ $ $ $ $ $ $ $ $ $ $ $ $ $ $ $ $ $ = = = = = = - = - - - - - - - $ $ $ = = = - $ - $ - $ - $ = - $ $ $ - $ $ $ - $ $ $ ",
"$ $ $ $ $ $ $ $ $ $ $ $ $ $ $ $ $ $ $ $ $ $ $ = = = = = = $ = = - - - = - - - $ - - - = $ - $ $ $ = - $ $ $ $ $ $ $ $ $ $ $ $ $ ",
"$ $ $ $ $ $ $ $ $ $ $ $ $ $ $ $ $ $ $ $ $ $ $ $ $ = $ $ $ = = = = $ $ $ $ $ $ $ = = - = $ $ $ - = $ = - $ $ $ $ $ $ $ $ $ $ $ $ ",
"$ $ $ $ $ $ $ $ $ $ $ $ $ $ $ $ $ $ $ $ $ $ $ $ $ $ $ % % ; <.w.2.t - t = = $ - = - = - $ = $ = $ = $ - $ $ $ $ $ $ $ $ $ $ $ $ ",
"$ $ $ $ $ $ $ $ $ $ $ $ $ $ $ $ $ $ $ $ $ $ $ $ $ $ $ % - ; <.L.OXc a x.c - ; - - - - = = $ $ = $ - - $ $ - $ $ $ $ $ $ $ $ $ $ ",
"$ $ $ $ $ $ $ $ $ $ $ $ $ $ $ $ $ $ $ $ = = % $ - : - ; p p t c 1.c 2.:XA.y I h h i < - $ $ = = $ $ $ - $ $ - $ $ $ $ - - $ $ $ ",
"$ $ $ $ $ $ $ $ $ $ $ $ $ $ $ $ $ $ $ < g s < s Q k.s 1.g.e.c 1.V.OX8XsXx.4 s <.i.i.T 8 $ = $ = - - $ $ $ $ $ - $ $ $ $ $ $ $ - ",
"$ $ $ $ $ $ $ $ $ $ $ $ $ $ - $ = $ - 1.`.B.d A.pXI.x.oXvX3.D.pXAXbXmXbXH.v 1.B.w.e.P.b.g , = $ $ $ $ - - - $ - $ $ - $ $ $ $ $ ",
"$ $ $ $ $ $ $ $ $ $ $ $ $ $ - $ = = , w.oXI.1.OXqX2.1.-X-Xz.m.aXZXbXcXcXxXdXfXnX X3.V.H.P.v = = $ $ $ - $ $ - $ $ $ $ $ $ $ $ $ ",
"$ $ $ $ = $ $ $ $ $ $ $ = < < $ $ = t 3.U g g z.|.].x.D.c.1.Q  XsXfXdXNXDXMXmXMXsXOXA.P.aXL.x - $ $ $ $ $ - $ - $ $ $ $ $ $ $ $ ",
"$ $ $ $ $ $ $ $ $ $ - $ a A.z.h 1.j B.>XOXc.z.d H.mXnXdX1.1.!.NXtXfXBXSXFXDXZXMXAXnXDXbX9X;XV.t - - - $ $ $ - - $ $ $ - $ $ $ $ ",
"$ $ $ $ $ $ $ $ $ = - - t 3.z.<.e.9.OXbXbXBXfX+XlXmXnXdXI.Z.eXVXSXfXxXVXBXMXcXnXnX.XsXlX%Xr.x < : - - $ - - - - $ $ $ $ $ $ $ $ ",
"$ $ $ $ $ $ $ $ $ = - - s E j c g.}.sXnXtXNXMXmXNXxXfXgXfXH.=XnXaXOXNXNXmXNXjXlXaXb.C.#Xa.U y , - - - - $ - $ - - - $ $ $ $ $ $ ",
"$ $ $ $ = $ $ = $ $ = - 2.OXI.I.>X XXXxXxXNXZXMXSXBXtXdX+X$XzXvXAX;XlXkXiXfX~.1XzX%Xd.~.R.<.E 1.h s < - $ $ $ $ - $ $ $ $ $ $ $ ",
"$ $ $ $ $ $ $ = - y ; - W :XP.pXnXV.m.lXMXbXbXnXmXDX>XdXzXyXhXyXnXnXrXuX).H.a.@XiXhX8X'.3.1.1.i.R.|.V.a $ $ $ $ - - $ $ $ $ $ $ ",
"$ $ $ $ $ $ $ $ E `.2.; 1.:XQ.0XZX`.w.}.ZXvX>XsXcXzXR.V.BXxXnXrX#X[.pXdX{.oX XqXuXgXNXU.z.k.2.].9XcXsXc $ = $ $ $ $ $ $ $ $ = - ",
"$ $ $ $ $ $ $ $ 2.:XD.s x ].&XuXcXaXn.a.Z.E H.mXMXcXE.W aXbXZXxXtX!.vXdXR.4X8XsXsXSXtXK.qXqXOX:XoXl.Q ; $ = = $ $ $ $ $ $ $ $ $ ",
"$ $ $ $ $ $ $ $ , j c j x 1.I V.hXH.Q w.w.j a.;X.XeXW.z.oX;X8XvXfXtXSXgX/.xXOX(.tX:XG.0XD.l.V.oXZ.c d = = = = $ $ $ $ - $ $ $ $ ",
"$ $ $ $ $ $ $ - x.j k.K.3.1.V.-X*XE 5 A.rX.X*XsX.XeXuXgXvX;X9X>XsXNXpXpXuXNX~.E.%XsXrXG.1.E I.;X8X:XI.; $ = $ $ = $ = $ $ $ $ $ ",
"$ $ $ $ $ $ % w.8X:XaXBXeXqXqX-XG.Q E Q.iXyXqXqXI.%X3XmXbX9XbXbXSXSXtXBXnXyX3Xh.}.cXsXM.) R.:XvXAXAX-Xs = = $ $ = = $ = $ $ $ $ ",
"$ $ $ $ $ $ 4 L.bX8XnXmXmXmX.X0XD.F.D.*XxXXXS.|.OX8XzX=XzXvXbXnXmXmXNXnX%X!.bX3X=XjX#Xy.@X1X%XsX>X;X8XZ.i - = = $ $ = $ $ $ $ $ ",
"$ $ $ $ $ $ U sXnX7X*XbXZXvXuX0X+XH..XvXbXOX9.b.aXbX=XC.eXsXvXeXeXxXjX=XR.0.=XwXxXlX#X`. XH.OX&XB.1.<X<Xe.P y = $ $ $ $ = = $ $ ",
"$ $ $ $ $ % 2.vX8X5X;X9XbXvXeXeX9X>X$X7X8XI.D..XzX6Xh.s.0XcXhX=XhXrX1XXXn.0.&XwXwXyXZXdX+XdXSX>XE h oX8X<Xg.P = $ $ $ $ $ = $ $ ",
"$ $ $ $ % 3 L.sXB.1.;XvXzXMXZ.l.vXbX>XsXnX-X@X}.&X].p.f.W.M./ 9XZXzX1XcX!.y.6XzX=X5XbXvX X>XmX+Xc 9.}.AX9X Xx ; $ $ $ $ $ $ = $ ",
"$ $ $ $ % , b.1.- c aXkXkXNXrX=X9XvXwX0XCXpX8.e.d.0.6.p.E.Y.E.3XSXFXcXcX~.y.R.*X`.R.{.C.R z.XX|.1.x `.-XP.k.v < $ $ $ $ $ $ $ = ",
"$ $ $ $ $ $ = % - Q |.F.eXXX+XE.<X9X5X[.!.F.T 5.y.) Y y.y.=XlX=X>X2X~.0.).$XaXF.! C.=X@Xb.;.!.}.:XL.;X8X3.< d ; $ $ $ $ $ $ = $ ",
"$ $ $ $ $ % % = P 9.<.b.rXhXV.T 1X9XbX9XxX*Xg.g.[. Xu./ m $XzX6X1X$XY.( (.tXqXW.M.S.jXeX9.m.$X=X8X;X[.{.6.4 - $ $ $ $ $ - $ $ - ",
"$ $ $ $ $ $ 3 P 8.T R !.zX~.! W 0XrXvX9XrX@X}.;X>XmX#X~ S hXmXZXzXNXfXhXtXV.l.Q.!.W.yXQ.! m.(.$X;Xj.E.s.4.h I P < $ $ $ $ $ - $ ",
"$ $ O $ $ $ <.<.h j v x.rX1Xs.!.0X_.yX;XA.;XZXSXxXzXE.~ ~ &XZXbX#X XlXDXQ.! v.Y.XX(.xX7Xs.u.).yX5Xh.C.r.3.9.4.T t $ $ $ $ $ $ $ ",
"$ $ $ $ $ $ - u 8.h a l.rX&X{.3XwX/. X&X%XbX9X].R.3X XM.Y.2XbX9X!.R.8XvXn.) u.~.;X&X=X>XR.s.#XxX9Xd.e.'.].d.5.y = $ $ $ $ - - $ ",
"$ $ $ $ $ $ $ y 6.y y 3.Q.E.jXcX!.R W '.9X9X5X}.,X$XG.N.T.hX4XE.W.rX<XE.eXK / ^.=Xd.s.9.) 1X1X&Xh.p.d.1X6Xs.9.I = $ $ $ $ $ $ $ ",
"$ $ $ $ $ = % h 4.h t.i.Y.<XeXZ.L J T Q.;XgXpXZ.C.2.;.J./.~ N ( W.wX#X2XcXu.( N.) i._ K t./ 6.0.y.i.w.!.`.9.y v t = $ - $ $ $ $ ",
"$ $ $ $ , h Y y 4 T 3.W y.E.R.e.0.d.y.R.d.E.r.w.S.x.Z.F.! X m Y.N.T.2XhX^.3XK.;.! ) J L L.9.) v.a.5.! XX:Xw.x v a = $ - - $ $ = ",
"$ $ $ $ 3 P 8.8.5.) ,.&.b.3X2X,XE.<X6X9X<X@X%X].].B.r.y.Z X m ;.-.M.2X(./ d.M.).7X>Xm.9.oX!.Y.E.h.4.g Q.oX9.g ; $ $ $ = $ $ - - ",
"$ $ $ $ = , u 8.p.a.v.m.).xX2X,Xd.5XbXZXvXkXsX}.S.c.Y.p.K . . # B Y.!.W.^.E.^.yXlXfX_.sX].e.p.i.4.I Q Y.s.6.i - - $ $ = - - - $ ",
"$ $ $ $ $ $ $ s 6.) U 2.F.3X<X{.4X6XzXvXvXOX=XrXuXK.W.d.M O   X N d.0.W.hXhXcXjXlXyXiXpX2.4.i.8.U T C.i.q.5.P h t $ $ = $ - - $ ",
"$ $ $ $ $ $ $ = 5 a 8 -.N.rXXXR.2XzX9X9X5X'.=XtX^.a.t.Y 2 2 . X H p.E.wXhX$XW.=X5X X.Xz.Q 3.b.W j c l.0.Y u i I y $ = = - $ $ - ",
"$ $ $ $ $ $ $ $ = = - a Q V.R G.xX2X,X4X6X5XrX#Xy.t.7.J 1 K X X H _ ^ ) ( P f v.^.%X8XvXdXx.Q j 8 z z s 3 - - - $ $ = = - = $ $ ",
"$ $ $ $ $ $ $ $ = = = = ; < L xXhXn.^ 8.%X*XB.U 6.7.y./ m 1   X V Z 9 K J L K !.8X5X;X1XB.v 4.8.u - = 4 & - ; ; = = = = $ $ - $ ",
"$ $ $ $ $ $ $ $ = - : > ; - j B.y.y.6.c h f J 6 H H G ^ G O X   o 1 u ;.R.r./ 7.s.9.W e.4.g T P : - - < < k.U.z.- = $ $ - - $ $ ",
"$ $ $ $ $ $ $ $ = - 4 6 , : - < P t.r.E g P ^ ^ 7.7.7.^ G 1 X X + u h ! r.e.8.7.^ p d 6.T > , , - $ - - d U.U.k.- = - $ $ $ $ $ ",
"$ $ $ $ $ $ $ $ = = 4 4 ; = - = - F p y u / 7.Y ^ P Y i.8.6 o o @ ; ; 3 g p h h 5 < < u < $ $ $ - - - $ : a a - = - = - $ $ $ $ ",
"$ $ $ $ $ = = $ $ $ = $ $ $ - $ % - ; - ; u p * ; - , u y 1 + + @ & $ $ - - - : - < : - - $ $ $ $ - - - $ - $ $ = - - = - $ $ $ ",
"$ $ $ $ $ - ; $ $ $ $ $ $ $ $ $ $ = - - = % = % = - = = ; # b b 1 * % % a a = = = - : = = = - = $ $ $ $ $ $ $ $ $ $ - $ $ - - $ ",
"$ $ $ = $ $ = $ $ $ $ $ $ $ $ = $ $ - - $ $ , - - & = = - # b b @ * 6 6 - - = - - - = = - - - - $ - $ - $ $ $ $ $ $ $ - - - - - ",
"$ $ = = = = $ $ $ $ $ $ $ $ = - $ = = $ = = v c.- $ $ $ ; B n n 2 * 3 3 % % & = = = = = - - - - - - - a : $ - $ $ $ $ - - - - - ",
"$ $ = = = $ $ $ $ $ $ = = = - - = = - - = = , a & $ $ $ 5 S V V 9 ; % $ % $ = = = = $ = = = - = - - - - - $ - - $ - - - $ - - $ ",
"$ $ $ $ $ $ $ $ $ $ $ - $ $ - - = = - = = $ $ = : = = : %.D S V 9 - $ $ $ - - $ $ - - $ - $ - $ - - - - - $ - $ - - $ $ - - - - ",
"$ $ $ $ $ $ $ $ $ $ - $ $ - $ - = = - - $ = $ = - - * z %.%.D V B 7 8 - 7 > 7 7 : - : $ - - - - - - - - - $ $ $ - - $ - $ - - - ",
"$ $ $ $ $ - = = $ $ - - - - : : 8 q < : 8 w w w w d z :.>.%.D S Z [ ] ]  .k ]  . .w ] 7 w 7 7 8 > - - - $ - - - - - - - - $ $ - ",
"$ $ $ $ - = : a 7 7 e k  .]  .] X.X.z l  . .}  .} &.+.:.%.%.S V V +.{ | } O.O.O.O...O.O.O.O.} ]  .k e 8 q q k k : > 8 - $ $ - $ ",
"$ $ $ $ - - - w ] X.X...k X.O.O.} O.&.*.O.X.O.O.#.+.%.%.%.A C V n B +.' | { | { O.O.{ { O.| | | ..} { | } ..O.X. . .8 : - - - $ ",
"$ $ $ $ - a k w ] ..o.o...X.O.{ { *.} | =.| | ` C A A A C C C V n b 9 n ' ' ' { | { { { { | { { | O.| { | O.O.O. .X. .q - - - - ",
"$ $ $ $ : k ..O.o.o.O.| O.O.| O.*.*.| { $.| { { #.#.@.+.@.@.' @.@.` ` ` | { { | { { | | { { { { | | | { O.O.O.X.q  .q : - - - $ ",
"$ $ $ $ = : k X.X.} O.X.o.O.| O.=.X.o.O.| | | | *.*.$.{ @.$.$.{ $.$.{ ' O.O.| | { { | O.{ { | O.} } | O.X.O.O...q 8 - - - - $ $ ",
"$ - - - = - > d w q w l  ...| O.......O.| O.X.} O.O.O.O.O.O.O.O.{ $.| { *.*.O.| O.| O.O.O.| } .. .q  . . .d d a : - - - - - - - ",
"$ = - - - = = - - = : > 8 k r k k z ....O... .X.O.O.X.X.O.X.....[ | [ } O.&.*.| O.X.]  . .}  .w q : : : : : : - - - - - - : - - ",
"- - - - - - - - - = = = - : : : - < < a e q 8 q k ]  ...O.O... . .e 7 d 0 k k r d a : < - 8 : - - - - - - - - - - - - - : - : - ",
"$ - - - - - - : - = - - - - - = - - - - : - : - - - < 8 ..k < t > - - - - : : : : : - - - - - - : - : - : : - : - - - - - - : : ",
"$ - - - - - - - - - - - - - : - - - - - - : - - - - : : : - - - - ; - - - - : < : : - : - - - - - : : - < - < - - - - - < : : - ",
"$ - - - - - - : - - : - - - - : - - : : : : : - : - : - : : : - - : - - - - : : : - - - : : : - : - - - - - - - , - - - - : : - ",
"$ $ - - = - - ; - - - : - - - : - - - - - : : : - - - : : - : - - - ; - - : - : - : - - : : : : : - : - - - - - - - - : : : : - ",
"$ $ - $ - - - - - - - : - - : : - - , , - : : : : - : - - , - - - : - - : : ; - : - - - < : : : : - : - - - < < - , - - : : - - "
};
